<svg id="Layer_1" data-name="Layer 1" xmlns="http://www.w3.org/2000/svg" viewBox="0 0 128 77.77"><defs><style>.cls-1{fill:#6d4a2e;}</style></defs><path class="cls-1" d="M126.57,89.26A24,24,0,0,1,122,96.09q-5.3,6.39-12.61,6.68c-2,0-4,.14-5.93.29-1.59.16-3.2.25-4.83.29a21.85,21.85,0,0,1-6.74-1q-3-1-6-2.23c-.69-.31-1.41-.61-2.15-.88l-2,.93a60.73,60.73,0,0,1-6.05,2.56,1.79,1.79,0,0,1-.7.12,4.9,4.9,0,0,1-1.68-.35q-2.1-.75-2.56-6.86c-.2-3-.35-6-.46-9a42.23,42.23,0,0,0-.41-5.29,2.3,2.3,0,0,1-.18-.81,14.67,14.67,0,0,1,1.58-3.49l.81-1.57c1.74,1.74,2.79,2.85,3.14,3.31q1.27,2,2.44,4c1,1.75,2.09,3.45,3.25,5.12a5.94,5.94,0,0,0,2.15,1.57h.06a8.17,8.17,0,0,1,.79.38,2.47,2.47,0,0,0,.78.26,2.6,2.6,0,0,1,1.1.46,13.64,13.64,0,0,0,9,3,48.2,48.2,0,0,0,5.64-.53,21.5,21.5,0,0,0,8.08-2.15,37.22,37.22,0,0,0,8.71-8.08,3,3,0,0,0,.47-1.86,3.94,3.94,0,0,0-.24-1.39A14.7,14.7,0,0,0,111.84,72a31.12,31.12,0,0,0-12.79-5.11,41.62,41.62,0,0,1-10.29-2.7q-4.94-2-9.64-4.39a6.74,6.74,0,0,1-3.26-3.14,19.72,19.72,0,0,1-1.4-4,20.63,20.63,0,0,1-.87-5.52,16.21,16.21,0,0,1,1.1-5.87q2.91-7.8,9-10.7a63.5,63.5,0,0,1,11.91-3.95h.12a27.29,27.29,0,0,1,5.34-1,8,8,0,0,1,4.83,1.51.45.45,0,0,0,.35.12,4.48,4.48,0,0,0,1.74-.53,12.7,12.7,0,0,1,4.42-.75c.66,0,2,.08,3.89.23l4.07.18a4.33,4.33,0,0,1,1.63.29c.5.19.88.77,1.13,1.74a9.6,9.6,0,0,0,1.31,2.85,17.79,17.79,0,0,1,1.16,2.21,5.67,5.67,0,0,1,.3,1.86v.35c0,.42.13,1.89.4,4.41a58.94,58.94,0,0,1,.7,7.44,6.76,6.76,0,0,1-.67,2.71A3.19,3.19,0,0,1,124.71,52a6.4,6.4,0,0,1-2.18.34,16.55,16.55,0,0,1-4.24-.58,1.1,1.1,0,0,1-.7-.29,4.5,4.5,0,0,1-1.1-2.26,27.4,27.4,0,0,1-1.13-4.74,6.5,6.5,0,0,0-1.69-3.66,18.84,18.84,0,0,0-3.11-2.59c-.74-.54-1.45-1.1-2.15-1.69-1-1-2.91-1.45-5.58-1.45a16.34,16.34,0,0,1-6-1.51,6.7,6.7,0,0,0-2.44-.41q-5.46,0-10,5.06c-.85.85-1.74,1.69-2.67,2.5q-2.67,2.2-2.67,6.8a4.09,4.09,0,0,0,.37,1.74,6.73,6.73,0,0,0,1.89,2l.12.06a50.11,50.11,0,0,0,7.5,5.4,25.14,25.14,0,0,0,6.91,2.1l1.17.23q6.15,1.27,12.26,2.26a17,17,0,0,0,3.31.41c.43,0,.86,0,1.31.06s.9.06,1.37.06h.47a6.13,6.13,0,0,1,2.67.58q8.43,5.29,8.43,13.08l-.06,1.57.06.35A19.33,19.33,0,0,1,128,83.36,15.75,15.75,0,0,1,126.57,89.26Z" transform="translate(0 -25.58)"/><path class="cls-1" d="M56.82,89.26a24.22,24.22,0,0,1-4.56,6.83q-5.3,6.39-12.62,6.68c-2,0-4,.14-5.92.29-1.6.16-3.2.25-4.83.29a21.92,21.92,0,0,1-6.75-1q-3-1-6-2.23c-.7-.31-1.42-.61-2.15-.88l-2,.93a59.56,59.56,0,0,1-6,2.56,1.86,1.86,0,0,1-.7.12,5,5,0,0,1-1.69-.35q-2.08-.75-2.55-6.86c-.2-3-.35-6-.47-9a42.23,42.23,0,0,0-.41-5.29A2.5,2.5,0,0,1,0,80.63a14.41,14.41,0,0,1,1.57-3.49l.82-1.57c1.73,1.74,2.78,2.85,3.13,3.31.86,1.32,1.67,2.64,2.45,4,1,1.75,2.08,3.45,3.25,5.12a5.86,5.86,0,0,0,2.15,1.57h.06a7,7,0,0,1,.78.38,2.53,2.53,0,0,0,.79.26,2.65,2.65,0,0,1,1.1.46,13.61,13.61,0,0,0,9,3,47.84,47.84,0,0,0,5.64-.53,21.4,21.4,0,0,0,8.08-2.15,37.05,37.05,0,0,0,8.72-8.08A3.11,3.11,0,0,0,48,81a3.94,3.94,0,0,0-.23-1.39A14.76,14.76,0,0,0,42.08,72a31,31,0,0,0-12.79-5.11A41.55,41.55,0,0,1,19,64.15q-5-2-9.65-4.39A6.83,6.83,0,0,1,6.1,56.62a19.68,19.68,0,0,1-1.39-4,20.28,20.28,0,0,1-.88-5.52,16.22,16.22,0,0,1,1.11-5.87q2.91-7.8,9-10.7a63.84,63.84,0,0,1,11.92-3.95H26a27.48,27.48,0,0,1,5.35-1,8,8,0,0,1,4.82,1.51.48.48,0,0,0,.35.12,4.47,4.47,0,0,0,1.75-.53,12.64,12.64,0,0,1,4.41-.75c.66,0,2,.08,3.9.23l4.07.18a4.41,4.41,0,0,1,1.63.29c.5.19.88.77,1.13,1.74a9.35,9.35,0,0,0,1.31,2.85,21,21,0,0,1,1.16,2.21,5.94,5.94,0,0,1,.29,1.86v.35c0,.42.13,1.89.41,4.41a60.85,60.85,0,0,1,.7,7.44,6.76,6.76,0,0,1-.67,2.71A3.19,3.19,0,0,1,55,52a6.44,6.44,0,0,1-2.18.34,16.49,16.49,0,0,1-4.24-.58,1.08,1.08,0,0,1-.7-.29,4.49,4.49,0,0,1-1.11-2.26A28.35,28.35,0,0,1,45.6,44.5a6.49,6.49,0,0,0-1.68-3.66,18.92,18.92,0,0,0-3.12-2.59c-.73-.54-1.45-1.1-2.14-1.69-1-1-2.91-1.45-5.58-1.45a16.34,16.34,0,0,1-6-1.51,6.74,6.74,0,0,0-2.44-.41q-5.47,0-10,5.06c-.86.85-1.75,1.69-2.68,2.5Q9.3,43,9.3,47.55a4.09,4.09,0,0,0,.38,1.74,6.6,6.6,0,0,0,1.89,2l.11.06a51.15,51.15,0,0,0,7.5,5.4,25.21,25.21,0,0,0,6.92,2.1l1.16.23q6.16,1.27,12.27,2.26a16.85,16.85,0,0,0,3.31.41c.42,0,.86,0,1.31.06s.9.06,1.37.06H46a6.07,6.07,0,0,1,2.67.58q8.43,5.29,8.43,13.08L57,77.14l.06.35a19.08,19.08,0,0,1,1.17,5.87A15.75,15.75,0,0,1,56.82,89.26Z" transform="translate(0 -25.58)"/></svg>