<?xml version="1.0" encoding="utf-8"?>
<!-- Generator: Adobe Illustrator 25.1.0, SVG Export Plug-In . SVG Version: 6.00 Build 0)  -->
<svg version="1.1" xmlns="http://www.w3.org/2000/svg" xmlns:xlink="http://www.w3.org/1999/xlink" x="0px" y="0px"
	 viewBox="0 0 256 256" style="enable-background:new 0 0 256 256;" xml:space="preserve">
<style type="text/css">
	.st0{fill:#EEE83F;}
</style>
<g id="Layer_2">
	<g>
		<polygon class="st0" points="118.52,220.55 128,251.5 137.47,220.55 128,220.55 		"/>
		<polygon class="st0" points="4.33,127.83 4.89,128 4.33,128.17 5.45,128.17 35.27,137.3 35.27,128.17 35.27,128.17 35.27,118.7 
			5.45,127.83 		"/>
		<polygon class="st0" points="193.57,193.4 186.87,200.1 215.45,215.28 200.27,186.7 		"/>
		<polygon class="st0" points="55.73,186.7 40.55,215.28 69.13,200.1 62.43,193.4 		"/>
		<polygon class="st0" points="137.48,35.45 128,4.5 118.53,35.45 128,35.45 		"/>
		<polygon class="st0" points="251.11,128 251.67,127.83 250.55,127.83 220.73,118.7 220.73,127.83 220.73,127.83 220.73,137.3 
			250.55,128.17 251.67,128.17 		"/>
		<polygon class="st0" points="62.43,62.6 69.13,55.9 40.55,40.72 55.73,69.3 		"/>
		<polygon class="st0" points="193.57,62.6 200.27,69.3 215.45,40.72 186.87,55.9 		"/>
		<path class="st0" d="M203.4,128.17c0-0.06,0-0.11,0-0.17c0-0.06,0-0.11,0-0.17h-0.01c-0.19-41.48-33.86-75.06-75.39-75.06
			c-41.53,0-75.21,33.57-75.39,75.06H52.6c0,0.06,0,0.11,0,0.17c0,0.06,0,0.11,0,0.17h0.01c0.19,41.48,33.86,75.06,75.39,75.06
			C169.53,203.23,203.21,169.66,203.4,128.17L203.4,128.17z"/>
	</g>
</g>
<g id="Layer_1">
</g>
</svg>
