<svg xmlns="http://www.w3.org/2000/svg" viewBox="0 0 450 750"><defs><style>.cls-1,.cls-2,.cls-3,.cls-4,.cls-5,.cls-6,.cls-7,.cls-8{fill:none;}.cls-2,.cls-3,.cls-4,.cls-5,.cls-6,.cls-7,.cls-8{stroke:#000;}.cls-2,.cls-8{stroke-linejoin:round;}.cls-3,.cls-4,.cls-5,.cls-8{stroke-linecap:round;}.cls-3,.cls-4,.cls-5,.cls-6,.cls-7{stroke-miterlimit:10;}.cls-4{stroke-dasharray:12.48 12.48;}.cls-5,.cls-7{stroke-dasharray:12;}</style></defs><g id="Layer_3" data-name="Layer 3"><rect class="cls-1" x="112" y="38" width="300" height="600"/></g><g id="Layer_1" data-name="Layer 1"><rect class="cls-2" x="37.5" y="112.63" width="300" height="600"/><line class="cls-3" x1="412" y1="637.63" x2="406" y2="637.63"/><line class="cls-4" x1="393.52" y1="637.63" x2="125.24" y2="637.63"/><line class="cls-3" x1="119" y1="637.63" x2="113" y2="637.63"/><line class="cls-5" x1="112.5" y1="37.88" x2="112.5" y2="636.88"/><line class="cls-5" x1="262.5" y1="37.5" x2="262.5" y2="636.5"/><line class="cls-3" x1="37.5" y1="112.38" x2="112.5" y2="37.38"/><line class="cls-6" x1="337" y1="112.88" x2="412.5" y2="37.38"/><line class="cls-6" x1="187" y1="112.88" x2="262.5" y2="37.38"/><line class="cls-7" x1="187" y1="712.88" x2="262.5" y2="637.38"/><line class="cls-3" x1="337.5" y1="712.63" x2="412.5" y2="637.63"/><line class="cls-5" x1="37.5" y1="712.63" x2="112.13" y2="638"/><line class="cls-8" x1="112.5" y1="37.38" x2="412.5" y2="37.38"/><line class="cls-8" x1="412.5" y1="637.38" x2="412.5" y2="37.38"/><line class="cls-7" x1="187.5" y1="112.5" x2="187.5" y2="712.5"/></g></svg>