<svg xmlns="http://www.w3.org/2000/svg" viewBox="0 0 450 750"><defs><style>.cls-1{fill:#ffa436;}.cls-2,.cls-4{fill:#f4a032;}.cls-3{fill:#fff645;}.cls-4,.cls-5,.cls-6,.cls-7{stroke:#000;}.cls-10,.cls-12,.cls-15,.cls-16,.cls-4,.cls-7,.cls-9{stroke-linejoin:round;}.cls-10,.cls-12,.cls-16,.cls-17,.cls-5,.cls-6,.cls-7,.cls-9{fill:none;}.cls-10,.cls-12,.cls-15,.cls-16,.cls-5,.cls-7,.cls-9{stroke-linecap:round;}.cls-13,.cls-5,.cls-6{stroke-miterlimit:10;}.cls-8{fill:#eee83f;}.cls-10,.cls-12,.cls-13,.cls-15,.cls-16,.cls-9{stroke:#6d4a2e;}.cls-9{stroke-width:4px;}.cls-10,.cls-15{stroke-width:2px;}.cls-11,.cls-13{fill:#ffeec7;}.cls-14,.cls-15{fill:#6d4a2e;}.cls-16{stroke-width:0.75px;}.cls-18{opacity:0.15;}</style></defs><g id="Layer_3" data-name="Layer 3"><polygon class="cls-1" points="413 37 113 37 37 113 337 113 413 37"/><polygon class="cls-2" points="337 713 412.5 637.5 413 37 337 113 337 713"/></g><g id="Layer_2" data-name="Layer 2"><polygon class="cls-3" points="258.86 76.34 272.27 74.38 262.28 72.41 260.57 74.38 258.86 76.34"/><polygon class="cls-3" points="247.96 55.13 251 48.71 244.62 55.13 247.96 55.13"/><polygon class="cls-3" points="210.23 93.62 206.41 93.62 200.03 100.05 210.23 93.62"/><polygon class="cls-3" points="262.63 60.77 263.79 62.16 274.49 56.23 261.49 59.38 262.63 60.77"/><polygon class="cls-3" points="234.05 89.38 242.66 92.53 241.88 86.59 237.98 87.99 234.05 89.38"/><path class="cls-3" d="M239.34,60.46,211.69,88.3,210,90c16.61,0,36.32-7,44-15.65s1.91-15.65-13-15.65Z"/><polygon class="cls-3" points="196.03 72.41 183.52 74.38 192.11 76.34 194.07 74.38 196.03 72.41"/><polygon class="cls-3" points="203.09 93.62 199.83 100.05 206.3 93.62 203.09 93.62"/><polygon class="cls-3" points="241.81 55.13 245.07 55.13 251.53 48.71 241.81 55.13"/><polygon class="cls-3" points="189.73 87.99 188.84 86.59 177.77 92.53 190.61 89.38 189.73 87.99"/><polygon class="cls-3" points="220.62 59.38 213.96 56.23 213.25 62.16 216.93 60.77 220.62 59.38"/><path class="cls-3" d="M211.66,88.3l28.05-27.84,1.73-1.73c-14.27,0-32.84,7-41.47,15.65S195.8,90,209.92,90Z"/></g><g id="Layer_1" data-name="Layer 1"><rect class="cls-4" x="37.5" y="112.63" width="300" height="600"/><line class="cls-5" x1="37.5" y1="112.38" x2="112.5" y2="37.38"/><line class="cls-6" x1="337" y1="112.88" x2="412.5" y2="37.38"/><line class="cls-7" x1="187.44" y1="112.44" x2="262.5" y2="37.38"/><line class="cls-5" x1="337.5" y1="712.63" x2="412.5" y2="637.63"/><line class="cls-7" x1="112.5" y1="37.38" x2="412.5" y2="37.38"/><line class="cls-7" x1="412.5" y1="637.38" x2="412.5" y2="37.38"/></g><g id="front"><path class="cls-8" d="M316.36,248.39c-5.31-15.7-8.83-38.75-20.8-53.33-5.73-7-15.85-22.14-22.72-27.4L186.69,376.08Z"/><polygon class="cls-8" points="186.69 376.08 264.02 189.39 264.02 189.39 186.69 376.08"/><polygon class="cls-8" points="318.74 321.38 318.74 320.72 186.69 376.08 318.74 321.38"/><path class="cls-8" d="M54.64,316.77v4l132.05,55.36L59.06,248.39C51.54,280,56.42,314.33,54.64,316.77Z"/><polygon class="cls-8" points="54.64 321.38 186.69 376.08 54.64 320.72 54.64 321.38"/><path class="cls-8" d="M185.56,137.91c-30.59,0-63.38,10.56-84.43,31.05l85.56,207.12Z"/><polygon class="cls-8" points="318.74 376.08 318.74 321.38 186.69 376.08 318.74 376.08"/><polygon class="cls-8" points="318.74 508.13 318.74 430.77 186.69 376.08 318.74 508.13"/><path class="cls-8" d="M293.31,688.64l.28-4.75c0-24,5.2-25.53,7.2-25.76l2-1.86L186.69,376.08V688.76Z"/><polygon class="cls-8" points="54.4 634.44 54.51 651.46 71.11 655.12 186.69 376.08 54.64 508.13 54.4 634.44"/><polygon class="cls-8" points="54.64 376.08 54.64 430.77 186.69 376.08 54.64 376.08"/><path class="cls-9" d="M81.41,688.09v-9c0-23.77-15.85-27-19-27.36l-8.1-.81.1-8.13V305c0-19.47.63-38.35,4.85-57.41,4.35-19.63,11.56-38.82,22.61-55.68A124.78,124.78,0,0,1,97.26,172.7c22.75-23.08,53.18-34.79,90.44-34.79s67.7,11.71,90.45,34.79c15.44,15.68,26.11,35.45,32.93,56.25a204.77,204.77,0,0,1,9.9,57.29c.36,11.53,0,23.14,0,34.69v330l-8.09.82c-3.08.38-18.93,3.57-18.93,27.34v9Z"/><path class="cls-10" d="M312,288.9V642.79s-27,2.72-27,36.3H90.41c0-33.58-27-36.3-27-36.3V288.9s-2.07-142,124.31-142S312,288.9,312,288.9Z"/><circle class="cls-11" cx="188.4" cy="377.42" r="79.09"/><circle class="cls-2" cx="188.4" cy="377.42" r="70.36"/><circle class="cls-10" cx="188.4" cy="377.42" r="79.09"/><circle class="cls-10" cx="188.4" cy="377.42" r="70.36"/><path class="cls-11" d="M215.9,404.94a22,22,0,0,0,4.31-7.21,21,21,0,0,0,.33-15.58c-4.16-10.63-15.54-17.28-25.32-21.94a160.65,160.65,0,0,0-30.16-10.52c-1.9-.48-3.8-.94-5.72-1.32a154.08,154.08,0,0,0,11.75,35.7c5.46,11.51,14,25.78,28.15,26.73a23,23,0,0,0,14.83-4.27A13.3,13.3,0,0,0,215.9,404.94Z"/><path class="cls-12" d="M215.9,404.94a22,22,0,0,0,4.31-7.21,21,21,0,0,0,.33-15.58c-4.16-10.63-15.54-17.28-25.32-21.94a160.65,160.65,0,0,0-30.16-10.52c-1.9-.48-3.8-.94-5.72-1.32a154.08,154.08,0,0,0,11.75,35.7c5.46,11.51,14,25.78,28.15,26.73a23,23,0,0,0,14.83-4.27A13.3,13.3,0,0,0,215.9,404.94Z"/><path class="cls-12" d="M159.34,348.37c71.22,36,57.75,55.16,57.75,55.16"/><path class="cls-12" d="M159.34,348.37c36,71.22,55.16,57.75,55.16,57.75"/><path class="cls-12" d="M215.9,404.94s.58-17.78-56.56-56.57"/><rect class="cls-13" x="63.39" y="511.78" width="248.62" height="48.88"/><path class="cls-13" d="M209.77,640.83c-11.12,0-22.44-3.58-30-6.27a203.58,203.58,0,0,1-44.08-22.24l-6.37-4.27,6.37-4.27c2.26-1.51,4.59-2.92,6.6-4.12A209.59,209.59,0,0,1,180,581.46c8.14-2.89,18.87-6.2,29.75-6.2a41.52,41.52,0,0,1,16.78,3.28A32.16,32.16,0,0,1,243,595.62a33.73,33.73,0,0,1,3,12.34,22.4,22.4,0,0,1-.29,4,34.3,34.3,0,0,1-11.23,20.32c-6.47,5.66-14.81,8.53-24.78,8.53Z"/><path class="cls-12" d="M238.3,597.64a26.88,26.88,0,0,0-13.79-14.4c-13.38-5.85-29.69-1.57-42.75,3.06A206.32,206.32,0,0,0,145,604.07c-2.15,1.28-4.3,2.59-6.38,4a196.91,196.91,0,0,0,42.94,21.67c15.36,5.47,36,10.66,49.66-1.29a29.44,29.44,0,0,0,9.54-17.27,17.15,17.15,0,0,0,.22-3.1A28.11,28.11,0,0,0,238.3,597.64Z"/><path class="cls-12" d="M209.77,640.83c-11.12,0-22.44-3.58-30-6.27a203.58,203.58,0,0,1-44.08-22.24l-6.37-4.27,6.37-4.27c2.26-1.51,4.59-2.92,6.6-4.12A209.59,209.59,0,0,1,180,581.46c8.14-2.89,18.87-6.2,29.75-6.2a41.52,41.52,0,0,1,16.78,3.28A32.16,32.16,0,0,1,243,595.62a33.73,33.73,0,0,1,3,12.34,22.4,22.4,0,0,1-.29,4,34.3,34.3,0,0,1-11.23,20.32c-6.47,5.66-14.81,8.53-24.78,8.53Z"/><path class="cls-14" d="M225.3,616.05a9.21,9.21,0,0,1-1.74,2.61,6.42,6.42,0,0,1-4.82,2.55c-.77,0-1.52.06-2.26.12s-1.22.09-1.85.11a8.43,8.43,0,0,1-2.57-.37c-.75-.24-1.52-.53-2.29-.85-.26-.12-.54-.23-.82-.34l-.75.36a24.26,24.26,0,0,1-2.31,1,.68.68,0,0,1-.27,0,2.08,2.08,0,0,1-.64-.13c-.53-.2-.86-1.07-1-2.62-.07-1.16-.13-2.3-.17-3.42a16.83,16.83,0,0,0-.16-2,1,1,0,0,1-.07-.31,5.41,5.41,0,0,1,.6-1.33l.31-.6a15.21,15.21,0,0,1,1.2,1.26c.33.51.64,1,.93,1.51.39.67.8,1.32,1.25,1.95a2.11,2.11,0,0,0,.82.6h0l.3.15a1.18,1.18,0,0,0,.3.1,1,1,0,0,1,.42.18,5.24,5.24,0,0,0,3.42,1.13,19.07,19.07,0,0,0,2.15-.2,8.3,8.3,0,0,0,3.09-.82,14.35,14.35,0,0,0,3.33-3.09,1.18,1.18,0,0,0,.17-.71,1.51,1.51,0,0,0-.09-.53,5.55,5.55,0,0,0-2.15-2.91,11.83,11.83,0,0,0-4.88-2,15.62,15.62,0,0,1-3.93-1c-1.26-.51-2.48-1.06-3.68-1.67a2.61,2.61,0,0,1-1.25-1.2,10.54,10.54,0,0,1-.86-3.64,6.14,6.14,0,0,1,.42-2.24,6.94,6.94,0,0,1,3.44-4.08,23.36,23.36,0,0,1,4.55-1.51h0a10,10,0,0,1,2-.38,3.05,3.05,0,0,1,1.84.58.17.17,0,0,0,.13,0,1.78,1.78,0,0,0,.67-.2,4.86,4.86,0,0,1,1.68-.29c.26,0,.75,0,1.49.09l1.56.07a1.62,1.62,0,0,1,.62.11c.19.07.33.29.43.66a3.56,3.56,0,0,0,.5,1.09,8.37,8.37,0,0,1,.44.84,2.13,2.13,0,0,1,.11.72v.13c0,.16.05.72.16,1.69a24,24,0,0,1,.27,2.84,2.56,2.56,0,0,1-.26,1,1.22,1.22,0,0,1-.62.7,2.41,2.41,0,0,1-.83.13,6.24,6.24,0,0,1-1.62-.22.48.48,0,0,1-.27-.11,1.73,1.73,0,0,1-.42-.87A10.25,10.25,0,0,1,221,599a2.48,2.48,0,0,0-.65-1.39,6.39,6.39,0,0,0-1.19-1c-.28-.21-.55-.42-.82-.65a3.15,3.15,0,0,0-2.13-.55,6.32,6.32,0,0,1-2.28-.58,2.69,2.69,0,0,0-.94-.15,5,5,0,0,0-3.81,1.93c-.33.32-.67.64-1,.95a3.18,3.18,0,0,0-1,2.6,1.45,1.45,0,0,0,.14.66,2.66,2.66,0,0,0,.72.78l0,0a19,19,0,0,0,2.87,2.07,9.77,9.77,0,0,0,2.64.8l.44.09c1.57.32,3.13.61,4.69.86a7,7,0,0,0,1.26.16,4.26,4.26,0,0,1,.5,0l.52,0h.18a2.31,2.31,0,0,1,1,.22c2.15,1.35,3.22,3,3.22,5l0,.6,0,.13a7.49,7.49,0,0,1,.44,2.24A6,6,0,0,1,225.3,616.05Z"/><path class="cls-14" d="M198.66,616.05a9,9,0,0,1-1.74,2.61,6.4,6.4,0,0,1-4.81,2.55c-.77,0-1.53.06-2.27.12s-1.22.09-1.84.11a8.55,8.55,0,0,1-2.58-.37c-.75-.24-1.51-.53-2.28-.85l-.82-.34-.76.36a22.26,22.26,0,0,1-2.31,1,.67.67,0,0,1-.26,0,2.14,2.14,0,0,1-.65-.13c-.53-.2-.85-1.07-1-2.62q-.12-1.74-.18-3.42a14.68,14.68,0,0,0-.16-2,1,1,0,0,1-.06-.31,5.41,5.41,0,0,1,.6-1.33l.31-.6q1,1,1.2,1.26c.32.51.63,1,.93,1.51.38.67.8,1.32,1.24,1.95a2.19,2.19,0,0,0,.82.6h0l.3.15a1,1,0,0,0,.3.1,1,1,0,0,1,.42.18,5.19,5.19,0,0,0,3.41,1.13,19,19,0,0,0,2.16-.2,8.2,8.2,0,0,0,3.08-.82,14.35,14.35,0,0,0,3.33-3.09,1.18,1.18,0,0,0,.18-.71,1.51,1.51,0,0,0-.09-.53,5.66,5.66,0,0,0-2.15-2.91,11.87,11.87,0,0,0-4.89-2,15.43,15.43,0,0,1-3.92-1c-1.26-.51-2.49-1.06-3.69-1.67a2.63,2.63,0,0,1-1.24-1.2,7.31,7.31,0,0,1-.53-1.53,7.55,7.55,0,0,1-.34-2.11,6.14,6.14,0,0,1,.42-2.24,6.92,6.92,0,0,1,3.45-4.08,23.36,23.36,0,0,1,4.55-1.51h0a10,10,0,0,1,2-.38,3,3,0,0,1,1.84.58.2.2,0,0,0,.14,0,1.74,1.74,0,0,0,.66-.2,4.88,4.88,0,0,1,1.69-.29c.25,0,.75,0,1.49.09l1.55.07a1.59,1.59,0,0,1,.62.11c.19.07.34.29.43.66a3.81,3.81,0,0,0,.5,1.09,8.44,8.44,0,0,1,.45.84,2.41,2.41,0,0,1,.11.72v.13c0,.16.05.72.15,1.69a22,22,0,0,1,.27,2.84,2.71,2.71,0,0,1-.25,1,1.23,1.23,0,0,1-.63.7,2.37,2.37,0,0,1-.83.13,6.24,6.24,0,0,1-1.62-.22.48.48,0,0,1-.27-.11,1.73,1.73,0,0,1-.42-.87,11.22,11.22,0,0,1-.43-1.81,2.47,2.47,0,0,0-.64-1.39,6.73,6.73,0,0,0-1.19-1c-.28-.21-.55-.42-.82-.65a3.15,3.15,0,0,0-2.13-.55,6.37,6.37,0,0,1-2.29-.58,2.63,2.63,0,0,0-.93-.15,5.08,5.08,0,0,0-3.82,1.93c-.32.32-.66.64-1,.95a3.18,3.18,0,0,0-1,2.6,1.59,1.59,0,0,0,.14.66,2.66,2.66,0,0,0,.72.78l.05,0a18.87,18.87,0,0,0,2.86,2.07,10,10,0,0,0,2.64.8l.45.09c1.56.32,3.13.61,4.68.86a7.15,7.15,0,0,0,1.27.16,4.35,4.35,0,0,1,.5,0l.52,0h.18a2.37,2.37,0,0,1,1,.22c2.14,1.35,3.21,3,3.21,5l0,.6,0,.13a7.24,7.24,0,0,1,.45,2.24A5.82,5.82,0,0,1,198.66,616.05Z"/><path class="cls-14" d="M73.42,530.45h3.13a6.27,6.27,0,0,1,2.39.32,2.65,2.65,0,0,1,1.17,1,3,3,0,0,1,.45,1.62,3.53,3.53,0,0,1-.53,1.87,3.37,3.37,0,0,1-1.45,1.3,5.62,5.62,0,0,1-2.4.44l3.76,5.89H78.52L74.77,537h-1L73,542.9H71.74Zm1.09,1.2L74,535.79h1.43a10.05,10.05,0,0,0,2.09-.13,2.4,2.4,0,0,0,1.32-.8,2.14,2.14,0,0,0,.51-1.45,1.53,1.53,0,0,0-.71-1.41,3.87,3.87,0,0,0-1.94-.35Z"/><path class="cls-14" d="M91.47,538.53H83.26a3.53,3.53,0,0,0,.85,2.58,3.06,3.06,0,0,0,2.35.94,4.16,4.16,0,0,0,1.8-.39,3.74,3.74,0,0,0,1.37-1.12l.88.72a4.82,4.82,0,0,1-1.75,1.37,5.37,5.37,0,0,1-2.33.51,3.94,3.94,0,0,1-3.25-1.34,4.66,4.66,0,0,1-1.09-3,5.16,5.16,0,0,1,.73-2.64,5.29,5.29,0,0,1,4.62-2.69,3.91,3.91,0,0,1,2.93,1.2,4.23,4.23,0,0,1,1.16,3.05A7,7,0,0,1,91.47,538.53Zm-1.09-1a2.87,2.87,0,0,0-3-2.91,4.07,4.07,0,0,0-2.44.77,4.15,4.15,0,0,0-1.49,2.14Z"/><path class="cls-14" d="M94.71,530.13h1.15L94.15,542.9H93Z"/><path class="cls-14" d="M106.21,538.53H98a3.49,3.49,0,0,0,.85,2.58,3.06,3.06,0,0,0,2.35.94,4.19,4.19,0,0,0,1.8-.39,3.74,3.74,0,0,0,1.37-1.12l.88.72a4.91,4.91,0,0,1-1.75,1.37,5.37,5.37,0,0,1-2.33.51,4,4,0,0,1-3.26-1.34,4.7,4.7,0,0,1-1.08-3,5.16,5.16,0,0,1,.73-2.64,5.29,5.29,0,0,1,4.62-2.69,3.91,3.91,0,0,1,2.93,1.2,4.23,4.23,0,0,1,1.16,3.05A7,7,0,0,1,106.21,538.53Zm-1.09-1a2.89,2.89,0,0,0-3-2.91,4.07,4.07,0,0,0-2.44.77,4.15,4.15,0,0,0-1.49,2.14Z"/><path class="cls-14" d="M117.06,542.9h-1.19l.18-1.38a5,5,0,0,1-3.66,1.62,4.18,4.18,0,0,1-3.07-1.21,4.22,4.22,0,0,1-1.21-3.12,5.19,5.19,0,0,1,1.57-3.78,5.06,5.06,0,0,1,3.7-1.58,4.11,4.11,0,0,1,2,.48,3.94,3.94,0,0,1,1.46,1.51l.22-1.75h1.23Zm-4.53-.85a4.14,4.14,0,0,0,2.07-.53,3.9,3.9,0,0,0,1.49-1.55,4.55,4.55,0,0,0,.54-2.19,3.09,3.09,0,0,0-3.24-3.23,3.91,3.91,0,0,0-2.9,1.23,4.11,4.11,0,0,0-1.21,3,3.07,3.07,0,0,0,3.25,3.26Z"/><path class="cls-14" d="M125.32,534.72l-.64,1a2.23,2.23,0,0,0-1.85-1.11,1.47,1.47,0,0,0-1,.4,1.11,1.11,0,0,0-.17,1.59,4.93,4.93,0,0,0,1.16.92,6.41,6.41,0,0,1,1.75,1.49,2.74,2.74,0,0,1,.41,1.48,2.54,2.54,0,0,1-.81,1.93,3,3,0,0,1-2.1.76,3.53,3.53,0,0,1-2.88-1.52l.72-.84A2.9,2.9,0,0,0,122.1,542a1.69,1.69,0,0,0,1.19-.48,1.52,1.52,0,0,0,.51-1.12,1.56,1.56,0,0,0-.38-1,7.68,7.68,0,0,0-1.32-1,6.29,6.29,0,0,1-1.53-1.32,2,2,0,0,1-.36-1.16,2.31,2.31,0,0,1,.77-1.75,2.73,2.73,0,0,1,2-.72,2.83,2.83,0,0,1,1.25.28A3.6,3.6,0,0,1,125.32,534.72Z"/><path class="cls-14" d="M136.05,538.53h-8.21a3.49,3.49,0,0,0,.85,2.58,3.06,3.06,0,0,0,2.35.94,4.16,4.16,0,0,0,1.8-.39,3.74,3.74,0,0,0,1.37-1.12l.88.72a4.82,4.82,0,0,1-1.75,1.37,5.37,5.37,0,0,1-2.33.51,3.94,3.94,0,0,1-3.25-1.34,4.66,4.66,0,0,1-1.09-3,5.16,5.16,0,0,1,.73-2.64,5.29,5.29,0,0,1,4.62-2.69,3.91,3.91,0,0,1,2.93,1.2,4.23,4.23,0,0,1,1.16,3.05A7,7,0,0,1,136.05,538.53Zm-1.09-1a2.87,2.87,0,0,0-3-2.91,4.07,4.07,0,0,0-2.44.77A4.15,4.15,0,0,0,128,537.5Z"/><path class="cls-14" d="M142.64,533.69h1.22l2.38,6.8,4-6.8h1.32l-7.31,12.58h-1.33l2.61-4.48Z"/><path class="cls-14" d="M157.3,533.45a4.19,4.19,0,0,1,2.15.57,3.92,3.92,0,0,1,1.54,1.56,4.75,4.75,0,0,1,.55,2.28,5.32,5.32,0,0,1-.71,2.68,4.89,4.89,0,0,1-1.88,1.92,5.35,5.35,0,0,1-2.69.68,4.11,4.11,0,0,1-3-1.22,4.21,4.21,0,0,1-1.2-3.09,5.44,5.44,0,0,1,.71-2.72,5.07,5.07,0,0,1,1.92-2A5.25,5.25,0,0,1,157.3,533.45Zm0,1.13a4.12,4.12,0,0,0-2.08.55,3.86,3.86,0,0,0-1.49,1.51,4.46,4.46,0,0,0-.52,2.12,3.24,3.24,0,0,0,.9,2.37,3.14,3.14,0,0,0,2.32.91,4,4,0,0,0,2-.53,3.72,3.72,0,0,0,1.43-1.53,4.45,4.45,0,0,0,.54-2.14,3.59,3.59,0,0,0-.4-1.7,2.84,2.84,0,0,0-1.13-1.15A3.25,3.25,0,0,0,157.27,534.58Z"/><path class="cls-14" d="M165,533.69h1.18l-.56,3.85a21.72,21.72,0,0,0-.24,2.16,2.27,2.27,0,0,0,.64,1.68,2.31,2.31,0,0,0,1.71.66,2.42,2.42,0,0,0,1.54-.51,2.7,2.7,0,0,0,.93-1.33,12,12,0,0,0,.34-1.9l.62-4.61h1.16l-.45,3.49a19.8,19.8,0,0,1-.68,3.55,3.46,3.46,0,0,1-1.27,1.73,3.68,3.68,0,0,1-2.24.68,3.31,3.31,0,0,1-2.46-1,3.35,3.35,0,0,1-1-2.44,10.12,10.12,0,0,1,.1-1.36l.09-.82,0-.34Z"/><path class="cls-14" d="M174.55,533.69h1.19l-.16,1.16a3.49,3.49,0,0,1,1.14-1,2.91,2.91,0,0,1,1.38-.37,2.57,2.57,0,0,1,1,.24l-.56,1.08a2.2,2.2,0,0,0-.74-.17,2.08,2.08,0,0,0-1.22.43,3.1,3.1,0,0,0-1,1.26A10.5,10.5,0,0,0,175,539l-.54,3.9h-1.16Z"/><path class="cls-14" d="M184.81,533.69h1.12l-1.2,9.21h-1.16Zm.93-3.79a.91.91,0,0,1,.67.28.94.94,0,0,1,0,1.34.94.94,0,0,1-.67.27.92.92,0,0,1-.67-.27,1,1,0,0,1,.67-1.62Z"/><path class="cls-14" d="M188.51,533.69h1.14l-.19,1.43a4.16,4.16,0,0,1,3.26-1.67,3.13,3.13,0,0,1,2.31.88,3.16,3.16,0,0,1,.88,2.36,16.52,16.52,0,0,1-.19,2l-.57,4.22H194l.57-4.22a17,17,0,0,0,.18-2,2.11,2.11,0,0,0-.59-1.57,2.07,2.07,0,0,0-1.53-.59,3.3,3.3,0,0,0-1.74.48,3.35,3.35,0,0,0-1.25,1.31,8.28,8.28,0,0,0-.68,2.61l-.52,4h-1.17Z"/><path class="cls-14" d="M199.08,533.69h1.14l-.19,1.43a4.2,4.2,0,0,1,3.27-1.67,3.16,3.16,0,0,1,2.31.88,3.19,3.19,0,0,1,.87,2.36,16.52,16.52,0,0,1-.19,2l-.57,4.22h-1.16l.57-4.22a17,17,0,0,0,.18-2,2.14,2.14,0,0,0-.58-1.57,2.1,2.1,0,0,0-1.54-.59,3.36,3.36,0,0,0-3,1.79,8,8,0,0,0-.68,2.61l-.53,4h-1.16Z"/><path class="cls-14" d="M217.94,538.53h-8.22a3.54,3.54,0,0,0,.86,2.58,3.05,3.05,0,0,0,2.34.94,4.23,4.23,0,0,0,1.81-.39,3.74,3.74,0,0,0,1.37-1.12l.88.72a4.91,4.91,0,0,1-1.75,1.37,5.4,5.4,0,0,1-2.33.51,4,4,0,0,1-3.26-1.34,4.7,4.7,0,0,1-1.08-3,5.16,5.16,0,0,1,.73-2.64,5.29,5.29,0,0,1,4.62-2.69,3.88,3.88,0,0,1,2.92,1.2A4.19,4.19,0,0,1,218,537.7C218,537.93,218,538.2,217.94,538.53Zm-1.09-1a2.89,2.89,0,0,0-3-2.91,4,4,0,0,0-2.43.77,4.15,4.15,0,0,0-1.49,2.14Z"/><path class="cls-14" d="M220.45,533.69h1.19l-.16,1.16a3.49,3.49,0,0,1,1.14-1,2.91,2.91,0,0,1,1.38-.37,2.57,2.57,0,0,1,1,.24l-.56,1.08a2.2,2.2,0,0,0-.74-.17,2.08,2.08,0,0,0-1.22.43,3.1,3.1,0,0,0-1,1.26,10.5,10.5,0,0,0-.63,2.71l-.54,3.9h-1.16Z"/><path class="cls-14" d="M235.22,534.72l-.64,1a2.23,2.23,0,0,0-1.85-1.11,1.47,1.47,0,0,0-1,.4,1.11,1.11,0,0,0-.17,1.59,4.93,4.93,0,0,0,1.16.92,6.41,6.41,0,0,1,1.75,1.49,2.74,2.74,0,0,1,.41,1.48,2.54,2.54,0,0,1-.81,1.93,3,3,0,0,1-2.1.76,3.53,3.53,0,0,1-2.88-1.52l.72-.84A2.9,2.9,0,0,0,232,542a1.69,1.69,0,0,0,1.19-.48,1.52,1.52,0,0,0,.51-1.12,1.56,1.56,0,0,0-.38-1,7.68,7.68,0,0,0-1.32-1,6.29,6.29,0,0,1-1.53-1.32,2,2,0,0,1-.36-1.16,2.31,2.31,0,0,1,.77-1.75,2.73,2.73,0,0,1,2-.72,2.83,2.83,0,0,1,1.25.28A3.6,3.6,0,0,1,235.22,534.72Z"/><path class="cls-14" d="M238.22,533.69h1.18l-.55,3.85a19.92,19.92,0,0,0-.25,2.16A2.25,2.25,0,0,0,241,542a2.44,2.44,0,0,0,1.54-.51,2.83,2.83,0,0,0,.93-1.33,14,14,0,0,0,.33-1.9l.62-4.61h1.16l-.44,3.49a20.75,20.75,0,0,1-.68,3.55,3.54,3.54,0,0,1-1.28,1.73,3.68,3.68,0,0,1-2.24.68,3.31,3.31,0,0,1-2.46-1,3.35,3.35,0,0,1-1-2.44,10.29,10.29,0,0,1,.11-1.36l.08-.82.05-.34Z"/><path class="cls-14" d="M248.21,533.69h1.14l-.19,1.43a4.16,4.16,0,0,1,3.26-1.67,3.13,3.13,0,0,1,2.31.88,3.2,3.2,0,0,1,.88,2.36,19,19,0,0,1-.19,2l-.57,4.22h-1.16l.57-4.22a17,17,0,0,0,.18-2,2.15,2.15,0,0,0-.59-1.57,2.07,2.07,0,0,0-1.53-.59,3.3,3.3,0,0,0-1.74.48,3.35,3.35,0,0,0-1.25,1.31,8.28,8.28,0,0,0-.68,2.61l-.53,4H247Z"/><path class="cls-14" d="M263.07,534.72l-.65,1a2.23,2.23,0,0,0-1.84-1.11,1.48,1.48,0,0,0-1.05.4,1.2,1.2,0,0,0-.43.88,1.13,1.13,0,0,0,.27.71,4.52,4.52,0,0,0,1.16.92,6.18,6.18,0,0,1,1.74,1.49,2.66,2.66,0,0,1,.41,1.48,2.56,2.56,0,0,1-.8,1.93,3,3,0,0,1-2.11.76,3.53,3.53,0,0,1-2.88-1.52l.72-.84a2.91,2.91,0,0,0,2.23,1.25,1.67,1.67,0,0,0,1.19-.48,1.52,1.52,0,0,0,.51-1.12,1.56,1.56,0,0,0-.38-1,6.9,6.9,0,0,0-1.32-1,6.19,6.19,0,0,1-1.52-1.32,1.91,1.91,0,0,1-.37-1.16,2.31,2.31,0,0,1,.77-1.75,2.76,2.76,0,0,1,1.95-.72,2.91,2.91,0,0,1,1.26.28A3.83,3.83,0,0,1,263.07,534.72Z"/><path class="cls-14" d="M266,530.13h1.17l-.68,5a4.26,4.26,0,0,1,3.27-1.65,3.11,3.11,0,0,1,2.28.87,3.06,3.06,0,0,1,.88,2.27,15.69,15.69,0,0,1-.17,2.08l-.57,4.23H271l.57-4.23a16.92,16.92,0,0,0,.17-2,2,2,0,0,0-.6-1.54,2.11,2.11,0,0,0-1.56-.58,3.33,3.33,0,0,0-2.93,1.79,8.12,8.12,0,0,0-.68,2.6l-.54,4h-1.16Z"/><path class="cls-14" d="M275.86,533.69H277l-1.21,9.21h-1.16Zm.93-3.79a.91.91,0,0,1,.67.28.94.94,0,0,1-.67,1.61.94.94,0,0,1-.68-.27,1,1,0,0,1,.68-1.62Z"/><path class="cls-14" d="M279.56,533.69h1.13l-.19,1.43a4.2,4.2,0,0,1,3.27-1.67,3.14,3.14,0,0,1,2.31.88,3.19,3.19,0,0,1,.87,2.36,18.2,18.2,0,0,1-.18,2l-.58,4.22H285l.57-4.22a15.49,15.49,0,0,0,.19-2,2.15,2.15,0,0,0-.59-1.57,2.08,2.08,0,0,0-1.54-.59,3.36,3.36,0,0,0-3,1.79,8,8,0,0,0-.68,2.61l-.53,4h-1.16Z"/><path class="cls-14" d="M298.41,538.53H290.2a3.49,3.49,0,0,0,.85,2.58,3.06,3.06,0,0,0,2.35.94,4.16,4.16,0,0,0,1.8-.39,3.74,3.74,0,0,0,1.37-1.12l.88.72a4.82,4.82,0,0,1-1.75,1.37,5.37,5.37,0,0,1-2.33.51,3.94,3.94,0,0,1-3.25-1.34,4.66,4.66,0,0,1-1.09-3,5.16,5.16,0,0,1,.73-2.64,5.29,5.29,0,0,1,4.62-2.69,3.91,3.91,0,0,1,2.93,1.2,4.23,4.23,0,0,1,1.16,3.05A7,7,0,0,1,298.41,538.53Zm-1.09-1a2.87,2.87,0,0,0-3-2.91,4.07,4.07,0,0,0-2.44.77,4.15,4.15,0,0,0-1.49,2.14Z"/><path class="cls-14" d="M301.54,541.07a1,1,0,0,1,.73.31,1,1,0,0,1,0,1.45,1,1,0,0,1-1.46,0,1,1,0,0,1,0-1.45A1,1,0,0,1,301.54,541.07Zm1-10.94h1.17l-1.29,9.66H301.2Z"/><path class="cls-11" d="M148.49,209c2,0,3.07-1,3.07-2.94,0-.65-.69-1.56-2.05-2.72q-3.06-2.67-3.68-3.38a6.89,6.89,0,0,1-2-4.55A7.54,7.54,0,0,1,147,189a11.71,11.71,0,0,1,7.06-2.09,21.06,21.06,0,0,1,3.84.51,20.89,20.89,0,0,0,3.88.51q2.4,0,2.4,5.5,0,3.15-2.49,3.15c-1.15,0-2.26-.85-3.31-2.55s-2.06-2.55-3-2.55c-2.16,0-3.24.79-3.24,2.36,0,.92,1.22,2,3.64,3.11a31.65,31.65,0,0,1,6.71,3.88,10.27,10.27,0,0,1,3.64,8.1,11.91,11.91,0,0,1-12.3,12.33,14,14,0,0,1-8.88-2.67,9.78,9.78,0,0,1-3.77-8.24c0-1.78.92-2.67,2.75-2.67a3.18,3.18,0,0,1,1.84.67A4.79,4.79,0,0,0,148.49,209Z"/><path class="cls-11" d="M195.28,199.86c0,1,0,2.51.07,4.5s.06,3.5.06,4.51q0,4.31-3.77,8.19t-8.12,3.88q-7.86,0-11.06-3t-3.33-10.7c0-1,.06-2.44.16-4.39s.15-3.42.15-4.4a11.72,11.72,0,0,0-.71-4.75,4.81,4.81,0,0,0-1.37-1.51,1.83,1.83,0,0,1-.76-1.55c0-1.27.85-2.2,2.53-2.8a12.38,12.38,0,0,1,4.13-.62c4.86,0,7.28,1,7.28,3.11a2.1,2.1,0,0,1-.75,1.64,5.08,5.08,0,0,0-1.25,1.38,16.7,16.7,0,0,0-.75,6l0-.09c0,2.72.29,4.55.79,5.5.77,1.36,2.42,2,4.93,2,2.13,0,3.57-.44,4.33-1.33s1.13-2.42,1.13-4.62a40,40,0,0,0-.27-5.28,3.93,3.93,0,0,0-1.55-3.06,2,2,0,0,1-1.11-1.82q0-3.42,7-3.42a8.11,8.11,0,0,1,3.19.58,2.57,2.57,0,0,1,1.82,2.4,2.12,2.12,0,0,1-.75,1.64,4.75,4.75,0,0,0-1.2,1.33A19.48,19.48,0,0,0,195.28,199.86Z"/><path class="cls-11" d="M211.39,205.63a18.31,18.31,0,0,0,.82,4.06,14.37,14.37,0,0,0,1.29,3.57c.31.42.64.83,1,1.25a3.19,3.19,0,0,1,.8,1.46,10.72,10.72,0,0,1,.13,1.6,2.88,2.88,0,0,1-1.42,2.75,10.48,10.48,0,0,1-4.13.76c-.92.11-2.91.17-6,.17a10.05,10.05,0,0,1-3.64-.71,3.6,3.6,0,0,1-2.18-1.64,3.21,3.21,0,0,1-.48-1.77v-.85a1.84,1.84,0,0,1,.57-1.2l1-1a75.57,75.57,0,0,0,1.91-9.41q.49-3.51.67-6.39.27-4.22-1.2-5.42-.41-.21-1.11-.66a2.07,2.07,0,0,1-.53-1.51c0-1.21.77-2.12,2.31-2.71a12.15,12.15,0,0,1,4.7-.71q4.84.09,6.22,1.38c1.39.92,2.64,3.11,3.77,6.57q1.86,5.6,3.64,7.32a.92.92,0,0,0,1,.22,3.08,3.08,0,0,0,.53-2,13.16,13.16,0,0,0-.14-1.51v-.22l0-.09c-.09-.71-.19-1.46-.31-2.26a7.75,7.75,0,0,0-2.44-3.87q-.4-.21-1.11-.66a2.15,2.15,0,0,1-.49-1.51c0-1.21.77-2.12,2.31-2.71a12.15,12.15,0,0,1,4.7-.71,12.84,12.84,0,0,1,5.55.93,2.32,2.32,0,0,1,1.33,2.18,1.77,1.77,0,0,1-.4,1.29,10.18,10.18,0,0,1-.84.75,2.54,2.54,0,0,0-.71,1c-.35.62-.71,1.26-1.06,1.91a8.18,8.18,0,0,0-.8,3.68v.58a37.64,37.64,0,0,0,1.37,7.37,31.77,31.77,0,0,1,1.2,7.32,13.36,13.36,0,0,1-.58,4.79c-.62,1.4-1.9,2.09-3.86,2.09-2.16,0-4.11-1.4-5.86-4.22q-.66-1.11-3.64-7.81-1.86-4.22-3.37-4.22C211.55,204.87,211.39,205.13,211.39,205.63Z"/><path class="cls-11" d="M133.07,262.27q3.06,0,3.06-2.94c0-.66-.68-1.56-2-2.72q-3.06-2.67-3.69-3.39a6.85,6.85,0,0,1-2-4.54,7.52,7.52,0,0,1,3.24-6.42,11.69,11.69,0,0,1,7.06-2.1,20.85,20.85,0,0,1,3.84.51,21,21,0,0,0,3.88.51q2.4,0,2.4,5.51c0,2.1-.83,3.15-2.48,3.15-1.16,0-2.26-.85-3.31-2.55s-2.07-2.55-3-2.55c-2.16,0-3.24.78-3.24,2.35,0,.93,1.21,2,3.64,3.12a32,32,0,0,1,6.7,3.87,10.25,10.25,0,0,1,3.64,8.11,11.89,11.89,0,0,1-12.3,12.33,14,14,0,0,1-8.87-2.67,9.77,9.77,0,0,1-3.78-8.24q0-2.67,2.76-2.67a3.26,3.26,0,0,1,1.84.66A4.66,4.66,0,0,0,133.07,262.27Z"/><path class="cls-11" d="M155.26,249c-.18-1.54-.53-2.51-1.06-2.93q-.4-.21-1.11-.66a2,2,0,0,1-.54-1.51q0-1.81,2.31-2.7a12.36,12.36,0,0,1,4.71-.71q.52,0,1.62.09c.72.06,1.28.09,1.66.09,1,0,2.65-.08,4.93-.23s3.89-.22,4.84-.22q1.9,0,3,2.4a10.19,10.19,0,0,1,.8,4,4.64,4.64,0,0,1-.53,2.31,2.2,2.2,0,0,1-2,1.15,2.52,2.52,0,0,1-2-1.11A9.72,9.72,0,0,0,170,247a8.36,8.36,0,0,0-4.83-1.16h-1c-.3.12-.5.47-.62,1.07a2.16,2.16,0,0,0-.09.62,2.77,2.77,0,0,0,1.46,2.39,5.64,5.64,0,0,0,3.07.8,1.42,1.42,0,0,0,.86-.48,1.39,1.39,0,0,1,.87-.49c.44,0,.66.32.66,1a10.83,10.83,0,0,1-.4,3c-.38,1.33-.94,2-1.68,2-.48,0-.93-.37-1.36-1.11a2,2,0,0,0-1.88-1.11c-.95,0-1.42.78-1.42,2.35q0,5.55,6.43,5.55a4.37,4.37,0,0,0,.85-.14,1.94,1.94,0,0,1,.88,0,3.81,3.81,0,0,0,.54,0,2.17,2.17,0,0,0,1.84-1.06c.49-.71.88-1.07,1.18-1.07s.82.3,1.15.89a3.51,3.51,0,0,1,.49,1.64c0,.3,0,1.06.11,2.29s.11,2.24.11,3q0,5.42-2.22,7-.84.58-5.64.58h-3.64c-1.27,0-2.51,0-3.73,0l-8.34,0c-1.51,0-2.26-.76-2.26-2.18a2.07,2.07,0,0,1,.66-1.5,8.68,8.68,0,0,0,1.24-1.38l.85-1.33c.41-.68.66-2.36.75-5l.36-11.44A25.39,25.39,0,0,0,155.26,249Z"/><path class="cls-11" d="M182.07,249c-.18-1.54-.53-2.51-1.06-2.93q-.4-.21-1.11-.66a2,2,0,0,1-.53-1.51c0-1.21.76-2.11,2.3-2.7a12.4,12.4,0,0,1,4.71-.71q.52,0,1.62.09c.72.06,1.28.09,1.66.09,1,0,2.65-.08,4.93-.23s3.89-.22,4.84-.22q1.9,0,3,2.4a10,10,0,0,1,.8,4,4.64,4.64,0,0,1-.53,2.31,2.19,2.19,0,0,1-1.95,1.15,2.52,2.52,0,0,1-2.05-1.11,9.75,9.75,0,0,0-1.9-2.08,8.41,8.41,0,0,0-4.84-1.16h-1c-.3.12-.5.47-.62,1.07a2.16,2.16,0,0,0-.09.62,2.77,2.77,0,0,0,1.46,2.39,5.64,5.64,0,0,0,3.07.8,1.42,1.42,0,0,0,.86-.48,1.39,1.39,0,0,1,.87-.49c.44,0,.66.32.66,1a11.22,11.22,0,0,1-.39,3c-.39,1.33-1,2-1.69,2-.48,0-.93-.37-1.36-1.11a2,2,0,0,0-1.88-1.11c-1,0-1.42.78-1.42,2.35q0,5.55,6.43,5.55a4.37,4.37,0,0,0,.85-.14,2,2,0,0,1,.89,0,3.59,3.59,0,0,0,.53,0,2.17,2.17,0,0,0,1.84-1.06c.49-.71.88-1.07,1.18-1.07s.82.3,1.15.89a3.4,3.4,0,0,1,.49,1.64c0,.3,0,1.06.11,2.29s.11,2.24.11,3q0,5.42-2.22,7-.84.58-5.64.58H192.5q-1.91,0-3.72,0l-8.35,0c-1.51,0-2.26-.76-2.26-2.18a2.07,2.07,0,0,1,.66-1.5,9.66,9.66,0,0,0,1.25-1.38l.84-1.33c.41-.68.66-2.36.75-5L182,251.6A25.39,25.39,0,0,0,182.07,249Z"/><path class="cls-11" d="M209,251.57q0-4.48-1.2-5.46-.4-.23-1.11-.66a2,2,0,0,1-.53-1.51c0-1.22.76-2.12,2.3-2.71a12.4,12.4,0,0,1,4.71-.71c.38,0,1.2,0,2.44.13q8.66.58,13,4.22,5.19,4.4,5.19,13.72,0,7.05-3.55,11.27-3.83,4.53-10.7,4.53-9.11,0-5.77,0a23,23,0,0,1-6.26-.66,11.55,11.55,0,0,1-2.08-.8,1.4,1.4,0,0,1-.67-1.51,5.4,5.4,0,0,1,1.15-3.11,7.59,7.59,0,0,0,1.65-2.44Q209.06,261.7,209,251.57Zm10.43-6.35a4.44,4.44,0,0,0-.58.45,2.06,2.06,0,0,0-.73,1,9.23,9.23,0,0,0-.42,1.42q0,7.95.09,9.77c.05,2.46.75,3.68,2.08,3.68q2.31,0,3.42-2.61a11.49,11.49,0,0,0,.84-4.62,16.17,16.17,0,0,0-.84-5.59Q222.11,245.36,219.45,245.22Z"/><path class="cls-11" d="M241.82,262.27q3.06,0,3.06-2.94c0-.66-.68-1.56-2-2.72q-3.06-2.67-3.68-3.39a6.81,6.81,0,0,1-2-4.54,7.52,7.52,0,0,1,3.24-6.42,11.69,11.69,0,0,1,7.06-2.1,20.85,20.85,0,0,1,3.84.51,21,21,0,0,0,3.89.51q2.39,0,2.39,5.51c0,2.1-.83,3.15-2.48,3.15-1.16,0-2.26-.85-3.31-2.55s-2.06-2.55-3-2.55c-2.16,0-3.24.78-3.24,2.35,0,.93,1.21,2,3.64,3.12a32,32,0,0,1,6.7,3.87,10.25,10.25,0,0,1,3.64,8.11,11.89,11.89,0,0,1-12.29,12.33,14,14,0,0,1-8.88-2.67,9.76,9.76,0,0,1-3.77-8.24c0-1.78.91-2.67,2.75-2.67a3.26,3.26,0,0,1,1.84.66A4.71,4.71,0,0,0,241.82,262.27Z"/><path class="cls-14" d="M145.22,205.58c2,0,3.07-1,3.07-2.94,0-.65-.69-1.56-2-2.72q-3.06-2.67-3.68-3.39a6.85,6.85,0,0,1-2-4.54,7.52,7.52,0,0,1,3.24-6.42,11.65,11.65,0,0,1,7.06-2.1,21.06,21.06,0,0,1,3.84.51,21.08,21.08,0,0,0,3.88.52q2.4,0,2.4,5.5,0,3.15-2.49,3.15c-1.15,0-2.26-.85-3.31-2.55s-2.06-2.55-3-2.55c-2.16,0-3.24.78-3.24,2.36,0,.92,1.22,2,3.64,3.11a31.65,31.65,0,0,1,6.71,3.88,10.24,10.24,0,0,1,3.64,8.1,11.91,11.91,0,0,1-12.3,12.33,14,14,0,0,1-8.88-2.67,9.79,9.79,0,0,1-3.77-8.24c0-1.78.92-2.67,2.75-2.67a3.24,3.24,0,0,1,1.84.66A4.71,4.71,0,0,0,145.22,205.58Z"/><path class="cls-14" d="M192,196.44c0,1,0,2.5.07,4.5s.06,3.5.06,4.51q0,4.31-3.77,8.19t-8.12,3.88q-7.86,0-11.06-3t-3.33-10.7c0-1,0-2.44.16-4.4s.15-3.41.15-4.39a11.72,11.72,0,0,0-.71-4.75,4.71,4.71,0,0,0-1.37-1.51,1.83,1.83,0,0,1-.76-1.55c0-1.28.85-2.21,2.53-2.8a12.38,12.38,0,0,1,4.13-.62c4.86,0,7.28,1,7.28,3.11a2.12,2.12,0,0,1-.75,1.64,5.08,5.08,0,0,0-1.25,1.38,16.67,16.67,0,0,0-.75,5.94l0-.09c0,2.73.29,4.56.79,5.51.77,1.36,2.42,2,4.93,2,2.13,0,3.57-.44,4.33-1.33s1.13-2.43,1.13-4.62a39.82,39.82,0,0,0-.27-5.28,3.93,3.93,0,0,0-1.55-3.06,2,2,0,0,1-1.11-1.82q0-3.42,7-3.42a8.11,8.11,0,0,1,3.19.58,2.57,2.57,0,0,1,1.82,2.39,2.14,2.14,0,0,1-.75,1.65,4.59,4.59,0,0,0-1.2,1.33A19.48,19.48,0,0,0,192,196.44Z"/><path class="cls-14" d="M208.12,202.21a18.31,18.31,0,0,0,.82,4.06,14.37,14.37,0,0,0,1.29,3.57c.31.42.64.83,1,1.24a3.27,3.27,0,0,1,.8,1.47,10.61,10.61,0,0,1,.13,1.6,2.88,2.88,0,0,1-1.42,2.75,10.71,10.71,0,0,1-4.13.75c-.92.12-2.91.18-6,.18a10.27,10.27,0,0,1-3.64-.71,3.6,3.6,0,0,1-2.18-1.64,3.25,3.25,0,0,1-.48-1.78v-.84a1.84,1.84,0,0,1,.57-1.2l1-1a75.57,75.57,0,0,0,1.91-9.41q.5-3.51.67-6.39.27-4.22-1.2-5.42-.4-.22-1.11-.66a2.07,2.07,0,0,1-.53-1.51c0-1.22.77-2.12,2.31-2.71a12.15,12.15,0,0,1,4.7-.71q4.84.09,6.22,1.38c1.39.91,2.64,3.1,3.77,6.56q1.86,5.59,3.64,7.33a.92.92,0,0,0,1,.22,3.08,3.08,0,0,0,.53-1.95,13,13,0,0,0-.14-1.51v-.22l0-.09c-.09-.71-.19-1.47-.31-2.27a7.76,7.76,0,0,0-2.44-3.86q-.41-.22-1.11-.66a2.15,2.15,0,0,1-.49-1.51c0-1.22.77-2.12,2.31-2.71a12.15,12.15,0,0,1,4.7-.71,12.84,12.84,0,0,1,5.55.93,2.32,2.32,0,0,1,1.33,2.18,1.72,1.72,0,0,1-.4,1.28,8.72,8.72,0,0,1-.84.76,2.44,2.44,0,0,0-.71,1c-.35.62-.71,1.25-1.06,1.9a8.26,8.26,0,0,0-.8,3.69v.58a37.57,37.57,0,0,0,1.37,7.36,31.92,31.92,0,0,1,1.2,7.33,13.4,13.4,0,0,1-.58,4.79c-.62,1.39-1.9,2.09-3.86,2.09q-3.24,0-5.86-4.22-.66-1.11-3.64-7.81-1.86-4.21-3.37-4.22C208.28,201.45,208.12,201.7,208.12,202.21Z"/><path class="cls-14" d="M129.8,258.85q3.06,0,3.06-3c0-.65-.68-1.55-2-2.71-2-1.79-3.27-2.91-3.69-3.39a6.87,6.87,0,0,1-2-4.55,7.51,7.51,0,0,1,3.24-6.41,11.69,11.69,0,0,1,7.06-2.1,20.85,20.85,0,0,1,3.84.51,21,21,0,0,0,3.88.51q2.4,0,2.4,5.51c0,2.1-.83,3.15-2.48,3.15-1.16,0-2.26-.85-3.31-2.55s-2.07-2.56-3-2.56c-2.16,0-3.24.79-3.24,2.36q0,1.38,3.64,3.12a31.15,31.15,0,0,1,6.7,3.87,10.25,10.25,0,0,1,3.64,8.11,11.89,11.89,0,0,1-12.3,12.33,14,14,0,0,1-8.87-2.67,9.77,9.77,0,0,1-3.78-8.24c0-1.78.92-2.68,2.76-2.68a3.28,3.28,0,0,1,1.84.67A4.74,4.74,0,0,0,129.8,258.85Z"/><path class="cls-14" d="M152,245.61c-.18-1.54-.53-2.52-1.06-2.93q-.41-.23-1.11-.66a2,2,0,0,1-.54-1.51q0-1.81,2.31-2.7a12.17,12.17,0,0,1,4.71-.71c.35,0,.89,0,1.62.08s1.28.09,1.66.09c1,0,2.65-.07,4.93-.22s3.89-.22,4.84-.22q1.91,0,3,2.4a10.19,10.19,0,0,1,.8,4,4.63,4.63,0,0,1-.53,2.3,2.21,2.21,0,0,1-2,1.16,2.52,2.52,0,0,1-2-1.11,9.84,9.84,0,0,0-1.91-2.09,8.36,8.36,0,0,0-4.83-1.15h-1c-.3.12-.5.47-.62,1.06a2.27,2.27,0,0,0-.09.62,2.77,2.77,0,0,0,1.46,2.4,5.73,5.73,0,0,0,3.07.8,1.4,1.4,0,0,0,.86-.49,1.44,1.44,0,0,1,.87-.49c.44,0,.66.33.66,1a10.71,10.71,0,0,1-.4,3c-.38,1.34-.94,2-1.68,2-.48,0-.93-.37-1.36-1.11a2,2,0,0,0-1.88-1.11c-.95,0-1.42.79-1.42,2.36q0,5.53,6.43,5.54a4.16,4.16,0,0,0,.85-.13,1.81,1.81,0,0,1,.88,0,3.81,3.81,0,0,0,.54,0,2.17,2.17,0,0,0,1.84-1.06c.49-.71.88-1.07,1.18-1.07s.82.3,1.15.89a3.51,3.51,0,0,1,.49,1.64c0,.3,0,1.06.11,2.29s.11,2.24.11,3q0,5.42-2.22,7-.84.59-5.64.58h-3.64c-1.27,0-2.51,0-3.73,0l-8.34-.05c-1.51,0-2.26-.75-2.26-2.17a2.11,2.11,0,0,1,.66-1.51A8.37,8.37,0,0,0,150,266l.85-1.33c.41-.68.66-2.36.75-5.05l.36-11.44A25.42,25.42,0,0,0,152,245.61Z"/><path class="cls-14" d="M178.8,245.61c-.18-1.54-.53-2.52-1.06-2.93q-.41-.23-1.11-.66a2,2,0,0,1-.54-1.51q0-1.81,2.31-2.7a12.17,12.17,0,0,1,4.71-.71c.35,0,.89,0,1.62.08s1.28.09,1.66.09c1,0,2.65-.07,4.93-.22s3.89-.22,4.84-.22q1.91,0,3,2.4a10,10,0,0,1,.8,4,4.63,4.63,0,0,1-.53,2.3,2.2,2.2,0,0,1-2,1.16,2.52,2.52,0,0,1-2-1.11,10.16,10.16,0,0,0-1.9-2.09,8.42,8.42,0,0,0-4.84-1.15h-1c-.3.12-.5.47-.62,1.06a2.27,2.27,0,0,0-.09.62,2.77,2.77,0,0,0,1.46,2.4,5.73,5.73,0,0,0,3.07.8,1.4,1.4,0,0,0,.86-.49,1.44,1.44,0,0,1,.87-.49c.44,0,.66.33.66,1a11.09,11.09,0,0,1-.39,3c-.39,1.34-.95,2-1.69,2-.48,0-.93-.37-1.36-1.11a2,2,0,0,0-1.88-1.11c-.95,0-1.42.79-1.42,2.36q0,5.53,6.43,5.54a4.16,4.16,0,0,0,.85-.13,1.81,1.81,0,0,1,.88,0,3.81,3.81,0,0,0,.54,0,2.17,2.17,0,0,0,1.84-1.06c.49-.71.88-1.07,1.18-1.07s.82.3,1.15.89a3.4,3.4,0,0,1,.49,1.64c0,.3,0,1.06.11,2.29s.11,2.24.11,3q0,5.42-2.22,7-.84.59-5.64.58h-3.64q-1.9,0-3.72,0l-8.35-.05c-1.51,0-2.26-.75-2.26-2.17a2.11,2.11,0,0,1,.66-1.51A8.37,8.37,0,0,0,176.8,266l.85-1.33c.41-.68.66-2.36.75-5.05l.36-11.44A25.42,25.42,0,0,0,178.8,245.61Z"/><path class="cls-14" d="M205.75,248.15q0-4.49-1.2-5.46c-.27-.15-.64-.37-1.11-.67a2,2,0,0,1-.53-1.51c0-1.21.76-2.11,2.3-2.7a12.2,12.2,0,0,1,4.71-.71c.38,0,1.2,0,2.44.13q8.65.57,13,4.22,5.19,4.4,5.19,13.71,0,7.07-3.55,11.28-3.82,4.53-10.7,4.53-9.1,0-5.77,0a22.5,22.5,0,0,1-6.26-.67,10.59,10.59,0,0,1-2.09-.8,1.39,1.39,0,0,1-.66-1.5,5.37,5.37,0,0,1,1.15-3.11,7.59,7.59,0,0,0,1.65-2.44Q205.79,258.27,205.75,248.15Zm10.43-6.35a4.44,4.44,0,0,0-.58.45,2.06,2.06,0,0,0-.73,1,9.23,9.23,0,0,0-.42,1.42c0,5.3,0,8.55.09,9.77.05,2.45.75,3.68,2.08,3.68q2.31,0,3.42-2.62a11.4,11.4,0,0,0,.84-4.61,16.23,16.23,0,0,0-.84-5.6Q218.84,241.93,216.18,241.8Z"/><path class="cls-14" d="M238.55,258.85q3.06,0,3.06-3c0-.65-.68-1.55-2-2.71-2-1.79-3.27-2.91-3.68-3.39a6.84,6.84,0,0,1-2-4.55,7.51,7.51,0,0,1,3.24-6.41,11.69,11.69,0,0,1,7.06-2.1,20.85,20.85,0,0,1,3.84.51,21,21,0,0,0,3.89.51q2.38,0,2.39,5.51c0,2.1-.83,3.15-2.48,3.15-1.16,0-2.26-.85-3.31-2.55s-2.06-2.56-3-2.56c-2.16,0-3.24.79-3.24,2.36q0,1.38,3.64,3.12a31.15,31.15,0,0,1,6.7,3.87,10.25,10.25,0,0,1,3.64,8.11,11.89,11.89,0,0,1-12.29,12.33,14,14,0,0,1-8.88-2.67,9.76,9.76,0,0,1-3.77-8.24c0-1.78.91-2.68,2.75-2.68a3.28,3.28,0,0,1,1.84.67A4.78,4.78,0,0,0,238.55,258.85Z"/><path class="cls-14" d="M98.57,488.87c1.15,0,1.73-.55,1.73-1.66,0-.37-.39-.88-1.15-1.53-1.15-1-1.85-1.64-2.08-1.91a3.84,3.84,0,0,1-1.15-2.56,4.22,4.22,0,0,1,1.83-3.61,6.53,6.53,0,0,1,4-1.18,11.72,11.72,0,0,1,2.16.28,11.14,11.14,0,0,0,2.19.29c.9,0,1.35,1,1.35,3.1,0,1.19-.47,1.78-1.4,1.78q-1,0-1.86-1.44T102.45,479c-1.22,0-1.83.45-1.83,1.33,0,.52.68,1.1,2,1.76a17.63,17.63,0,0,1,3.78,2.18,5.78,5.78,0,0,1,2,4.56,6.72,6.72,0,0,1-6.93,6.95,7.84,7.84,0,0,1-5-1.51,5.48,5.48,0,0,1-2.12-4.64c0-1,.51-1.5,1.55-1.5a1.81,1.81,0,0,1,1,.37A2.67,2.67,0,0,0,98.57,488.87Z"/><path class="cls-14" d="M109.87,485.17a4.66,4.66,0,0,1-.57-.33,1,1,0,0,1-.28-.77c0-.65.48-1.26,1.45-1.83a7.3,7.3,0,0,1,3.73-1.12c.51,0,.73.32.65,1l-.65,4.73a3.94,3.94,0,0,0,0,.5,1.55,1.55,0,0,0,1.58,1.45l.5,0c.36-.06.66-.36.9-.87a3.17,3.17,0,0,0,.27-1.25A2.34,2.34,0,0,0,117,485a1.44,1.44,0,0,1-.43-1,2.43,2.43,0,0,1,1.35-2.15,4.94,4.94,0,0,1,2.6-.7,1.59,1.59,0,0,1,1.07.39,1.25,1.25,0,0,1,.45,1,29.51,29.51,0,0,1-.27,3.29,27.7,27.7,0,0,0-.28,3.3,1.74,1.74,0,0,0,.61,1.1c.41.42.62.72.62.9a5.5,5.5,0,0,1-1,2.93,3,3,0,0,1-2.42,1.68c-.15,0-.41-.17-.77-.52s-.62-.51-.78-.51a4.94,4.94,0,0,0-1.23.45,4.49,4.49,0,0,1-1.82.45q-4.6,0-4.6-4.07a36.28,36.28,0,0,1,.35-4.23C110.45,486.09,110.24,485.37,109.87,485.17Z"/><path class="cls-14" d="M124.7,485.24a3.14,3.14,0,0,1-.6-.35,1,1,0,0,1-.3-.8c0-.65.48-1.26,1.45-1.82a5.66,5.66,0,0,1,2.8-.93c.46,0,.68.28.65.84a2.93,2.93,0,0,0,0,.37c.05.26.14.39.28.39a.29.29,0,0,0,.17-.07c.48-.4,1-.8,1.48-1.2a3.26,3.26,0,0,1,1.92-.5,4.61,4.61,0,0,1,2.6.55,2.1,2.1,0,0,1,.78,1.57c0,.15,0,1,0,2.53a16.35,16.35,0,0,0,1,4.72,21,21,0,0,1,1,3.58c0,1-1.27,1.55-3.82,1.55a3.64,3.64,0,0,1-2-.53,1.84,1.84,0,0,1-1-1.7,2.45,2.45,0,0,1,.23-.82,3.16,3.16,0,0,0,.27-.85c.25-2.85.37-4.34.37-4.45,0-1.9-.42-2.85-1.25-2.85-.57,0-.92.39-1.07,1.17a13.89,13.89,0,0,0-.08,1.88,15.26,15.26,0,0,0,.31,2.53,14.71,14.71,0,0,1,.32,2.29,3.15,3.15,0,0,1-1,2.56,4,4,0,0,1-2.68.87,4.65,4.65,0,0,1-2-.3,1.61,1.61,0,0,1-.9-1.6,12.37,12.37,0,0,1,.7-2.6,23,23,0,0,0,.95-3.54,7.43,7.43,0,0,0-.23-1.85A2.49,2.49,0,0,1,124.7,485.24Z"/><path class="cls-14" d="M147.77,479.79a2.48,2.48,0,0,1-.37,1.38,1.33,1.33,0,0,1-1.18.67,2,2,0,0,1-1.6-1.14c-.5-.75-.9-1.13-1.2-1.13s-.62.3-.62.9a4.83,4.83,0,0,0,.85,2.22c.6,1,1.16,1.56,1.7,1.63.36,0,.75,0,1.15.05s.6.27.6.72c0,1.07-.3,1.6-.88,1.6l-.2,0h-.22a.53.53,0,0,0-.45.17,5.46,5.46,0,0,0,.1,1.5c.08.59.16,1.18.25,1.78a4.36,4.36,0,0,0,1,1.53,3.73,3.73,0,0,1,1,2c0,1.45-1.6,2.18-4.85,2.18a5.81,5.81,0,0,1-2.63-.55,2.24,2.24,0,0,1-1.37-2.1,3.36,3.36,0,0,1,.57-1.45,7.84,7.84,0,0,0,.8-1.53,27.54,27.54,0,0,0,.65-3.32.31.31,0,0,0-.3-.13l-.44,0a2.48,2.48,0,0,1-.46.05.57.57,0,0,1-.57-.29,2,2,0,0,1-.13-1,1.61,1.61,0,0,1,.28-1c.05-.06.3-.1.77-.1s.93-.12.93-.37a7.07,7.07,0,0,0-.59-1.67,5.13,5.13,0,0,1-.56-1.86,4,4,0,0,1,1.18-3,4.22,4.22,0,0,1,3-1.13,4.1,4.1,0,0,1,2.66.9A2.9,2.9,0,0,1,147.77,479.79Z"/><path class="cls-14" d="M149.15,479.67c0-.67.48-1.28,1.45-1.85a7.3,7.3,0,0,1,3.72-1.1c.52,0,.73.32.63,1l-.7,4.86v.35a24.9,24.9,0,0,0,.57,4.43,37.18,37.18,0,0,0,1.08,4.33,4.08,4.08,0,0,0,.52.82,1.72,1.72,0,0,1,.43.86c0,1.62-1.39,2.43-4.15,2.43a6.13,6.13,0,0,1-2.6-.48,2.11,2.11,0,0,1-1.43-2,1.17,1.17,0,0,1,.3-.7,2.71,2.71,0,0,0,.45-.7,34,34,0,0,0,.84-4.14,30.83,30.83,0,0,0,.41-4.22v-.12a.11.11,0,0,1,0-.08c0-1.32-.18-2.14-.53-2.45l-.65-.4A.84.84,0,0,1,149.15,479.67Z"/><path class="cls-14" d="M157.7,489a9,9,0,0,1,1.7-5.2,5.46,5.46,0,0,1,4.52-2.72,5.11,5.11,0,0,1,4.38,2.55,9,9,0,0,1,1.5,5.1,7.31,7.31,0,0,1-1.7,4.67,5.32,5.32,0,0,1-4.3,2.3,5.63,5.63,0,0,1-4.55-1.92A7,7,0,0,1,157.7,489Zm7.47-.82a10.73,10.73,0,0,0-.32-2.55c-.3-1.24-.73-1.85-1.28-1.85a1,1,0,0,0-.87.7,2.77,2.77,0,0,0-.25,1.2,6.11,6.11,0,0,0,.37,2.15c.33.88.82,1.32,1.45,1.32a.82.82,0,0,0,.64-.29A1,1,0,0,0,165.17,488.17Z"/><path class="cls-14" d="M184.3,485.29a4.17,4.17,0,0,0,.27,1.33c.23.6.5.9.8.9s.6-.27.85-.8a2.46,2.46,0,0,0,0-2.3,2.92,2.92,0,0,1-.28-1.05,1.54,1.54,0,0,1,1.1-1.43,5.18,5.18,0,0,1,2-.35q2.55,0,2.55,1.53a2.56,2.56,0,0,1-.8,1.5,12.11,12.11,0,0,0-1.15,1.33c-.08.16-.81,1.89-2.17,5.19q-1.75,4.23-2.1,4.35a6.5,6.5,0,0,1-.83.23q-1.65,0-3.62-6.15l-1.35,3.55c-.77,1.73-1.49,2.6-2.15,2.6s-1.47-.69-2.1-2.05a30.06,30.06,0,0,1-1.38-4.1,14.48,14.48,0,0,0-1.1-3.13,7,7,0,0,0-1.45-1.15c-.67-.46-1-.88-1-1.25,0-.85.72-1.59,2.15-2.22a8.59,8.59,0,0,1,3.33-.78c1,0,1.52.59,1.52,1.78a11.31,11.31,0,0,1-.1,1.28,11.59,11.59,0,0,0-.1,1.19,3.13,3.13,0,0,0,.28,1.2c.23.52.5.78.8.78s.6-.27.85-.8a3.11,3.11,0,0,0,.3-1.25,3.15,3.15,0,0,0-.28-1.05,3.09,3.09,0,0,1-.27-1.05,1.53,1.53,0,0,1,1.1-1.43,5,5,0,0,1,2-.35,3.22,3.22,0,0,1,2,.48,1.57,1.57,0,0,1,.45,1.27c0,.19,0,.52-.05,1S184.3,485,184.3,485.29Z"/><path class="cls-14" d="M199.67,490a4.37,4.37,0,0,0,1.1-.43,2.25,2.25,0,0,1,1-.34,1.73,1.73,0,0,1,1.21.46,1.5,1.5,0,0,1,.52,1.16,4.46,4.46,0,0,1-1.57,3.49,5.38,5.38,0,0,1-3.71,1.39,5.15,5.15,0,0,1-4.35-2.15,7.62,7.62,0,0,1-1.45-4.74,8.62,8.62,0,0,1,1.6-5.14,5.46,5.46,0,0,1,4.6-2.47,5,5,0,0,1,3.33,1.1,3.9,3.9,0,0,1,1.4,3.15,1.35,1.35,0,0,1-.9,1.25,4.81,4.81,0,0,1-2,.37,5.51,5.51,0,0,1-2.37-.45,1.29,1.29,0,0,0-.48-.12.55.55,0,0,0-.52.34,2.25,2.25,0,0,0-.08.58,2.53,2.53,0,0,0,.69,1.63,2.32,2.32,0,0,0,1.51.92Zm-1.2-6.62a1.93,1.93,0,0,0-1.14.36,1.12,1.12,0,0,0-.51,1q0,.48.93.48a8.27,8.27,0,0,0,1.72-.08c.2,0,.3-.17.3-.47a1.14,1.14,0,0,0-.39-.9A1.28,1.28,0,0,0,198.47,483.42Z"/><path class="cls-14" d="M205.12,485.08a1.45,1.45,0,0,1-.65-1c0-.8.61-1.48,1.83-2a7,7,0,0,1,2.9-.7c.36,0,.57.12.62.35v.76l0,.3a.22.22,0,0,0,.1.19.17.17,0,0,0,.17.05,4.86,4.86,0,0,0,1.15-1,2.41,2.41,0,0,1,1.8-.73,2,2,0,0,1,1.8,1.13,4.17,4.17,0,0,1,.55,2.15,2.49,2.49,0,0,1-.7,1.77A2.27,2.27,0,0,1,213,487a1.39,1.39,0,0,1-1.13-.45,3.79,3.79,0,0,1-.47-1.15.48.48,0,0,0-.38-.25c-.3,0-.53.38-.7,1.13a7.91,7.91,0,0,0-.15,1.55,6,6,0,0,0,.63,2.71,15.88,15.88,0,0,0,1.12,1.83,2.67,2.67,0,0,1,.63,1.35q0,2-4.28,2-4.12,0-4.12-2.25a23.72,23.72,0,0,0,.9-2.29,11.61,11.61,0,0,0,.9-3.64,13.73,13.73,0,0,0,0-1.57A2.4,2.4,0,0,0,205.12,485.08Z"/><path class="cls-14" d="M227.32,488.87c1.15,0,1.73-.55,1.73-1.66,0-.37-.39-.88-1.15-1.53-1.15-1-1.85-1.64-2.08-1.91a3.84,3.84,0,0,1-1.15-2.56,4.22,4.22,0,0,1,1.83-3.61,6.53,6.53,0,0,1,4-1.18,11.72,11.72,0,0,1,2.16.28,11.14,11.14,0,0,0,2.19.29c.9,0,1.35,1,1.35,3.1,0,1.19-.47,1.78-1.4,1.78q-1,0-1.86-1.44T231.2,479c-1.22,0-1.83.45-1.83,1.33,0,.52.68,1.1,2,1.76a17.63,17.63,0,0,1,3.78,2.18,5.78,5.78,0,0,1,2.05,4.56,6.72,6.72,0,0,1-6.93,6.95,7.84,7.84,0,0,1-5-1.51,5.48,5.48,0,0,1-2.12-4.64c0-1,.51-1.5,1.55-1.5a1.81,1.81,0,0,1,1,.37A2.67,2.67,0,0,0,227.32,488.87Z"/><path class="cls-14" d="M245.37,490a4.37,4.37,0,0,0,1.1-.43,2.25,2.25,0,0,1,1-.34,1.73,1.73,0,0,1,1.21.46,1.5,1.5,0,0,1,.52,1.16,4.46,4.46,0,0,1-1.57,3.49,5.38,5.38,0,0,1-3.71,1.39,5.15,5.15,0,0,1-4.35-2.15,7.62,7.62,0,0,1-1.45-4.74,8.62,8.62,0,0,1,1.6-5.14,5.46,5.46,0,0,1,4.6-2.47,5,5,0,0,1,3.33,1.1,3.9,3.9,0,0,1,1.4,3.15,1.35,1.35,0,0,1-.9,1.25,4.81,4.81,0,0,1-2,.37,5.51,5.51,0,0,1-2.37-.45,1.29,1.29,0,0,0-.48-.12.55.55,0,0,0-.52.34,2.25,2.25,0,0,0-.08.58,2.53,2.53,0,0,0,.69,1.63,2.32,2.32,0,0,0,1.51.92Zm-1.2-6.62a1.93,1.93,0,0,0-1.14.36,1.12,1.12,0,0,0-.51,1q0,.48.93.48a8.27,8.27,0,0,0,1.72-.08c.2,0,.3-.17.3-.47a1.14,1.14,0,0,0-.39-.9A1.28,1.28,0,0,0,244.17,483.42Z"/><path class="cls-14" d="M257.37,490a4.37,4.37,0,0,0,1.1-.43,2.25,2.25,0,0,1,1-.34,1.73,1.73,0,0,1,1.21.46,1.5,1.5,0,0,1,.52,1.16,4.46,4.46,0,0,1-1.57,3.49,5.38,5.38,0,0,1-3.71,1.39,5.15,5.15,0,0,1-4.35-2.15,7.62,7.62,0,0,1-1.45-4.74,8.62,8.62,0,0,1,1.6-5.14,5.46,5.46,0,0,1,4.6-2.47,5,5,0,0,1,3.33,1.1,3.9,3.9,0,0,1,1.4,3.15,1.35,1.35,0,0,1-.9,1.25,4.81,4.81,0,0,1-2,.37,5.51,5.51,0,0,1-2.37-.45,1.29,1.29,0,0,0-.48-.12.55.55,0,0,0-.52.34,2.25,2.25,0,0,0-.08.58,2.53,2.53,0,0,0,.69,1.63,2.32,2.32,0,0,0,1.51.92Zm-1.2-6.62a1.93,1.93,0,0,0-1.14.36,1.12,1.12,0,0,0-.51,1q0,.48.93.48a8.27,8.27,0,0,0,1.72-.08c.2,0,.3-.17.3-.47a1.14,1.14,0,0,0-.39-.9A1.28,1.28,0,0,0,256.17,483.42Z"/><path class="cls-14" d="M274.1,489.72a11.44,11.44,0,0,0,.7,1.65,3.69,3.69,0,0,1,.52,1.6c0,.78-.62,1.45-1.85,2a7,7,0,0,1-2.87.7,2.75,2.75,0,0,1-1.15-.34,2.56,2.56,0,0,0-1-.34,3.83,3.83,0,0,0-1.07.24,3.93,3.93,0,0,1-1.13.24c-1.27,0-2.32-.81-3.17-2.43a8.84,8.84,0,0,1-1.05-4.11,11,11,0,0,1,1.15-4.66q1.37-2.92,3.32-2.93a4.65,4.65,0,0,1,2.45.74,7.26,7.26,0,0,1,.73.56,1.75,1.75,0,0,0,.4.28c-.05-1.24-.26-1.95-.62-2.15a6.5,6.5,0,0,1-.58-.35.9.9,0,0,1-.28-.75c0-.67.48-1.29,1.45-1.85a7.36,7.36,0,0,1,3.73-1.1c.51,0,.73.32.65,1l-.48,3.38c-.1.68-.21,1.83-.32,3.45A16.75,16.75,0,0,0,274.1,489.72Zm-5.88-5.53q-.8,0-1.2,1.2a5.94,5.94,0,0,0-.27,1.85,4,4,0,0,0,.27,1.55,1.22,1.22,0,0,0,1.15.88,1.1,1.1,0,0,0,.75-.23c.27-.21.4-1.3.4-3.25C269.32,484.86,269,484.19,268.22,484.19Z"/><path class="cls-14" d="M277,484.62a3.09,3.09,0,0,1,1.25-2.6,4.38,4.38,0,0,1,2.83-.9,4.52,4.52,0,0,1,3.47,1.45,3.12,3.12,0,0,1,1.1,1.95c0,.65-.47,1-1.42,1-.47,0-.9-.33-1.3-1s-.75-1-1.05-1a.91.91,0,0,0-.57.21.68.68,0,0,0-.26.52q0,.67,1.35,1.47a12.84,12.84,0,0,1,2.53,1.8,5.33,5.33,0,0,1,1.37,3.75,4,4,0,0,1-1.55,3.18,5,5,0,0,1-3.32,1.22q-5.1,0-5.1-4.75c0-.75.26-1.12.8-1.12a1.66,1.66,0,0,1,.61.16,1.66,1.66,0,0,0,.61.16.84.84,0,0,0,.95-.95,3.74,3.74,0,0,0-1.15-2A3.94,3.94,0,0,1,277,484.62Z"/><path class="cls-14" d="M138,654.67h3.6a11.92,11.92,0,0,1,5.17.86,6.74,6.74,0,0,1,2.79,2.81,9.77,9.77,0,0,1,.48,7.93,7,7,0,0,1-1.69,2.56,6,6,0,0,1-2.33,1.41,16.72,16.72,0,0,1-4.36.39H138Zm3,2.93v10.07h1.41a7,7,0,0,0,3-.48,3.57,3.57,0,0,0,1.54-1.6,5.91,5.91,0,0,0,.59-2.79,5.29,5.29,0,0,0-1.42-3.94A5.68,5.68,0,0,0,142,657.6Z"/><path class="cls-14" d="M154.34,654a1.84,1.84,0,0,1,1.34.56,1.89,1.89,0,0,1,.56,1.37,1.84,1.84,0,0,1-.56,1.35,1.78,1.78,0,0,1-1.32.56,1.81,1.81,0,0,1-1.34-.57,1.92,1.92,0,0,1-.56-1.39,1.88,1.88,0,0,1,1.88-1.88Zm-1.48,4.86h3v11.8h-3Z"/><path class="cls-14" d="M158.19,654.27h3v16.36h-3Z"/><path class="cls-14" d="M163.52,654.27h3v16.36h-3Z"/><path class="cls-14" d="M175.7,654.67h3.22a10.7,10.7,0,0,1,3.78.48,3.91,3.91,0,0,1,1.82,1.57,4.87,4.87,0,0,1,.67,2.59,4.33,4.33,0,0,1-.88,2.77,4.5,4.5,0,0,1-2.37,1.54,13.37,13.37,0,0,1-3.2.25v6.76h-3Zm3,6.24h1a5.19,5.19,0,0,0,1.58-.16,1.4,1.4,0,0,0,.7-.54,1.57,1.57,0,0,0,.26-.91,1.45,1.45,0,0,0-.72-1.35,4.08,4.08,0,0,0-1.93-.32h-.86Z"/><path class="cls-14" d="M189,654a1.81,1.81,0,0,1,1.33.56,1.94,1.94,0,0,1,0,2.72,1.86,1.86,0,0,1-2.67,0,1.91,1.91,0,0,1-.55-1.39A1.88,1.88,0,0,1,189,654Zm-1.48,4.86h3v11.8h-3Z"/><path class="cls-14" d="M204.72,661.22l-2.47,1.35a4.26,4.26,0,0,0-1.37-1,4.16,4.16,0,0,0-1.6-.28,3.7,3.7,0,0,0-2.68,1,3.36,3.36,0,0,0-1,2.54,3.25,3.25,0,0,0,1,2.46,3.55,3.55,0,0,0,2.59,1,3.79,3.79,0,0,0,3.1-1.35l2.34,1.6a7.19,7.19,0,0,1-10.24.62,6.13,6.13,0,0,1,1.49-9.74,7.49,7.49,0,0,1,6.59-.13A6,6,0,0,1,204.72,661.22Z"/><path class="cls-14" d="M207.41,654.27h3v9.43l4.36-4.87h3.72l-5.08,5.66,5.69,6.14h-3.68l-5-5.44v5.44h-3Z"/><path class="cls-14" d="M220,654.27h3v16.36h-3Z"/><path class="cls-14" d="M237.43,665.59h-9.51a3.12,3.12,0,0,0,1.1,2,3.4,3.4,0,0,0,2.28.74,3.9,3.9,0,0,0,2.85-1.16l2.5,1.17a5.83,5.83,0,0,1-2.23,2,6.92,6.92,0,0,1-3.1.64,6.1,6.1,0,0,1-4.52-1.76,5.92,5.92,0,0,1-1.75-4.38,6.16,6.16,0,0,1,1.74-4.49,5.86,5.86,0,0,1,4.37-1.79,6.09,6.09,0,0,1,4.54,1.79,6.46,6.46,0,0,1,1.74,4.71Zm-3-2.34a3,3,0,0,0-1.16-1.6,3.35,3.35,0,0,0-2-.62,3.53,3.53,0,0,0-2.18.7,3.74,3.74,0,0,0-1.08,1.52Z"/><line class="cls-15" x1="107.04" y1="665.43" x2="128.37" y2="665.43"/><line class="cls-15" x1="247.04" y1="665.43" x2="268.37" y2="665.43"/></g><g id="right"><path class="cls-13" d="M389,198.32a22.08,22.08,0,0,0,2.44-6.15,26.55,26.55,0,0,0,.19-13.31c-2.35-9.08-8.79-14.76-14.33-18.74a73.3,73.3,0,0,0-17.07-9c-1.08-.41-2.16-.81-3.25-1.13a181.9,181.9,0,0,0,6.66,30.5c3.09,9.83,7.92,22,15.94,22.84,3,.3,6-1,8.39-3.65A9.61,9.61,0,0,0,389,198.32Z"/><path class="cls-8" d="M360.3,236.15a22.32,22.32,0,0,0-2.43,6.16,26.44,26.44,0,0,0-.19,13.31c2.35,9.08,8.79,14.76,14.33,18.74a73.69,73.69,0,0,0,17.07,9c1.08.4,2.16.8,3.25,1.13a182.45,182.45,0,0,0-6.66-30.5c-3.09-9.84-7.92-22-15.94-22.84a11,11,0,0,0-9.43,5Z"/><path class="cls-13" d="M389,360.52a22,22,0,0,0,2.44-6.16,26.55,26.55,0,0,0,.19-13.31c-2.35-9.08-8.79-14.75-14.33-18.73a73.35,73.35,0,0,0-17.07-9c-1.08-.4-2.16-.8-3.25-1.12a181.9,181.9,0,0,0,6.66,30.5c3.09,9.83,7.92,22,15.94,22.83a10.15,10.15,0,0,0,8.39-3.65A9.51,9.51,0,0,0,389,360.52Z"/><path class="cls-8" d="M360.3,398.35a22.38,22.38,0,0,0-2.43,6.15,26.48,26.48,0,0,0-.19,13.32c2.35,9.07,8.79,14.75,14.33,18.73a72.93,72.93,0,0,0,17.07,9c1.08.41,2.16.81,3.25,1.13a182.89,182.89,0,0,0-6.66-30.5c-3.09-9.83-7.92-22-15.94-22.83a10.17,10.17,0,0,0-8.39,3.64A10.27,10.27,0,0,0,360.3,398.35Z"/><path class="cls-13" d="M389,522.72a22,22,0,0,0,2.44-6.16,26.55,26.55,0,0,0,.19-13.31c-2.35-9.08-8.79-14.76-14.33-18.74a73.69,73.69,0,0,0-17.07-9c-1.08-.4-2.16-.8-3.25-1.13a181.68,181.68,0,0,0,6.66,30.5c3.09,9.84,7.92,22,15.94,22.84a10.88,10.88,0,0,0,9.42-5Z"/><path class="cls-8" d="M360.3,560.54a22.57,22.57,0,0,0-2.43,6.16,26.44,26.44,0,0,0-.19,13.31c2.35,9.08,8.79,14.76,14.33,18.74a73.69,73.69,0,0,0,17.07,9c1.08.41,2.16.8,3.25,1.13a182.89,182.89,0,0,0-6.66-30.5c-3.09-9.83-7.92-22-15.94-22.84-3-.3-6,1-8.39,3.65A10.17,10.17,0,0,0,360.3,560.54Z"/><path class="cls-12" d="M389,198.32a22.08,22.08,0,0,0,2.44-6.15,26.55,26.55,0,0,0,.19-13.31c-2.35-9.08-8.79-14.76-14.33-18.74a73.3,73.3,0,0,0-17.07-9c-1.08-.41-2.16-.81-3.25-1.13a181.9,181.9,0,0,0,6.66,30.5c3.09,9.83,7.92,22,15.94,22.84,3,.3,6-1,8.39-3.65A9.61,9.61,0,0,0,389,198.32Z"/><path class="cls-16" d="M357,150c40.32,30.77,32.7,47.12,32.7,47.12"/><path class="cls-16" d="M357,150c20.4,60.84,31.23,49.34,31.23,49.34"/><path class="cls-16" d="M389,198.32s.33-15.18-32-48.32"/><path class="cls-12" d="M360.3,236.15a22.32,22.32,0,0,0-2.43,6.16,26.44,26.44,0,0,0-.19,13.31c2.35,9.08,8.79,14.76,14.33,18.74a73.69,73.69,0,0,0,17.07,9c1.08.4,2.16.8,3.25,1.13a182.45,182.45,0,0,0-6.66-30.5c-3.09-9.84-7.92-22-15.94-22.84a11,11,0,0,0-9.43,5Z"/><path class="cls-16" d="M392.33,284.48c-40.32-30.78-32.7-47.13-32.7-47.13"/><path class="cls-16" d="M392.33,284.48c-20.4-60.85-31.23-49.34-31.23-49.34"/><path class="cls-16" d="M360.3,236.15s-.32,15.19,32,48.33"/><path class="cls-12" d="M389,360.52a22,22,0,0,0,2.44-6.16,26.55,26.55,0,0,0,.19-13.31c-2.35-9.08-8.79-14.75-14.33-18.73a73.35,73.35,0,0,0-17.07-9c-1.08-.4-2.16-.8-3.25-1.12a181.9,181.9,0,0,0,6.66,30.5c3.09,9.83,7.92,22,15.94,22.83a10.15,10.15,0,0,0,8.39-3.65A9.51,9.51,0,0,0,389,360.52Z"/><path class="cls-16" d="M357,312.2c40.32,30.77,32.7,47.12,32.7,47.12"/><path class="cls-16" d="M357,312.2c20.4,60.84,31.23,49.33,31.23,49.33"/><path class="cls-16" d="M389,360.52s.33-15.19-32-48.32"/><path class="cls-12" d="M360.3,398.35a22.38,22.38,0,0,0-2.43,6.15,26.48,26.48,0,0,0-.19,13.32c2.35,9.07,8.79,14.75,14.33,18.73a72.93,72.93,0,0,0,17.07,9c1.08.41,2.16.81,3.25,1.13a182.89,182.89,0,0,0-6.66-30.5c-3.09-9.83-7.92-22-15.94-22.83a10.17,10.17,0,0,0-8.39,3.64A10.27,10.27,0,0,0,360.3,398.35Z"/><path class="cls-16" d="M392.33,446.67c-40.32-30.77-32.7-47.12-32.7-47.12"/><path class="cls-16" d="M392.33,446.67c-20.4-60.84-31.23-49.34-31.23-49.34"/><path class="cls-16" d="M360.3,398.35s-.32,15.19,32,48.32"/><path class="cls-12" d="M389,522.72a22,22,0,0,0,2.44-6.16,26.55,26.55,0,0,0,.19-13.31c-2.35-9.08-8.79-14.76-14.33-18.74a73.69,73.69,0,0,0-17.07-9c-1.08-.4-2.16-.8-3.25-1.13a181.68,181.68,0,0,0,6.66,30.5c3.09,9.84,7.92,22,15.94,22.84a10.88,10.88,0,0,0,9.42-5Z"/><path class="cls-16" d="M357,474.39c40.32,30.78,32.7,47.12,32.7,47.12"/><path class="cls-16" d="M357,474.39c20.4,60.85,31.23,49.34,31.23,49.34"/><path class="cls-16" d="M389,522.72s.33-15.19-32-48.33"/><path class="cls-12" d="M360.3,560.54a22.57,22.57,0,0,0-2.43,6.16,26.44,26.44,0,0,0-.19,13.31c2.35,9.08,8.79,14.76,14.33,18.74a73.69,73.69,0,0,0,17.07,9c1.08.41,2.16.8,3.25,1.13a182.89,182.89,0,0,0-6.66-30.5c-3.09-9.83-7.92-22-15.94-22.84-3-.3-6,1-8.39,3.65A10.17,10.17,0,0,0,360.3,560.54Z"/><path class="cls-16" d="M392.33,608.87c-40.32-30.78-32.7-47.12-32.7-47.12"/><path class="cls-16" d="M392.33,608.87c-20.4-60.85-31.23-49.34-31.23-49.34"/><path class="cls-16" d="M360.3,560.54s-.32,15.19,32,48.33"/><rect class="cls-17" x="333" y="153" width="84" height="336"/></g><g id="Layer_6" data-name="Layer 6"><polygon class="cls-18" points="337 713 412.5 637.5 413 37 337 113 337 713"/></g></svg>