<svg id="Layer_1" data-name="Layer 1" xmlns="http://www.w3.org/2000/svg" viewBox="0 0 48.24 42"><defs><style>.cls-1{fill:#31366d;}.cls-2{fill:#f9c924;}</style></defs><path class="cls-1" d="M12.22,28.12a.5.5,0,0,1-.5-.48c0-.27-.29-6.59,3.62-10.71a11.55,11.55,0,0,1,8.74-3.36,11.53,11.53,0,0,1,8.74,3.36c3.91,4.12,3.64,10.44,3.63,10.71a.47.47,0,0,1-.53.47.49.49,0,0,1-.47-.52c0-.06.26-6.17-3.36-10a10.54,10.54,0,0,0-8-3.05,10.56,10.56,0,0,0-8,3.05c-3.61,3.8-3.36,9.91-3.35,10a.5.5,0,0,1-.48.52Z"/><circle class="cls-2" cx="24.08" cy="24.11" r="5.22"/><path class="cls-1" d="M24.08,29.83a5.72,5.72,0,1,1,5.72-5.72A5.72,5.72,0,0,1,24.08,29.83Zm0-10.43a4.72,4.72,0,1,0,4.72,4.71A4.71,4.71,0,0,0,24.08,19.4Z"/><polygon class="cls-1" points="24.08 10.96 26.28 10.96 24.08 3.09 21.89 10.96 24.08 10.96"/><path class="cls-1" d="M26.28,11.46H21.89a.51.51,0,0,1-.4-.2.47.47,0,0,1-.08-.44L23.6,3a.52.52,0,0,1,1,0l2.2,7.87a.53.53,0,0,1-.08.44A.54.54,0,0,1,26.28,11.46Zm-3.73-1h3.07L24.08,5Z"/><polygon class="cls-1" points="39.36 24.11 39.36 26.31 47.23 24.11 39.36 21.92 39.36 24.11"/><path class="cls-1" d="M39.36,26.81a.51.51,0,0,1-.3-.1.49.49,0,0,1-.2-.4V21.92a.49.49,0,0,1,.2-.4.47.47,0,0,1,.43-.08l7.87,2.19a.5.5,0,0,1,0,1l-7.87,2.19Zm.5-4.23v3.07l5.51-1.54Z"/><polygon class="cls-1" points="8.91 24.11 8.91 26.31 1.05 24.11 8.91 21.92 8.91 24.11"/><path class="cls-1" d="M8.91,26.81l-.13,0L.91,24.6a.51.51,0,0,1,0-1l7.87-2.19a.5.5,0,0,1,.44.08.51.51,0,0,1,.19.4v4.39a.51.51,0,0,1-.19.4A.57.57,0,0,1,8.91,26.81Zm-6-2.7,5.5,1.54V22.58Z"/><polygon class="cls-1" points="13.11 14.78 11.56 16.34 7.55 9.22 14.66 13.23 13.11 14.78"/><path class="cls-1" d="M11.56,16.84h-.07a.51.51,0,0,1-.37-.25l-4-7.11a.5.5,0,0,1,.08-.6.49.49,0,0,1,.6-.08l7.12,4a.49.49,0,0,1,.11.78l-1.56,1.56h0l-1.55,1.55A.51.51,0,0,1,11.56,16.84Zm-2.7-6.3,2.81,5,2.17-2.18Zm4.25,4.24h0Z"/><polygon class="cls-1" points="35.51 14.78 37.06 16.34 41.07 9.22 33.96 13.23 35.51 14.78"/><path class="cls-1" d="M37.06,16.84a.51.51,0,0,1-.35-.15l-1.55-1.55h0L33.6,13.58a.49.49,0,0,1,.11-.78l7.12-4a.5.5,0,0,1,.68.68l-4,7.11a.51.51,0,0,1-.37.25Zm-1.2-2.41L37,15.52l2.81-5-5,2.8Z"/><path class="cls-1" d="M24.08,39.91a1,1,0,0,1-1-1c0-2.45-2.84-5-4.2-6H-21.27q-8.48,0-16.94,0c-1.31,0-2.62,0-3.92,0s-2.51.05-3.77.05h-1c-2.08,0-4.44.09-6.38-1.23a6.72,6.72,0,0,1-2.7-4.72,7.18,7.18,0,0,1,3.1-7,5.78,5.78,0,0,1,6.31-.3A6.13,6.13,0,0,1-44.12,24a14.48,14.48,0,0,1,.25,2.24v.19a2.88,2.88,0,0,1-.57,2.27,1.8,1.8,0,0,1-1,.53,1.29,1.29,0,0,1-1.25-.49,1.88,1.88,0,0,1,0-1.83,6.21,6.21,0,0,1,.35-.62,2.14,2.14,0,0,0,.24-.42A3.74,3.74,0,0,0-46,24.66l-.06-.33a4.3,4.3,0,0,0-1.56-2.87,3.84,3.84,0,0,0-4.08.32,5.15,5.15,0,0,0-2.24,5,4.93,4.93,0,0,0,1.86,3.38c1.41,1,3.34.92,5.21.88h1c1.25,0,2.5,0,3.74-.05s2.64,0,4,0q8.47,0,17,0H19.19a1,1,0,0,1,.56.17,15.94,15.94,0,0,1,4.33,4.52,15.91,15.91,0,0,1,4.34-4.52,1,1,0,0,1,.55-.17h40.9q8.47,0,16.95,0c1.31,0,2.63,0,3.94,0s2.5.05,3.75.05h1c1.87,0,3.8.07,5.21-.88a4.93,4.93,0,0,0,1.86-3.38,5.16,5.16,0,0,0-2.23-5,3.86,3.86,0,0,0-4.09-.32c-1.46,1-2,3.89-1.62,6a1,1,0,0,1-.82,1.15,1,1,0,0,1-1.15-.82c-.47-2.73.24-6.45,2.47-8a5.78,5.78,0,0,1,6.31.3,7.18,7.18,0,0,1,3.1,7,6.72,6.72,0,0,1-2.7,4.72c-1.94,1.32-4.3,1.28-6.38,1.23h-1C93.25,33,92,33,90.73,33s-2.61,0-3.91,0q-8.47,0-16.95,0H29.29c-1.37,1-4.21,3.58-4.21,6A1,1,0,0,1,24.08,39.91Z"/></svg>