<svg id="Layer_1" data-name="Layer 1" xmlns="http://www.w3.org/2000/svg" viewBox="0 0 15 42"><defs><style>.cls-1{fill:none;}.cls-2{fill:#31366d;}</style></defs><path class="cls-1" d="M10.3,33h-1c-2.08,0-4.44.09-6.38-1.23a6.72,6.72,0,0,1-2.7-4.72,7.18,7.18,0,0,1,3.1-7,5.78,5.78,0,0,1,6.31-.3A6.13,6.13,0,0,1,12.08,24a14.48,14.48,0,0,1,.25,2.24v.19a2.88,2.88,0,0,1-.57,2.27,1.8,1.8,0,0,1-1,.53,1.29,1.29,0,0,1-1.25-.49,1.88,1.88,0,0,1,0-1.83,6.21,6.21,0,0,1,.35-.62,2.14,2.14,0,0,0,.24-.42,3.74,3.74,0,0,0,.15-1.17l-.06-.33a4.3,4.3,0,0,0-1.56-2.87,3.84,3.84,0,0,0-4.08.32,5.15,5.15,0,0,0-2.24,5A4.93,4.93,0,0,0,4.1,30.15c1.41,1,3.34.92,5.21.88h1c1.25,0,2.5,0,3.74-.05l1.47,0V16.5h-17v19h17V33l-1.43,0C12.81,33,11.56,33,10.3,33Z"/><path class="cls-2" d="M14,31c-1.24,0-2.49.05-3.74.05h-1c-1.87,0-3.8.07-5.21-.88a4.93,4.93,0,0,1-1.86-3.38,5.15,5.15,0,0,1,2.24-5,3.84,3.84,0,0,1,4.08-.32,4.3,4.3,0,0,1,1.56,2.87l.06.33A3.74,3.74,0,0,1,10,25.83a2.14,2.14,0,0,1-.24.42,6.21,6.21,0,0,0-.35.62,1.88,1.88,0,0,0,0,1.83,1.29,1.29,0,0,0,1.25.49,1.8,1.8,0,0,0,1-.53,2.88,2.88,0,0,0,.57-2.27V26.2A14.48,14.48,0,0,0,12.08,24a6.13,6.13,0,0,0-2.4-4.15,5.78,5.78,0,0,0-6.31.3,7.18,7.18,0,0,0-3.1,7A6.72,6.72,0,0,0,3,31.8c1.94,1.32,4.3,1.28,6.38,1.23h1c1.26,0,2.51,0,3.77-.05l1.43,0V31Z"/></svg>