<?xml version="1.0" encoding="utf-8"?>
<!-- Generator: Adobe Illustrator 25.1.0, SVG Export Plug-In . SVG Version: 6.00 Build 0)  -->
<svg version="1.1" id="Layer_1" xmlns="http://www.w3.org/2000/svg" xmlns:xlink="http://www.w3.org/1999/xlink" x="0px" y="0px"
	 viewBox="0 0 128 128" style="enable-background:new 0 0 128 128;" xml:space="preserve">
<style type="text/css">
	.st0{fill:#FFEEC7;stroke:#6D4A2E;stroke-miterlimit:10;}
	.st1{fill:#EEE83F;}
	.st2{fill:none;stroke:#6D4A2E;stroke-linecap:round;stroke-linejoin:round;stroke-miterlimit:10;}
	.st3{fill:none;stroke:#6D4A2E;stroke-width:0.75;stroke-linecap:round;stroke-linejoin:round;stroke-miterlimit:10;}
</style>
<g>
	<g>
		<g>
			<path class="st1" d="M19,18.62c-3.47,3.61-5.82,8.17-7.72,12.92c-3.6,9.01-4.16,18.82-0.59,27.93
				c7.45,19.05,27.85,30.96,45.38,39.32c17.24,8.21,35.56,14.23,54.06,18.86c3.4,0.85,6.82,1.69,10.27,2.37
				c-4.34-21.91-11.52-43.84-21.08-64C89.53,35.39,74.23,9.81,48.85,8.11c-9.39-0.63-18.94,2.16-26.57,7.65
				C21.09,16.62,20,17.58,19,18.62z"/>
		</g>
	</g>
	<g>
		<g>
			<path class="st2" d="M19,18.62c-3.47,3.61-5.82,8.17-7.72,12.92c-3.6,9.01-4.16,18.82-0.59,27.93
				c7.45,19.05,27.85,30.96,45.38,39.32c17.24,8.21,35.56,14.23,54.06,18.86c3.4,0.85,6.82,1.69,10.27,2.37
				c-4.34-21.91-11.52-43.84-21.08-64C89.53,35.39,74.23,9.81,48.85,8.11c-9.39-0.63-18.94,2.16-26.57,7.65
				C21.09,16.62,20,17.58,19,18.62z"/>
			<path class="st3" d="M120.39,120.02C-7.28,55.44,16.87,21.14,16.87,21.14"/>
			<path class="st3" d="M120.39,120.02C55.82-7.65,21.52,16.49,21.52,16.49"/>
			<path class="st3" d="M19,18.62c0,0-1.04,31.87,101.39,101.4"/>
		</g>
	</g>
</g>
</svg>
