<?xml version="1.0" encoding="utf-8"?>
<!-- Generator: Adobe Illustrator 25.1.0, SVG Export Plug-In . SVG Version: 6.00 Build 0)  -->
<svg version="1.1" id="Layer_1" xmlns="http://www.w3.org/2000/svg" xmlns:xlink="http://www.w3.org/1999/xlink" x="0px" y="0px"
	 viewBox="0 0 128 128" style="enable-background:new 0 0 128 128;" xml:space="preserve">
<style type="text/css">
	.st0{fill:#FFEEC7;stroke:#6D4A2E;stroke-miterlimit:10;}
	.st1{fill:#EEE83F;}
	.st2{fill:none;stroke:#6D4A2E;stroke-linecap:round;stroke-linejoin:round;stroke-miterlimit:10;}
	.st3{fill:none;stroke:#6D4A2E;stroke-width:0.75;stroke-linecap:round;stroke-linejoin:round;stroke-miterlimit:10;}
</style>
<g>
	<g>
		<g>
			<path class="st0" d="M109.78,109.4c3.47-3.61,5.82-8.17,7.72-12.92c3.6-9.01,4.16-18.82,0.59-27.93
				c-7.45-19.05-27.85-30.96-45.38-39.32C55.48,21.02,37.16,15,18.66,10.37C15.25,9.51,11.84,8.68,8.39,8
				c4.34,21.91,11.52,43.84,21.08,64c9.79,20.63,25.09,46.22,50.46,47.92c9.39,0.63,18.94-2.16,26.57-7.65
				C107.69,111.4,108.78,110.44,109.78,109.4z"/>
		</g>
	</g>
	<g>
		<g>
			<path class="st2" d="M109.78,109.4c3.47-3.61,5.82-8.17,7.72-12.92c3.6-9.01,4.16-18.82,0.59-27.93
				c-7.45-19.05-27.85-30.96-45.38-39.32C55.48,21.02,37.16,15,18.66,10.37C15.25,9.51,11.84,8.68,8.39,8
				c4.34,21.91,11.52,43.84,21.08,64c9.79,20.63,25.09,46.22,50.46,47.92c9.39,0.63,18.94-2.16,26.57-7.65
				C107.69,111.4,108.78,110.44,109.78,109.4z"/>
			<path class="st3" d="M8.39,8c127.67,64.57,103.52,98.87,103.52,98.87"/>
			<path class="st3" d="M8.39,8c64.57,127.67,98.87,103.52,98.87,103.52"/>
			<path class="st3" d="M109.78,109.4c0,0,1.04-31.87-101.39-101.4"/>
		</g>
	</g>
</g>
</svg>
