<?xml version="1.0" encoding="utf-8"?>
<!-- Generator: Adobe Illustrator 25.1.0, SVG Export Plug-In . SVG Version: 6.00 Build 0)  -->
<svg version="1.1" id="Layer_1" xmlns="http://www.w3.org/2000/svg" xmlns:xlink="http://www.w3.org/1999/xlink" x="0px" y="0px"
	 viewBox="0 0 256 256" style="enable-background:new 0 0 256 256;" xml:space="preserve">
<style type="text/css">
	.st0{fill:#FFEEC7;}
	.st1{fill:#F4A032;}
	.st2{fill:#6D4A2E;}
</style>
<g>
	<g>
		<g>
			<circle class="st0" cx="128" cy="128" r="120.88"/>
		</g>
		<g>
			<g>
				<circle class="st1" cx="128" cy="128" r="107.54"/>
			</g>
			<g>
				<g>
					<path class="st2" d="M128,251C60.18,251,5,195.82,5,128C5,60.18,60.18,5,128,5c67.82,0,123,55.18,123,123
						C251,195.82,195.82,251,128,251z M128,9.25C62.52,9.25,9.25,62.52,9.25,128S62.52,246.75,128,246.75
						c65.48,0,118.75-53.27,118.75-118.76S193.48,9.25,128,9.25z"/>
				</g>
				<g>
					<path class="st2" d="M128,237.66c-60.47,0-109.66-49.19-109.66-109.66C18.34,67.53,67.53,18.34,128,18.34
						c60.47,0,109.66,49.19,109.66,109.66C237.66,188.47,188.47,237.66,128,237.66z M128,22.58C69.87,22.58,22.58,69.87,22.58,128
						S69.87,233.42,128,233.42c58.13,0,105.42-47.29,105.42-105.42S186.13,22.58,128,22.58z"/>
				</g>
			</g>
		</g>
	</g>
	<g>
		<g>
			<g>
				<path class="st0" d="M170.02,170.05c2.96-3.08,4.96-6.96,6.58-11.01c3.07-7.68,3.54-16.05,0.51-23.82
					c-6.35-16.24-23.74-26.4-38.69-33.52c-14.7-7-30.32-12.13-46.09-16.08c-2.9-0.73-5.82-1.44-8.75-2.02
					c3.7,18.68,9.82,37.38,17.97,54.57c8.34,17.59,21.39,39.41,43.02,40.86c8,0.54,16.15-1.85,22.65-6.53
					C168.24,171.76,169.17,170.94,170.02,170.05z"/>
			</g>
		</g>
		<g>
			<g>
				<path class="st2" d="M146.85,180.16c-0.78,0-1.57-0.03-2.35-0.08c-22.45-1.5-35.81-24.38-43.91-41.46
					c-8.08-17.03-14.32-35.99-18.05-54.81c-0.07-0.35,0.04-0.71,0.29-0.96c0.25-0.25,0.61-0.36,0.96-0.29
					c3.08,0.61,6.16,1.37,8.81,2.03c17.57,4.4,32.72,9.69,46.29,16.16c14.81,7.06,32.66,17.31,39.22,34.09
					c3.02,7.72,2.84,16.22-0.51,24.6c-2,5-4.16,8.61-6.8,11.36l0,0c-0.92,0.96-1.92,1.82-2.95,2.57
					C161.69,177.78,154.31,180.16,146.85,180.16z M84.93,84.96c3.73,18.14,9.79,36.34,17.57,52.75
					c7.87,16.59,20.8,38.82,42.14,40.25c7.65,0.52,15.66-1.79,21.96-6.33c0.93-0.67,1.82-1.45,2.66-2.31l0,0
					c2.44-2.54,4.46-5.93,6.36-10.67c3.15-7.87,3.32-15.83,0.5-23.04c-6.29-16.09-23.7-26.06-38.16-32.95
					c-13.45-6.41-28.46-11.64-45.89-16.01C89.9,86.1,87.44,85.49,84.93,84.96z M170.02,170.05h0.02H170.02z"/>
			</g>
			<g>
				<path class="st2" d="M171.84,168.96c-0.21,0-0.42-0.06-0.61-0.19c-0.48-0.34-0.59-1-0.26-1.48c0.02-0.03,2.53-3.83,0.66-11.13
					C168,142.08,149.7,118.23,83.1,84.54c-0.52-0.26-0.73-0.9-0.47-1.43c0.27-0.52,0.9-0.73,1.43-0.47
					c67.55,34.17,86.05,58.65,89.68,73.18c2.05,8.19-0.9,12.5-1.02,12.68C172.5,168.8,172.18,168.96,171.84,168.96z"/>
			</g>
			<g>
				<path class="st2" d="M161.34,174.48c-1.59,0-3.43-0.2-5.53-0.72c-14.53-3.63-39.01-22.13-73.18-89.68
					c-0.26-0.52-0.05-1.16,0.47-1.43c0.52-0.27,1.16-0.06,1.43,0.47c33.69,66.61,57.54,84.91,71.62,88.53
					c7.3,1.88,11.09-0.63,11.13-0.66c0.48-0.33,1.14-0.21,1.47,0.27c0.33,0.48,0.22,1.14-0.26,1.47
					C168.35,172.83,165.94,174.48,161.34,174.48z"/>
			</g>
			<g>
				<path class="st2" d="M170.02,171.11c-0.01,0-0.02,0-0.04,0c-0.58-0.02-1.04-0.51-1.03-1.09c0-0.3-0.63-27.61-85.99-85.55
					c-0.49-0.33-0.61-0.99-0.28-1.47c0.33-0.48,0.99-0.61,1.47-0.28c86.82,58.94,86.95,86.23,86.92,87.37
					C171.07,170.66,170.59,171.11,170.02,171.11z"/>
			</g>
		</g>
	</g>
</g>
</svg>
