<?xml version="1.0" encoding="utf-8"?>
<!-- Generator: Adobe Illustrator 25.1.0, SVG Export Plug-In . SVG Version: 6.00 Build 0)  -->
<svg version="1.1" id="Layer_1" xmlns="http://www.w3.org/2000/svg" xmlns:xlink="http://www.w3.org/1999/xlink" x="0px" y="0px"
	 viewBox="0 0 128 77.8" style="enable-background:new 0 0 128 77.8;" xml:space="preserve">
<style type="text/css">
	.st0{fill:#31366D;}
</style>
<path class="st0" d="M62.1,53.9c0,6.7-2.8,11.9-8.4,15.5c-5.6,3.6-13.6,5.4-24.1,5.4c-9.7,0-17.1-1.5-22.1-4.4
	C2.5,67.5,0,63.2,0,57.7c0-3.4,1.2-6.3,3.7-8.4c2.5-2.2,5.7-3.3,9.6-3.3c4.5,0,8.1,1,10.8,3c2.7,2,4,4.7,4,8c0,2.6-0.9,4.6-2.6,6.1
	c-1.8,1.5-4.2,2.3-7.4,2.4c-0.4,0.4-0.6,0.8-0.6,1.3c0,0.5,0.2,0.8,0.7,1.1c0.4,0.3,1,0.4,1.7,0.4c3.4,0,6.2-1.1,8.4-3.2
	c2.3-2.2,3.4-4.9,3.4-8.1c0-2.6-0.5-4.8-1.6-6.5c-1.1-1.7-2.8-3.3-5.2-4.6c-2.4-1.3-5.6-2.7-9.8-3.9c-4.7-1.4-8.2-3.5-10.5-6.4
	C2.2,32.7,1,29.2,1,25.1c0-4,1.3-7.6,3.8-10.8c2.5-3.1,6.2-5.6,10.9-7.4C20.5,5.1,26,4.2,32.4,4.2c8.9,0,15.9,1.5,20.9,4.6
	c5,3,7.5,7.2,7.5,12.6c0,3.4-1.3,6.3-3.9,8.4c-2.6,2.2-5.9,3.3-10.1,3.3c-4.2,0-7.7-1-10.3-3c-2.6-2-3.9-4.7-3.9-8
	c0-2.6,0.9-4.6,2.6-6.1c1.8-1.5,4.2-2.3,7.4-2.4c0.4-0.4,0.6-0.8,0.6-1.3c0-0.5-0.2-0.8-0.7-1.1c-0.4-0.3-1-0.4-1.7-0.4
	c-2.2,0-4.1,0.5-5.9,1.5c-1.8,1-3.2,2.3-4.3,4c-1.1,1.7-1.6,3.7-1.6,5.8c0,3.7,1.2,6.7,3.7,8.9c2.5,2.3,6.8,4.2,12.8,5.9
	c5.6,1.6,9.7,3.7,12.4,6.5C60.7,46.2,62.1,49.7,62.1,53.9"/>
<path class="st0" d="M128,53.9c0,6.7-2.8,11.9-8.4,15.5C114,73,106,74.8,95.5,74.8c-9.7,0-17.1-1.5-22.1-4.4
	c-5-2.9-7.5-7.2-7.5-12.8c0-3.4,1.2-6.3,3.7-8.4c2.5-2.2,5.7-3.3,9.6-3.3c4.5,0,8.1,1,10.8,3c2.7,2,4,4.7,4,8c0,2.6-0.9,4.6-2.6,6.1
	c-1.8,1.5-4.2,2.3-7.4,2.4c-0.4,0.4-0.6,0.8-0.6,1.3c0,0.5,0.2,0.8,0.7,1.1c0.4,0.3,1,0.4,1.7,0.4c3.4,0,6.2-1.1,8.4-3.2
	c2.3-2.2,3.4-4.9,3.4-8.1c0-2.6-0.5-4.8-1.6-6.5c-1.1-1.7-2.8-3.3-5.2-4.6c-2.4-1.3-5.6-2.7-9.8-3.9c-4.7-1.4-8.2-3.5-10.5-6.4
	c-2.4-2.8-3.5-6.3-3.5-10.4c0-4,1.3-7.6,3.8-10.8c2.5-3.1,6.2-5.6,10.9-7.4c4.8-1.8,10.3-2.7,16.6-2.7c8.9,0,15.9,1.5,20.9,4.6
	c5,3,7.5,7.2,7.5,12.6c0,3.4-1.3,6.3-3.9,8.4c-2.6,2.2-5.9,3.3-10.1,3.3c-4.2,0-7.7-1-10.3-3c-2.6-2-3.9-4.7-3.9-8
	c0-2.6,0.9-4.6,2.6-6.1c1.8-1.5,4.2-2.3,7.4-2.4c0.4-0.4,0.6-0.8,0.6-1.3c0-0.5-0.2-0.8-0.7-1.1c-0.4-0.3-1-0.4-1.7-0.4
	c-2.2,0-4.1,0.5-5.9,1.5c-1.8,1-3.2,2.3-4.3,4C95.6,18,95,19.9,95,22.1c0,3.7,1.2,6.7,3.7,8.9c2.5,2.3,6.8,4.2,12.8,5.9
	c5.6,1.6,9.7,3.7,12.4,6.5C126.7,46.2,128,49.7,128,53.9"/>
</svg>
