<?xml version="1.0" encoding="utf-8"?>
<!-- Generator: Adobe Illustrator 25.1.0, SVG Export Plug-In . SVG Version: 6.00 Build 0)  -->
<svg version="1.1" id="Layer_1" xmlns="http://www.w3.org/2000/svg" xmlns:xlink="http://www.w3.org/1999/xlink" x="0px" y="0px"
	 viewBox="0 0 129.4 72.9" style="enable-background:new 0 0 129.4 72.9;" xml:space="preserve">
<style type="text/css">
	.st0{fill:#FCDB84;}
	.st1{fill:none;stroke:#31366D;stroke-miterlimit:10;}
	.st2{fill:#31366D;}
</style>
<path class="st0" d="M89,71.9c-12,0-24.3-3.9-32.4-6.8c-16.4-5.9-32.9-14.2-47.7-24L2,36.5l6.9-4.6c2.4-1.6,5-3.2,7.1-4.5
	c14.3-8.6,27.7-15,40.8-19.7C65.7,4.6,77.3,1,89,1c6.7,0,12.8,1.2,18.1,3.5C115,8,121.3,14.5,125,23c6,14.1,2.4,29.6-9.2,39.7
	C108.8,68.8,99.8,71.9,89,71.9"/>
<path class="st1" d="M89,71.9c-12,0-24.3-3.9-32.4-6.8c-16.4-5.9-32.9-14.2-47.7-24L2,36.5l6.9-4.6c2.4-1.6,5-3.2,7.1-4.5
	c14.3-8.6,27.7-15,40.8-19.7C65.7,4.6,77.3,1,89,1c6.7,0,12.8,1.2,18.1,3.5C115,8,121.3,14.5,125,23c6,14.1,2.4,29.6-9.2,39.7
	C108.8,68.8,99.8,71.9,89,71.9z"/>
<path class="st0" d="M119.9,25.2c-2.9-6.9-8-12.5-14.9-15.6c-14.5-6.3-32.1-1.7-46.2,3.3c-13.9,4.9-27.2,11.6-39.8,19.2
	c-2.3,1.4-4.6,2.8-6.9,4.3C26.4,46,42.2,54.1,58.5,59.9c16.6,5.9,38.9,11.5,53.7-1.4C122,49.8,125,37.2,119.9,25.2"/>
<path class="st1" d="M119.9,25.2c-2.9-6.9-8-12.5-14.9-15.6c-14.5-6.3-32.1-1.7-46.2,3.3c-13.9,4.9-27.2,11.6-39.8,19.2
	c-2.3,1.4-4.6,2.8-6.9,4.3C26.4,46,42.2,54.1,58.5,59.9c16.6,5.9,38.9,11.5,53.7-1.4C122,49.8,125,37.2,119.9,25.2z"/>
<path class="st2" d="M81.7,42.1c0,2.6-1.1,4.7-3.3,6.1c-2.2,1.4-5.3,2.1-9.4,2.1c-3.8,0-6.7-0.6-8.6-1.7c-2-1.1-2.9-2.8-2.9-5
	c0-1.3,0.5-2.4,1.5-3.3c1-0.9,2.2-1.3,3.8-1.3c1.8,0,3.2,0.4,4.2,1.2c1,0.8,1.6,1.8,1.6,3.1c0,1-0.3,1.8-1,2.4
	c-0.7,0.6-1.6,0.9-2.9,0.9c-0.2,0.2-0.2,0.3-0.2,0.5c0,0.2,0.1,0.3,0.3,0.4c0.2,0.1,0.4,0.2,0.7,0.2c1.3,0,2.4-0.4,3.3-1.3
	c0.9-0.8,1.3-1.9,1.3-3.2c0-1-0.2-1.9-0.6-2.5c-0.4-0.7-1.1-1.3-2-1.8c-0.9-0.5-2.2-1-3.8-1.5c-1.8-0.6-3.2-1.4-4.1-2.5
	c-0.9-1.1-1.4-2.5-1.4-4.1c0-1.6,0.5-3,1.5-4.2c1-1.2,2.4-2.2,4.3-2.9c1.9-0.7,4-1.1,6.5-1.1c3.5,0,6.2,0.6,8.2,1.8
	c2,1.2,2.9,2.8,2.9,4.9c0,1.3-0.5,2.4-1.5,3.3c-1,0.9-2.3,1.3-3.9,1.3c-1.7,0-3-0.4-4-1.2c-1-0.8-1.5-1.8-1.5-3.1c0-1,0.3-1.8,1-2.4
	c0.7-0.6,1.6-0.9,2.9-0.9c0.2-0.2,0.2-0.3,0.2-0.5c0-0.2-0.1-0.3-0.3-0.4c-0.2-0.1-0.4-0.2-0.7-0.2c-0.8,0-1.6,0.2-2.3,0.6
	c-0.7,0.4-1.3,0.9-1.7,1.6c-0.4,0.7-0.6,1.4-0.6,2.3c0,1.4,0.5,2.6,1.5,3.5c1,0.9,2.7,1.7,5,2.3c2.2,0.6,3.8,1.4,4.8,2.5
	C81.2,39,81.7,40.4,81.7,42.1"/>
<path class="st2" d="M107.5,42.1c0,2.6-1.1,4.7-3.3,6.1c-2.2,1.4-5.3,2.1-9.4,2.1c-3.8,0-6.7-0.6-8.6-1.7c-2-1.1-2.9-2.8-2.9-5
	c0-1.3,0.5-2.4,1.5-3.3c1-0.9,2.2-1.3,3.8-1.3c1.8,0,3.2,0.4,4.2,1.2s1.6,1.8,1.6,3.1c0,1-0.3,1.8-1,2.4c-0.7,0.6-1.6,0.9-2.9,0.9
	c-0.2,0.2-0.2,0.3-0.2,0.5c0,0.2,0.1,0.3,0.3,0.4c0.2,0.1,0.4,0.2,0.7,0.2c1.3,0,2.4-0.4,3.3-1.3c0.9-0.8,1.3-1.9,1.3-3.2
	c0-1-0.2-1.9-0.6-2.5c-0.4-0.7-1.1-1.3-2-1.8c-0.9-0.5-2.2-1-3.8-1.5c-1.8-0.6-3.2-1.4-4.1-2.5c-0.9-1.1-1.4-2.5-1.4-4.1
	c0-1.6,0.5-3,1.5-4.2c1-1.2,2.4-2.2,4.3-2.9c1.9-0.7,4-1.1,6.5-1.1c3.5,0,6.2,0.6,8.2,1.8c2,1.2,2.9,2.8,2.9,4.9
	c0,1.3-0.5,2.4-1.5,3.3c-1,0.9-2.3,1.3-3.9,1.3c-1.7,0-3-0.4-4-1.2c-1-0.8-1.5-1.8-1.5-3.1c0-1,0.3-1.8,1-2.4
	c0.7-0.6,1.6-0.9,2.9-0.9c0.2-0.2,0.2-0.3,0.2-0.5c0-0.2-0.1-0.3-0.3-0.4c-0.2-0.1-0.4-0.2-0.7-0.2c-0.8,0-1.6,0.2-2.3,0.6
	c-0.7,0.4-1.3,0.9-1.7,1.6c-0.4,0.7-0.6,1.4-0.6,2.3c0,1.4,0.5,2.6,1.5,3.5c1,0.9,2.7,1.7,5,2.3c2.2,0.6,3.8,1.4,4.8,2.5
	C106.9,39,107.5,40.4,107.5,42.1"/>
</svg>
