<?xml version="1.0" encoding="utf-8"?>
<!-- Generator: Adobe Illustrator 26.0.2, SVG Export Plug-In . SVG Version: 6.00 Build 0)  -->
<svg version="1.1" id="Layer_1" xmlns="http://www.w3.org/2000/svg" xmlns:xlink="http://www.w3.org/1999/xlink" x="0px" y="0px"
	 viewBox="0 0 750 93" style="enable-background:new 0 0 750 93;" xml:space="preserve">
<style type="text/css">
	.st0{fill:#FFFFFF;}
</style>
<g>
	<path class="st0" d="M29.42,9.14v66.12c0,16.44-17.16,20.16-27.48,12.72l1.2-1.68c6.36,4.2,15.96,4.56,15.96-6.36V9.14H29.42z"/>
	<path class="st0" d="M40.16,49.82c0-25.2,17.64-42.36,43.2-42.36c25.56,0,43.32,17.52,43.32,42.12c0,25.08-18,42.36-43.2,42.36
		C57.68,91.93,40.16,74.77,40.16,49.82z M115.04,49.82c0-24.6-12.48-40.44-31.68-40.44C64.4,9.38,51.8,25.34,51.8,49.46
		c0,24.48,12.36,40.56,31.68,40.56C102.44,90.01,115.04,74.05,115.04,49.82z"/>
	<path class="st0" d="M164.35,12.86c-3.84-1.8-7.44-2.76-11.64-2.64c-7.32,0-11.88,4.56-11.88,12.24c0,8.76,4.8,14.52,12.84,22.56
		c10.92,10.92,14.64,16.2,14.64,26.4c0,12.24-7.32,20.16-20.88,20.16c-4.44,0-10.68-1.2-15.48-4.2l0.96-1.68
		c5.04,2.88,9.84,3.72,14.4,3.72c7.32,0,12.36-3,12.48-12.12c0-8.16-3.12-13.2-12.84-22.56c-8.76-8.52-14.64-15.72-14.64-26.88
		c0-12.36,8.4-19.8,20.16-19.8c4.68,0,9,1.08,12.72,3L164.35,12.86z"/>
	<path class="st0" d="M212.85,90.37h-36V9.14h33.72v2.16h-23.4v36.72h18.84v2.16h-18.84v38.04h25.68V90.37z"/>
	<path class="st0" d="M235.85,9.14c14.16,0,21.6,7.56,21.6,23.04c0,16.2-8.88,24.48-23.52,24.48h-3.72v33.72h-10.32V9.14H235.85z
		 M233.81,54.5c7.56,0,12.24-7.08,12.24-21.96c0-14.88-4.2-21.24-12.12-21.24h-3.72v43.2H233.81z"/>
	<path class="st0" d="M276.31,49.34v41.04h-10.32V9.14h10.32v38.04h23.04V9.14h10.32v81.24h-10.32V49.34H276.31z"/>
	<path class="st0" d="M327.88,16.22c0-3.12-1.56-6-5.16-7.44c0-3.72,2.64-6.96,6.6-6.96c3.36,0,6.48,2.64,6.48,7.2
		c0,9.72-5.64,15.24-12.48,21l-1.68-1.8C325.6,24.26,327.88,20.06,327.88,16.22z"/>
	<path class="st0" d="M376.15,12.86c-3.84-1.8-7.44-2.76-11.64-2.64c-7.32,0-11.88,4.56-11.88,12.24c0,8.76,4.8,14.52,12.84,22.56
		c10.92,10.92,14.64,16.2,14.64,26.4c0,12.24-7.32,20.16-20.88,20.16c-4.44,0-10.68-1.2-15.48-4.2l0.96-1.68
		c5.04,2.88,9.84,3.72,14.4,3.72c7.32,0,12.36-3,12.48-12.12c0-8.16-3.12-13.2-12.84-22.56c-8.76-8.52-14.64-15.72-14.64-26.88
		c0-12.36,8.4-19.8,20.16-19.8c4.68,0,9,1.08,12.72,3L376.15,12.86z"/>
	<path class="st0" d="M416.23,9.14h10.32v81.24h-10.32V9.14z M459.78,90.37h-12l-18.24-40.8L453.3,9.14h2.52L436.98,41.3
		L459.78,90.37z"/>
	<path class="st0" d="M466.17,90.37V9.14h10.32v81.24H466.17z"/>
	<path class="st0" d="M529.36,9.14v2.16h-17.88v79.08h-10.32V11.3h-17.88V9.14H529.36z"/>
	<path class="st0" d="M570,91.93c-22.2,0-42.84-12.96-42.84-42.48c0-27.6,21.24-42,44.88-42c7.8,0,16.32,1.68,23.16,5.52l-0.84,1.32
		c-7.2-3.6-15.24-4.56-21.48-4.56c-21.48,0-33.96,14.28-33.96,39.96c0,26.52,13.68,39.84,31.92,39.84c11.16,0,19.44-3.12,26.52-8.4
		l1.08,1.2C591,87.97,581.88,91.93,570,91.93z"/>
	<path class="st0" d="M615.65,49.34v41.04h-10.32V9.14h10.32v38.04h23.04V9.14h10.32v81.24h-10.32V49.34H615.65z"/>
	<path class="st0" d="M700.08,90.37h-36V9.14h33.72v2.16h-23.4v36.72h18.84v2.16H674.4v38.04h25.68V90.37z"/>
	<path class="st0" d="M747.33,9.14v81.24h-10.68l-26.64-68.4v68.4h-2.4V16.7l-3-7.56h10.92l29.4,74.88V9.14H747.33z"/>
</g>
</svg>
