<?xml version="1.0" encoding="utf-8"?>
<!-- Generator: Adobe Illustrator 26.0.2, SVG Export Plug-In . SVG Version: 6.00 Build 0)  -->
<!DOCTYPE svg PUBLIC "-//W3C//DTD SVG 1.1//EN" "http://www.w3.org/Graphics/SVG/1.1/DTD/svg11.dtd" [
	<!ENTITY ns_extend "http://ns.adobe.com/Extensibility/1.0/">
	<!ENTITY ns_ai "http://ns.adobe.com/AdobeIllustrator/10.0/">
	<!ENTITY ns_graphs "http://ns.adobe.com/Graphs/1.0/">
	<!ENTITY ns_vars "http://ns.adobe.com/Variables/1.0/">
	<!ENTITY ns_imrep "http://ns.adobe.com/ImageReplacement/1.0/">
	<!ENTITY ns_sfw "http://ns.adobe.com/SaveForWeb/1.0/">
	<!ENTITY ns_custom "http://ns.adobe.com/GenericCustomNamespace/1.0/">
	<!ENTITY ns_adobe_xpath "http://ns.adobe.com/XPath/1.0/">
]>
<svg version="1.1" id="Layer_1" xmlns:x="&ns_extend;" xmlns:i="&ns_ai;" xmlns:graph="&ns_graphs;"
	 xmlns="http://www.w3.org/2000/svg" xmlns:xlink="http://www.w3.org/1999/xlink" x="0px" y="0px" viewBox="0 0 414 39.6"
	 style="enable-background:new 0 0 414 39.6;" xml:space="preserve">
<style type="text/css">
	.st0{fill:#FFFFFF;}
</style>
<metadata><?xpacket begin="﻿" id="W5M0MpCehiHzreSzNTczkc9d"?>
<x:xmpmeta xmlns:x="adobe:ns:meta/" x:xmptk="Adobe XMP Core 7.1-c000 79.a8731b9, 2021/09/09-00:37:38        ">
   <rdf:RDF xmlns:rdf="http://www.w3.org/1999/02/22-rdf-syntax-ns#">
      <rdf:Description rdf:about=""
            xmlns:dc="http://purl.org/dc/elements/1.1/"
            xmlns:xmp="http://ns.adobe.com/xap/1.0/"
            xmlns:xmpGImg="http://ns.adobe.com/xap/1.0/g/img/"
            xmlns:xmpMM="http://ns.adobe.com/xap/1.0/mm/"
            xmlns:stRef="http://ns.adobe.com/xap/1.0/sType/ResourceRef#"
            xmlns:stEvt="http://ns.adobe.com/xap/1.0/sType/ResourceEvent#"
            xmlns:illustrator="http://ns.adobe.com/illustrator/1.0/"
            xmlns:xmpTPg="http://ns.adobe.com/xap/1.0/t/pg/"
            xmlns:stDim="http://ns.adobe.com/xap/1.0/sType/Dimensions#"
            xmlns:stFnt="http://ns.adobe.com/xap/1.0/sType/Font#"
            xmlns:xmpG="http://ns.adobe.com/xap/1.0/g/"
            xmlns:pdf="http://ns.adobe.com/pdf/1.3/">
         <dc:format>image/svg+xml</dc:format>
         <dc:title>
            <rdf:Alt>
               <rdf:li xml:lang="x-default">fullname</rdf:li>
            </rdf:Alt>
         </dc:title>
         <xmp:CreatorTool>Adobe Illustrator 26.0 (Windows)</xmp:CreatorTool>
         <xmp:CreateDate>2022-03-04T03:45:28-05:00</xmp:CreateDate>
         <xmp:ModifyDate>2022-03-04T03:45:28-05:00</xmp:ModifyDate>
         <xmp:MetadataDate>2022-03-04T03:45:28-05:00</xmp:MetadataDate>
         <xmp:Thumbnails>
            <rdf:Alt>
               <rdf:li rdf:parseType="Resource">
                  <xmpGImg:width>256</xmpGImg:width>
                  <xmpGImg:height>32</xmpGImg:height>
                  <xmpGImg:format>JPEG</xmpGImg:format>
                  <xmpGImg:image>/9j/4AAQSkZJRgABAgEASABIAAD/7QAsUGhvdG9zaG9wIDMuMAA4QklNA+0AAAAAABAASAAAAAEA&#xA;AQBIAAAAAQAB/+4ADkFkb2JlAGTAAAAAAf/bAIQABgQEBAUEBgUFBgkGBQYJCwgGBggLDAoKCwoK&#xA;DBAMDAwMDAwQDA4PEA8ODBMTFBQTExwbGxscHx8fHx8fHx8fHwEHBwcNDA0YEBAYGhURFRofHx8f&#xA;Hx8fHx8fHx8fHx8fHx8fHx8fHx8fHx8fHx8fHx8fHx8fHx8fHx8fHx8fHx8f/8AAEQgAIAEAAwER&#xA;AAIRAQMRAf/EAaIAAAAHAQEBAQEAAAAAAAAAAAQFAwIGAQAHCAkKCwEAAgIDAQEBAQEAAAAAAAAA&#xA;AQACAwQFBgcICQoLEAACAQMDAgQCBgcDBAIGAnMBAgMRBAAFIRIxQVEGE2EicYEUMpGhBxWxQiPB&#xA;UtHhMxZi8CRygvElQzRTkqKyY3PCNUQnk6OzNhdUZHTD0uIIJoMJChgZhJRFRqS0VtNVKBry4/PE&#xA;1OT0ZXWFlaW1xdXl9WZ2hpamtsbW5vY3R1dnd4eXp7fH1+f3OEhYaHiImKi4yNjo+Ck5SVlpeYmZ&#xA;qbnJ2en5KjpKWmp6ipqqusra6voRAAICAQIDBQUEBQYECAMDbQEAAhEDBCESMUEFURNhIgZxgZEy&#xA;obHwFMHR4SNCFVJicvEzJDRDghaSUyWiY7LCB3PSNeJEgxdUkwgJChgZJjZFGidkdFU38qOzwygp&#xA;0+PzhJSktMTU5PRldYWVpbXF1eX1RlZmdoaWprbG1ub2R1dnd4eXp7fH1+f3OEhYaHiImKi4yNjo&#xA;+DlJWWl5iZmpucnZ6fkqOkpaanqKmqq6ytrq+v/aAAwDAQACEQMRAD8A9U4q7FXYq7FXYq7FXYq7&#xA;FXYq7FXYq7FXYq7FXYq7FXYq7FXYq7FXYq7FXYq7FXYq7FXYq7FXYq7FXYq7FXYq7FXYq7FXYq7F&#xA;XYq7FXYq7FXYq7FXYq7FXYq7FXYq7FXYq7FXYq7FXYq7FXYq7FXYq7FXYq7FXYq7FXYq7FXYq7FX&#xA;Yq7FXYq7FXYq7FXYq7FXYq7FXYq7FXYq7FXYq7FXYq7FXYq7FXYq7FXYq7FXYq7FXYq7FXYq7FXY&#xA;q7FXYq7FXYq7FXYq7FXYq7FXYq7FXYq7FXYq7FXYq7FXYq7FXYq7FXYq7FXYq7FXYq7FXYq7FX//&#xA;2Q==</xmpGImg:image>
               </rdf:li>
            </rdf:Alt>
         </xmp:Thumbnails>
         <xmpMM:RenditionClass>proof:pdf</xmpMM:RenditionClass>
         <xmpMM:OriginalDocumentID>uuid:65E6390686CF11DBA6E2D887CEACB407</xmpMM:OriginalDocumentID>
         <xmpMM:DocumentID>xmp.did:79e6fb3e-7b13-cd45-a86e-661f32abf8d2</xmpMM:DocumentID>
         <xmpMM:InstanceID>xmp.iid:79e6fb3e-7b13-cd45-a86e-661f32abf8d2</xmpMM:InstanceID>
         <xmpMM:DerivedFrom rdf:parseType="Resource">
            <stRef:instanceID>uuid:6ecf2ce5-09af-40e8-8e64-80676cd9f87a</stRef:instanceID>
            <stRef:documentID>xmp.did:b060eb73-0c90-d84a-9b3e-c65d02aac4bf</stRef:documentID>
            <stRef:originalDocumentID>uuid:65E6390686CF11DBA6E2D887CEACB407</stRef:originalDocumentID>
            <stRef:renditionClass>proof:pdf</stRef:renditionClass>
         </xmpMM:DerivedFrom>
         <xmpMM:History>
            <rdf:Seq>
               <rdf:li rdf:parseType="Resource">
                  <stEvt:action>saved</stEvt:action>
                  <stEvt:instanceID>xmp.iid:b060eb73-0c90-d84a-9b3e-c65d02aac4bf</stEvt:instanceID>
                  <stEvt:when>2022-03-04T02:24:41-05:00</stEvt:when>
                  <stEvt:softwareAgent>Adobe Illustrator 26.0 (Windows)</stEvt:softwareAgent>
                  <stEvt:changed>/</stEvt:changed>
               </rdf:li>
               <rdf:li rdf:parseType="Resource">
                  <stEvt:action>saved</stEvt:action>
                  <stEvt:instanceID>xmp.iid:79e6fb3e-7b13-cd45-a86e-661f32abf8d2</stEvt:instanceID>
                  <stEvt:when>2022-03-04T03:45:28-05:00</stEvt:when>
                  <stEvt:softwareAgent>Adobe Illustrator 26.0 (Windows)</stEvt:softwareAgent>
                  <stEvt:changed>/</stEvt:changed>
               </rdf:li>
            </rdf:Seq>
         </xmpMM:History>
         <illustrator:StartupProfile>Web</illustrator:StartupProfile>
         <illustrator:CreatorSubTool>AIRobin</illustrator:CreatorSubTool>
         <xmpTPg:NPages>1</xmpTPg:NPages>
         <xmpTPg:HasVisibleTransparency>False</xmpTPg:HasVisibleTransparency>
         <xmpTPg:HasVisibleOverprint>False</xmpTPg:HasVisibleOverprint>
         <xmpTPg:MaxPageSize rdf:parseType="Resource">
            <stDim:w>5.750000</stDim:w>
            <stDim:h>0.550000</stDim:h>
            <stDim:unit>Inches</stDim:unit>
         </xmpTPg:MaxPageSize>
         <xmpTPg:Fonts>
            <rdf:Bag>
               <rdf:li rdf:parseType="Resource">
                  <stFnt:fontName>Belgrad-Bold</stFnt:fontName>
                  <stFnt:fontFamily>Belgrad</stFnt:fontFamily>
                  <stFnt:fontFace>Bold</stFnt:fontFace>
                  <stFnt:fontType>TrueType</stFnt:fontType>
                  <stFnt:versionString>Version 1.000</stFnt:versionString>
                  <stFnt:composite>False</stFnt:composite>
                  <stFnt:fontFileName>Belgrad.ttf</stFnt:fontFileName>
               </rdf:li>
            </rdf:Bag>
         </xmpTPg:Fonts>
         <xmpTPg:SwatchGroups>
            <rdf:Seq>
               <rdf:li rdf:parseType="Resource">
                  <xmpG:groupName>Default Swatch Group</xmpG:groupName>
                  <xmpG:groupType>0</xmpG:groupType>
                  <xmpG:Colorants>
                     <rdf:Seq>
                        <rdf:li rdf:parseType="Resource">
                           <xmpG:swatchName>White</xmpG:swatchName>
                           <xmpG:mode>RGB</xmpG:mode>
                           <xmpG:type>PROCESS</xmpG:type>
                           <xmpG:red>255</xmpG:red>
                           <xmpG:green>255</xmpG:green>
                           <xmpG:blue>255</xmpG:blue>
                        </rdf:li>
                        <rdf:li rdf:parseType="Resource">
                           <xmpG:swatchName>Black</xmpG:swatchName>
                           <xmpG:mode>RGB</xmpG:mode>
                           <xmpG:type>PROCESS</xmpG:type>
                           <xmpG:red>0</xmpG:red>
                           <xmpG:green>0</xmpG:green>
                           <xmpG:blue>0</xmpG:blue>
                        </rdf:li>
                     </rdf:Seq>
                  </xmpG:Colorants>
               </rdf:li>
               <rdf:li rdf:parseType="Resource">
                  <xmpG:groupName>Grays</xmpG:groupName>
                  <xmpG:groupType>1</xmpG:groupType>
                  <xmpG:Colorants>
                     <rdf:Seq>
                        <rdf:li rdf:parseType="Resource">
                           <xmpG:swatchName>R=0 G=0 B=0</xmpG:swatchName>
                           <xmpG:mode>RGB</xmpG:mode>
                           <xmpG:type>PROCESS</xmpG:type>
                           <xmpG:red>0</xmpG:red>
                           <xmpG:green>0</xmpG:green>
                           <xmpG:blue>0</xmpG:blue>
                        </rdf:li>
                     </rdf:Seq>
                  </xmpG:Colorants>
               </rdf:li>
            </rdf:Seq>
         </xmpTPg:SwatchGroups>
         <pdf:Producer>Adobe PDF library 16.03</pdf:Producer>
      </rdf:Description>
   </rdf:RDF>
</x:xmpmeta>
                                                                                                    
                                                                                                    
                                                                                                    
                                                                                                    
                                                                                                    
                                                                                                    
                                                                                                    
                                                                                                    
                                                                                                    
                                                                                                    
                                                                                                    
                                                                                                    
                                                                                                    
                                                                                                    
                                                                                                    
                                                                                                    
                                                                                                    
                                                                                                    
                                                                                                    
                                                                                                    
                           
<?xpacket end="w"?>
	</metadata>
<g>
	<path class="st0" d="M11.738,38.424c-1.409,0-2.696-0.24-3.864-0.72c-1.168-0.48-2.167-1.16-3-2.04
		c-0.832-0.88-1.48-1.937-1.944-3.168c-0.463-1.231-0.696-2.6-0.696-4.104h5.808c0,2.816,1.231,4.224,3.696,4.224
		c0.607,0,1.104-0.151,1.488-0.455c0.384-0.304,0.679-0.696,0.888-1.177c0.208-0.479,0.352-1.016,0.432-1.607
		c0.08-0.592,0.12-1.176,0.12-1.752V2.136h5.808v25.488c0,1.632-0.208,3.12-0.624,4.464c-0.416,1.344-1,2.48-1.752,3.408
		c-0.752,0.928-1.664,1.648-2.736,2.159C14.29,38.167,13.082,38.424,11.738,38.424z"/>
	<path class="st0" d="M46.297,38.52c-2.561,0-4.976-0.488-7.248-1.464c-2.272-0.976-4.248-2.304-5.928-3.984
		c-1.68-1.68-3.008-3.655-3.984-5.928c-0.976-2.271-1.464-4.688-1.464-7.248c0-2.56,0.488-4.968,1.464-7.224
		c0.977-2.256,2.304-4.225,3.984-5.904c1.68-1.68,3.655-3.007,5.928-3.983c2.272-0.976,4.688-1.464,7.248-1.464
		c2.56,0,4.968,0.488,7.224,1.464s4.224,2.304,5.904,3.983c1.68,1.68,3.008,3.648,3.984,5.904c0.976,2.256,1.464,4.664,1.464,7.224
		c0,2.561-0.488,4.977-1.464,7.248c-0.977,2.272-2.304,4.248-3.984,5.928c-1.68,1.681-3.648,3.009-5.904,3.984
		S48.857,38.52,46.297,38.52z M46.297,7.128c-1.792,0-3.464,0.336-5.016,1.008c-1.552,0.672-2.904,1.584-4.056,2.736
		c-1.152,1.151-2.064,2.504-2.736,4.056c-0.672,1.553-1.008,3.208-1.008,4.968c0,1.793,0.336,3.465,1.008,5.017
		c0.672,1.552,1.584,2.903,2.736,4.056c1.152,1.152,2.503,2.063,4.056,2.736c1.552,0.672,3.224,1.008,5.016,1.008
		c1.76,0,3.416-0.336,4.968-1.008c1.552-0.673,2.904-1.584,4.056-2.736c1.152-1.152,2.064-2.504,2.736-4.056
		c0.672-1.552,1.008-3.224,1.008-5.017c0-1.76-0.336-3.415-1.008-4.968c-0.672-1.552-1.584-2.904-2.736-4.056
		c-1.152-1.152-2.504-2.064-4.056-2.736C49.712,7.464,48.057,7.128,46.297,7.128z"/>
	<path class="st0" d="M83.017,38.52c-1.536,0-3-0.288-4.392-0.864c-1.392-0.575-2.616-1.423-3.672-2.544
		c-1.056-1.087-1.865-2.327-2.424-3.72c-0.56-1.392-0.84-2.855-0.84-4.392h5.904c0,0.8,0.144,1.544,0.432,2.231
		c0.288,0.688,0.672,1.28,1.152,1.776s1.048,0.888,1.704,1.176c0.656,0.288,1.368,0.432,2.136,0.432c0.511,0,1.08-0.063,1.704-0.191
		c0.624-0.128,1.215-0.36,1.776-0.696c0.56-0.336,1.032-0.808,1.416-1.416c0.384-0.607,0.576-1.392,0.576-2.352
		c0-0.256-0.024-0.624-0.072-1.104c-0.048-0.479-0.272-1.023-0.672-1.632c-0.401-0.607-1.049-1.264-1.944-1.968
		c-0.896-0.704-2.176-1.408-3.84-2.112c-0.96-0.415-1.96-0.912-3-1.488c-1.04-0.575-2-1.264-2.88-2.063
		c-0.88-0.8-1.616-1.744-2.208-2.832c-0.593-1.088-0.905-2.336-0.936-3.744c-0.032-1.248,0.175-2.448,0.624-3.6
		c0.448-1.152,1.12-2.176,2.016-3.072c0.928-0.96,2.032-1.704,3.312-2.232c1.279-0.528,2.64-0.792,4.08-0.792
		c1.375,0,2.68,0.264,3.912,0.792c1.231,0.528,2.296,1.248,3.192,2.16c0.896,0.912,1.608,1.976,2.136,3.192
		C92.736,8.681,93,9.977,93,11.352h-5.904c0-0.576-0.104-1.111-0.312-1.607c-0.208-0.496-0.504-0.928-0.888-1.297
		c-0.384-0.367-0.824-0.663-1.32-0.888c-0.497-0.224-1.032-0.336-1.608-0.336c-1.312,0-2.352,0.4-3.12,1.2
		c-0.544,0.479-0.816,1.296-0.816,2.448c0,0.191,0.024,0.439,0.072,0.743c0.048,0.305,0.232,0.673,0.552,1.104
		s0.832,0.904,1.536,1.416c0.704,0.513,1.711,1.072,3.024,1.68c1.984,0.896,3.64,1.784,4.968,2.664c1.328,0.881,2.4,1.8,3.216,2.76
		c0.816,0.961,1.399,1.992,1.752,3.097c0.352,1.104,0.528,2.312,0.528,3.624c0,1.056-0.12,2.008-0.36,2.855
		c-0.24,0.849-0.544,1.601-0.912,2.256c-0.369,0.656-0.768,1.232-1.2,1.729s-0.856,0.904-1.272,1.224
		C88.888,37.688,86.248,38.52,83.017,38.52z"/>
	<path class="st0" d="M109.177,7.416v8.16h10.224v5.136h-10.224v11.76h13.392v5.28h-19.2v-17.04h-3.168v-5.136h3.168V2.136h19.2
		v5.28H109.177z"/>
	<path class="st0" d="M138.648,37.752h-5.808V2.136h13.056c1.216,0.096,2.288,0.281,3.216,0.552
		c0.928,0.272,1.735,0.608,2.424,1.008c0.688,0.401,1.279,0.833,1.776,1.296c0.496,0.464,0.904,0.92,1.224,1.367
		c0.832,1.121,1.384,2.385,1.656,3.792c0.271,1.409,0.232,2.88-0.12,4.416c-0.32,1.312-0.809,2.417-1.464,3.312
		c-0.656,0.896-1.408,1.64-2.256,2.231c-0.848,0.593-1.736,1.08-2.664,1.465c-0.928,0.384-1.824,0.736-2.688,1.056
		c-1.376,0.512-2.681,1.064-3.912,1.656c-1.232,0.592-2.312,1.528-3.24,2.808c-0.288,0.384-0.521,0.872-0.696,1.464
		c-0.176,0.593-0.296,1.192-0.36,1.8c-0.064,0.608-0.104,1.209-0.12,1.801s-0.024,1.079-0.024,1.464V37.752z M138.648,7.944V20.52
		c1.056-0.735,2.128-1.336,3.216-1.8c1.087-0.464,2.127-0.871,3.12-1.224c0.896-0.32,1.656-0.607,2.28-0.864
		c0.624-0.256,1.152-0.528,1.584-0.816c0.432-0.288,0.775-0.607,1.032-0.96c0.256-0.352,0.448-0.783,0.576-1.296
		c0.127-0.479,0.16-1.096,0.096-1.848c-0.064-0.752-0.305-1.399-0.72-1.944c-0.768-1.056-2.176-1.663-4.224-1.824H138.648z"/>
	<path class="st0" d="M191.111,2.136v35.616h-5.808V21h-14.64v16.752h-5.808V2.136h5.808v13.536h14.64V2.136H191.111z"/>
	<path class="st0" d="M219.144,14.52v23.232h-5.472V0.504l22.992,24.815V2.136h5.472v37.152L219.144,14.52z"/>
	<path class="st0" d="M266.615,38.52c-2.465,0-4.776-0.488-6.937-1.464s-4.04-2.304-5.64-3.984c-1.601-1.68-2.873-3.655-3.816-5.928
		c-0.944-2.271-1.416-4.688-1.416-7.248c0-2.56,0.472-4.968,1.416-7.224c0.943-2.256,2.216-4.225,3.816-5.904
		c1.6-1.68,3.479-3.007,5.64-3.983s4.472-1.464,6.937-1.464c2.496,0,4.872,0.512,7.128,1.536c2.256,1.024,4.231,2.48,5.928,4.368
		l-4.32,3.84c-1.151-1.279-2.472-2.256-3.96-2.928c-1.487-0.672-3.08-1.008-4.775-1.008c-1.665,0-3.225,0.336-4.681,1.008
		s-2.729,1.584-3.815,2.736c-1.089,1.151-1.944,2.504-2.568,4.056c-0.624,1.553-0.936,3.208-0.936,4.968
		c0,1.793,0.312,3.465,0.936,5.017s1.479,2.903,2.568,4.056c1.087,1.152,2.359,2.063,3.815,2.736
		c1.456,0.672,3.016,1.008,4.681,1.008c1.728,0,3.304-0.271,4.728-0.816c1.424-0.544,2.64-1.319,3.648-2.328
		c1.008-1.008,1.791-2.215,2.352-3.624c0.56-1.407,0.872-2.991,0.937-4.752h-3.601c-2.208,0-3.712,0.721-4.512,2.16
		c-0.16,0.288-0.28,0.561-0.36,0.816s-0.152,0.496-0.216,0.72c-0.064,0.257-0.112,0.496-0.144,0.72l-5.809-0.144
		c0-0.063,0.016-0.256,0.048-0.576c0.032-0.319,0.097-0.703,0.192-1.152c0.096-0.447,0.24-0.96,0.432-1.535
		c0.192-0.576,0.464-1.152,0.816-1.729c0.928-1.632,2.208-2.832,3.84-3.6c1.632-0.769,3.535-1.152,5.712-1.152h9.408v5.04
		c0,2.688-0.44,5.136-1.32,7.344s-2.168,4.128-3.863,5.76c-1.568,1.536-3.408,2.696-5.521,3.48S269.015,38.52,266.615,38.52z"/>
	<path class="st0" d="M303.935,38.52c-1.732,0-3.352-0.328-4.858-0.983c-1.507-0.656-2.821-1.544-3.943-2.664
		s-2.012-2.432-2.669-3.937c-0.657-1.504-0.985-3.12-0.985-4.848V2.136h5.808V26.05c0,0.928,0.168,1.798,0.504,2.612
		s0.808,1.518,1.416,2.108c0.607,0.591,1.312,1.062,2.112,1.414c0.8,0.352,1.663,0.527,2.592,0.527c0.896,0,1.752-0.176,2.568-0.527
		c0.815-0.352,1.52-0.823,2.111-1.414s1.063-1.294,1.416-2.108s0.528-1.685,0.528-2.612V2.136h5.808v23.952
		c0,1.728-0.329,3.344-0.985,4.848c-0.657,1.505-1.548,2.816-2.67,3.937s-2.437,2.008-3.943,2.664
		C307.236,38.192,305.634,38.52,303.935,38.52z"/>
	<path class="st0" d="M338.471,20.76v16.992h-5.809V20.76L321.479,2.136h6.72l7.368,12.528l7.416-12.528h6.672L338.471,20.76z"/>
	<path class="st0" d="M361.606,7.416v8.16h10.225v5.136h-10.225v11.76h13.393v5.28h-19.2v-17.04h-3.168v-5.136h3.168V2.136h19.2
		v5.28H361.606z"/>
	<path class="st0" d="M387.958,14.52v23.232h-5.472V0.504l22.992,24.815V2.136h5.472v37.152L387.958,14.52z"/>
</g>
<g>
</g>
<g>
</g>
<g>
</g>
<g>
</g>
<g>
</g>
<g>
</g>
<g>
</g>
<g>
</g>
<g>
</g>
<g>
</g>
<g>
</g>
<g>
</g>
<g>
</g>
<g>
</g>
<g>
</g>
</svg>
