<svg id="Layer_1" data-name="Layer 1" xmlns="http://www.w3.org/2000/svg" viewBox="0 0 129.4 72.89"><defs><style>.cls-1{fill:#ffeec7;stroke-miterlimit:10;}.cls-1,.cls-2{stroke:#6d4a2e;}.cls-2{fill:none;stroke-linecap:round;stroke-linejoin:round;}.cls-3{fill:#6d4a2e;}</style></defs><path class="cls-1" d="M88.2,100C76,100,63.59,96.09,55.32,93.13A222.34,222.34,0,0,1,7,68.76L0,64.08l7-4.69c2.48-1.66,5-3.2,7.23-4.52a230.05,230.05,0,0,1,41.38-20c8.92-3.16,20.69-6.79,32.61-6.79a45.65,45.65,0,0,1,18.4,3.59,35.22,35.22,0,0,1,18,18.73A36.81,36.81,0,0,1,128,64a25.81,25.81,0,0,1-.31,4.41,37.68,37.68,0,0,1-12.32,22.28c-7.1,6.2-16.24,9.35-27.17,9.35Z" transform="translate(0.9 -27.62)"/><path class="cls-2" d="M119.48,52.66a29.44,29.44,0,0,0-15.13-15.79c-14.66-6.42-32.54-1.73-46.87,3.35A226.32,226.32,0,0,0,17.12,59.7c-2.36,1.41-4.71,2.84-7,4.37A215.84,215.84,0,0,0,57.21,87.83c16.84,6,39.47,11.69,54.45-1.41a32.33,32.33,0,0,0,10.47-18.94,18.63,18.63,0,0,0,.23-3.4A30.65,30.65,0,0,0,119.48,52.66Z" transform="translate(0.9 -27.62)"/><path class="cls-2" d="M88.2,100C76,100,63.59,96.09,55.32,93.13A222.34,222.34,0,0,1,7,68.76L0,64.08l7-4.69c2.48-1.66,5-3.2,7.23-4.52a230.05,230.05,0,0,1,41.38-20c8.92-3.16,20.69-6.79,32.61-6.79a45.65,45.65,0,0,1,18.4,3.59,35.22,35.22,0,0,1,18,18.73A36.81,36.81,0,0,1,128,64a25.81,25.81,0,0,1-.31,4.41,37.68,37.68,0,0,1-12.32,22.28c-7.1,6.2-16.24,9.35-27.17,9.35Z" transform="translate(0.9 -27.62)"/><path class="cls-3" d="M105.22,72.85a10,10,0,0,1-1.91,2.86A7,7,0,0,1,98,78.5c-.84,0-1.67.06-2.48.13s-1.34.1-2,.12a9.32,9.32,0,0,1-2.82-.4c-.83-.27-1.67-.58-2.51-.94-.29-.13-.59-.25-.9-.37l-.83.39a24.33,24.33,0,0,1-2.53,1.07.65.65,0,0,1-.29,0,2.22,2.22,0,0,1-.71-.14c-.58-.21-.94-1.17-1.07-2.87-.08-1.27-.14-2.52-.19-3.75a18.79,18.79,0,0,0-.17-2.22,1,1,0,0,1-.08-.34,6.31,6.31,0,0,1,.66-1.46l.34-.65c.73.72,1.17,1.19,1.32,1.38.35.55.69,1.11,1,1.66.42.73.87,1.44,1.36,2.14A2.45,2.45,0,0,0,87,73h0l.33.15a.76.76,0,0,0,.32.11,1.18,1.18,0,0,1,.47.2,5.66,5.66,0,0,0,3.74,1.24,19.1,19.1,0,0,0,2.36-.22,9.23,9.23,0,0,0,3.39-.9,15.75,15.75,0,0,0,3.65-3.38,1.32,1.32,0,0,0,.19-.78,1.63,1.63,0,0,0-.1-.59,6.08,6.08,0,0,0-2.36-3.18,13,13,0,0,0-5.35-2.15,17.23,17.23,0,0,1-4.31-1.13c-1.38-.56-2.72-1.17-4-1.83A2.86,2.86,0,0,1,84,59.18a8.16,8.16,0,0,1-.58-1.68A8.35,8.35,0,0,1,83,55.19a7,7,0,0,1,.46-2.46,7.62,7.62,0,0,1,3.78-4.48,27,27,0,0,1,5-1.65h0a11.42,11.42,0,0,1,2.24-.42,3.38,3.38,0,0,1,2,.64.21.21,0,0,0,.15,0,2,2,0,0,0,.73-.22,5.28,5.28,0,0,1,1.85-.32c.27,0,.82,0,1.63.1l1.7.07a1.87,1.87,0,0,1,.68.12c.21.08.37.33.48.73a3.8,3.8,0,0,0,.55,1.2,8.87,8.87,0,0,1,.48.92,2.45,2.45,0,0,1,.12.78v.15c0,.17.06.79.18,1.84a27,27,0,0,1,.29,3.12,2.88,2.88,0,0,1-.28,1.13,1.36,1.36,0,0,1-.68.77,2.65,2.65,0,0,1-.92.14,7,7,0,0,1-1.77-.24.59.59,0,0,1-.3-.12,2,2,0,0,1-.46-.95,11.73,11.73,0,0,1-.47-2,2.73,2.73,0,0,0-.71-1.54,7.69,7.69,0,0,0-1.3-1.08c-.31-.23-.61-.46-.9-.71a3.5,3.5,0,0,0-2.34-.6,6.83,6.83,0,0,1-2.5-.64,3,3,0,0,0-1-.17,5.56,5.56,0,0,0-4.18,2.12c-.36.36-.73.71-1.12,1a3.45,3.45,0,0,0-1.12,2.84,1.63,1.63,0,0,0,.16.73,2.75,2.75,0,0,0,.79.86l0,0a20.79,20.79,0,0,0,3.14,2.26,10.13,10.13,0,0,0,2.89.88l.49.1q2.58.52,5.13,1a7.72,7.72,0,0,0,1.39.17l.55,0a5.3,5.3,0,0,0,.57,0h.2a2.57,2.57,0,0,1,1.11.24c2.36,1.48,3.53,3.3,3.53,5.48l0,.65,0,.15a7.87,7.87,0,0,1,.49,2.46A6.57,6.57,0,0,1,105.22,72.85Z" transform="translate(0.9 -27.62)"/><path class="cls-3" d="M76,72.85a10.42,10.42,0,0,1-1.91,2.86,7.06,7.06,0,0,1-5.28,2.79c-.85,0-1.67.06-2.48.13s-1.34.1-2,.12a9.41,9.41,0,0,1-2.82-.4c-.83-.27-1.66-.58-2.51-.94-.29-.13-.59-.25-.9-.37l-.82.39a25.28,25.28,0,0,1-2.53,1.07.67.67,0,0,1-.3,0,2.17,2.17,0,0,1-.7-.14c-.59-.21-.94-1.17-1.07-2.87-.09-1.27-.15-2.52-.2-3.75a16.55,16.55,0,0,0-.17-2.22.94.94,0,0,1-.07-.34,6.31,6.31,0,0,1,.66-1.46l.34-.65c.73.72,1.16,1.19,1.31,1.38.36.55.7,1.11,1,1.66.43.73.88,1.44,1.37,2.14a2.45,2.45,0,0,0,.9.66h0l.33.15a.76.76,0,0,0,.33.11,1.13,1.13,0,0,1,.46.2,5.71,5.71,0,0,0,3.75,1.24,19.26,19.26,0,0,0,2.36-.22,9.12,9.12,0,0,0,3.38-.9,15.56,15.56,0,0,0,3.65-3.38,1.32,1.32,0,0,0,.2-.78,1.87,1.87,0,0,0-.1-.59,6.13,6.13,0,0,0-2.36-3.18,13,13,0,0,0-5.36-2.15,17.15,17.15,0,0,1-4.3-1.13c-1.38-.56-2.73-1.17-4-1.83a2.89,2.89,0,0,1-1.37-1.32,8.16,8.16,0,0,1-.58-1.68,8.75,8.75,0,0,1-.37-2.31,6.76,6.76,0,0,1,.47-2.46,7.64,7.64,0,0,1,3.77-4.48,27.28,27.28,0,0,1,5-1.65h0a11.29,11.29,0,0,1,2.24-.42,3.4,3.4,0,0,1,2,.64.2.2,0,0,0,.14,0,2,2,0,0,0,.73-.22,5.33,5.33,0,0,1,1.85-.32c.28,0,.82,0,1.63.1l1.71.07a1.91,1.91,0,0,1,.68.12c.21.08.37.33.47.73a4,4,0,0,0,.55,1.2,8.93,8.93,0,0,1,.49.92,2.45,2.45,0,0,1,.12.78v.15c0,.17.05.79.17,1.84a25,25,0,0,1,.29,3.12,2.71,2.71,0,0,1-.28,1.13,1.32,1.32,0,0,1-.68.77,2.6,2.6,0,0,1-.91.14,7.1,7.1,0,0,1-1.78-.24.52.52,0,0,1-.29-.12,1.88,1.88,0,0,1-.46-.95,11.81,11.81,0,0,1-.48-2,2.72,2.72,0,0,0-.7-1.54,8.19,8.19,0,0,0-1.31-1.08c-.3-.23-.6-.46-.9-.71a3.45,3.45,0,0,0-2.33-.6,6.87,6.87,0,0,1-2.51-.64,2.87,2.87,0,0,0-1-.17,5.58,5.58,0,0,0-4.19,2.12c-.36.36-.73.71-1.12,1a3.48,3.48,0,0,0-1.12,2.84,1.77,1.77,0,0,0,.16.73,2.88,2.88,0,0,0,.79.86l0,0a21.3,21.3,0,0,0,3.14,2.26,10.19,10.19,0,0,0,2.9.88l.48.1q2.58.52,5.14,1a7.72,7.72,0,0,0,1.39.17l.54,0a5.49,5.49,0,0,0,.58,0h.19a2.59,2.59,0,0,1,1.12.24c2.35,1.48,3.53,3.3,3.53,5.48l0,.65,0,.15a8.17,8.17,0,0,1,.49,2.46A6.57,6.57,0,0,1,76,72.85Z" transform="translate(0.9 -27.62)"/></svg>