<svg xmlns="http://www.w3.org/2000/svg" viewBox="0 0 450 750"><defs><style>.cls-1{fill:#c3e8f8;}.cls-1,.cls-2,.cls-3,.cls-4{stroke:#000;}.cls-1,.cls-11,.cls-14,.cls-4,.cls-6,.cls-7{stroke-linejoin:round;}.cls-11,.cls-13,.cls-14,.cls-2,.cls-3,.cls-4,.cls-6,.cls-7,.cls-9{fill:none;}.cls-11,.cls-14,.cls-2,.cls-4,.cls-6,.cls-7{stroke-linecap:round;}.cls-13,.cls-2,.cls-3,.cls-9{stroke-miterlimit:10;}.cls-5{fill:#61cbef;}.cls-11,.cls-13,.cls-14,.cls-6,.cls-7,.cls-9{stroke:#31366d;}.cls-6{stroke-width:4px;}.cls-7{stroke-width:2px;}.cls-8{fill:#fcdb84;}.cls-10{fill:#f8c824;}.cls-11{stroke-width:1.52px;}.cls-12{fill:#ffeec7;}.cls-13,.cls-14{stroke-width:0.76px;}.cls-15{fill:#31366d;}</style></defs><g id="Layer_1" data-name="Layer 1"><rect class="cls-1" x="37.5" y="112.63" width="300" height="600"/><line class="cls-2" x1="37.5" y1="112.38" x2="112.5" y2="37.38"/><line class="cls-3" x1="337" y1="112.88" x2="412.5" y2="37.38"/><line class="cls-4" x1="187.44" y1="112.44" x2="262.5" y2="37.38"/><line class="cls-2" x1="337.5" y1="712.63" x2="412.5" y2="637.63"/><line class="cls-4" x1="112.5" y1="37.38" x2="412.5" y2="37.38"/><line class="cls-4" x1="412.5" y1="637.38" x2="412.5" y2="37.38"/></g><g id="front"><path class="cls-5" d="M317,248.39c-5.31-15.7-8.83-38.75-20.8-53.33-5.73-7-15.84-22.14-22.72-27.4L187.35,376.08Z"/><path class="cls-5" d="M187.34,376.08l77.33-186.69Z"/><polygon class="cls-5" points="319.4 321.38 319.4 320.72 187.34 376.08 319.4 321.38"/><path class="cls-5" d="M55.29,316.77v4l132.06,55.36L59.71,248.39c-7.52,31.58-2.63,65.94-4.42,68.38"/><polygon class="cls-5" points="55.29 321.38 187.34 376.08 55.29 320.72 55.29 321.38"/><path class="cls-5" d="M186.21,137.91c-30.58,0-63.37,10.56-84.42,31.05l85.56,207.12Z"/><polygon class="cls-5" points="319.4 376.08 319.4 321.38 187.34 376.08 319.4 376.08"/><polygon class="cls-5" points="319.4 508.13 319.4 430.77 187.34 376.08 319.4 508.13"/><path class="cls-5" d="M294,688.64l.27-4.75c0-24,5.21-25.53,7.2-25.76l2-1.86-116-280.19V688.76Z"/><polygon class="cls-5" points="55.05 634.44 55.17 651.46 71.76 655.12 187.34 376.08 55.29 508.13 55.05 634.44"/><polygon class="cls-5" points="55.29 376.08 55.29 430.77 187.34 376.08 55.29 376.08"/><path class="cls-6" d="M82.07,688.09v-9c0-23.77-15.85-27-19-27.35L55,650.92l.1-8.13V305c0-19.47.62-38.35,4.84-57.41,4.35-19.62,11.57-38.82,22.62-55.68A124.18,124.18,0,0,1,97.92,172.7c22.75-23.08,53.18-34.79,90.44-34.79s67.69,11.71,90.44,34.79c15.45,15.68,26.11,35.45,32.94,56.25a205.05,205.05,0,0,1,9.89,57.29c.37,11.53,0,23.14,0,34.69v330l-8.1.82c-3.07.38-18.92,3.57-18.92,27.34v9Z"/><path class="cls-7" d="M312.67,288.9V642.79s-27,2.72-27,36.3H91.07c0-33.58-27-36.3-27-36.3V288.9s-2.08-142,124.31-142S312.67,288.9,312.67,288.9Z"/><path class="cls-8" d="M247.42,384.24a60.2,60.2,0,1,0-60.19,60.2,60.19,60.19,0,0,0,60.19-60.2"/><circle class="cls-9" cx="187.23" cy="384.24" r="60.2" transform="translate(-59.13 34.95) rotate(-9.22)"/><path class="cls-10" d="M240.78,384.24a53.56,53.56,0,1,0-53.55,53.56,53.56,53.56,0,0,0,53.55-53.56"/><circle class="cls-11" cx="187.23" cy="384.24" r="60.2" transform="translate(-216.86 244.93) rotate(-45)"/><path class="cls-11" d="M240.78,384.24a53.56,53.56,0,1,1-53.55-53.56A53.56,53.56,0,0,1,240.78,384.24Z"/><path class="cls-12" d="M208.15,405.18a16.71,16.71,0,0,0,3.28-5.48,16,16,0,0,0,.25-11.86c-3.16-8.09-11.82-13.15-19.27-16.7a122.87,122.87,0,0,0-22.95-8c-1.45-.36-2.9-.71-4.36-1a117,117,0,0,0,9,27.17c4.15,8.76,10.65,19.63,21.43,20.35a17.56,17.56,0,0,0,11.28-3.25,10.2,10.2,0,0,0,1.39-1.22"/><path class="cls-13" d="M208.15,405.18a16.71,16.71,0,0,0,3.28-5.48,16,16,0,0,0,.25-11.86c-3.16-8.09-11.82-13.15-19.27-16.7a122.87,122.87,0,0,0-22.95-8c-1.45-.36-2.9-.71-4.36-1a117,117,0,0,0,9,27.17c4.15,8.76,10.65,19.63,21.43,20.35a17.56,17.56,0,0,0,11.28-3.25A10.2,10.2,0,0,0,208.15,405.18Z"/><path class="cls-14" d="M208.15,405.18a16.71,16.71,0,0,0,3.28-5.48,16,16,0,0,0,.25-11.86c-3.16-8.09-11.82-13.15-19.27-16.7a122.87,122.87,0,0,0-22.95-8c-1.45-.36-2.9-.71-4.36-1a117,117,0,0,0,9,27.17c4.15,8.76,10.65,19.63,21.43,20.35a17.56,17.56,0,0,0,11.28-3.25A10.2,10.2,0,0,0,208.15,405.18Z"/><path class="cls-14" d="M165.1,362.13c54.21,27.42,44,42,44,42"/><path class="cls-14" d="M165.1,362.13c27.42,54.21,42,44,42,44"/><path class="cls-14" d="M208.15,405.18s.44-13.53-43.05-43.05"/><rect class="cls-8" x="64.05" y="492.34" width="248.62" height="48.88"/><rect class="cls-9" x="64.05" y="492.34" width="248.62" height="48.88"/><path class="cls-8" d="M199.19,616.35c-8.3,0-16.76-2.67-22.39-4.68a151.85,151.85,0,0,1-32.92-16.61l-4.76-3.18,4.76-3.19c1.69-1.13,3.43-2.18,4.93-3.08A155.79,155.79,0,0,1,177,572c6.08-2.16,14.1-4.63,22.22-4.63a31.09,31.09,0,0,1,12.53,2.44A24,24,0,0,1,224,582.59,23.52,23.52,0,0,1,217.7,610c-4.84,4.23-11.06,6.37-18.51,6.37"/><path class="cls-9" d="M199.19,616.35c-8.3,0-16.76-2.67-22.39-4.68a151.85,151.85,0,0,1-32.92-16.61l-4.76-3.18,4.76-3.19c1.69-1.13,3.43-2.18,4.93-3.08A155.79,155.79,0,0,1,177,572c6.08-2.16,14.1-4.63,22.22-4.63a31.09,31.09,0,0,1,12.53,2.44A24,24,0,0,1,224,582.59,23.52,23.52,0,0,1,217.7,610C212.86,614.21,206.64,616.35,199.19,616.35Z"/><path class="cls-8" d="M220.5,584.1a20.08,20.08,0,0,0-10.31-10.75c-10-4.38-22.16-1.18-31.92,2.28a153.34,153.34,0,0,0-27.49,13.27c-1.61,1-3.21,1.93-4.76,3a147.15,147.15,0,0,0,32.07,16.18c11.46,4.08,26.87,8,37.08-1a19.49,19.49,0,0,0,5.33-23"/><path class="cls-9" d="M220.5,584.1a20.08,20.08,0,0,0-10.31-10.75c-10-4.38-22.16-1.18-31.92,2.28a153.34,153.34,0,0,0-27.49,13.27c-1.61,1-3.21,1.93-4.76,3a147.15,147.15,0,0,0,32.07,16.18c11.46,4.08,26.87,8,37.08-1A19.49,19.49,0,0,0,220.5,584.1Z"/><path class="cls-15" d="M194.13,595.76a4.69,4.69,0,0,1-2.26,4.19,12,12,0,0,1-6.5,1.46,12.09,12.09,0,0,1-6-1.18,3.79,3.79,0,0,1-2-3.46,2.89,2.89,0,0,1,1-2.28,3.82,3.82,0,0,1,2.6-.89,4.74,4.74,0,0,1,2.91.81,2.57,2.57,0,0,1,1.08,2.17,2,2,0,0,1-.71,1.64,3.21,3.21,0,0,1-2,.65.5.5,0,0,0-.16.36.33.33,0,0,0,.18.3.86.86,0,0,0,.45.11,3.18,3.18,0,0,0,2.28-.87,2.92,2.92,0,0,0,.91-2.19,3.26,3.26,0,0,0-.43-1.76,3.87,3.87,0,0,0-1.41-1.24,14,14,0,0,0-2.64-1.07,5.75,5.75,0,0,1-2.84-1.72,4.27,4.27,0,0,1-1-2.81,4.51,4.51,0,0,1,1-2.91,6.78,6.78,0,0,1,3-2,12.58,12.58,0,0,1,4.49-.74,10.88,10.88,0,0,1,5.64,1.23,3.81,3.81,0,0,1,2,3.42,2.85,2.85,0,0,1-1.05,2.28,4.1,4.1,0,0,1-2.72.88,4.41,4.41,0,0,1-2.77-.81,2.62,2.62,0,0,1-1.05-2.16,2,2,0,0,1,.71-1.64,3.22,3.22,0,0,1,2-.66.46.46,0,0,0,.16-.35.34.34,0,0,0-.17-.3.89.89,0,0,0-.46-.11,3.18,3.18,0,0,0-1.59.4,3,3,0,0,0-1.16,1.09,2.9,2.9,0,0,0-.44,1.57,3.09,3.09,0,0,0,1,2.41,8.57,8.57,0,0,0,3.47,1.6,7.23,7.23,0,0,1,3.34,1.75,3.93,3.93,0,0,1,1.08,2.84"/><path class="cls-15" d="M211.94,595.76a4.69,4.69,0,0,1-2.27,4.19,15.41,15.41,0,0,1-12.46.28,3.8,3.8,0,0,1-2-3.46,2.9,2.9,0,0,1,1-2.28,3.8,3.8,0,0,1,2.6-.89,4.71,4.71,0,0,1,2.9.81,2.57,2.57,0,0,1,1.08,2.17,2,2,0,0,1-.71,1.64,3.18,3.18,0,0,1-2,.65.51.51,0,0,0-.17.36.33.33,0,0,0,.18.3.88.88,0,0,0,.45.11,3.18,3.18,0,0,0,2.28-.87,2.93,2.93,0,0,0,.92-2.19,3.26,3.26,0,0,0-.44-1.76,3.83,3.83,0,0,0-1.4-1.24,14,14,0,0,0-2.64-1.07,5.71,5.71,0,0,1-2.84-1.72,4.22,4.22,0,0,1-1-2.81,4.47,4.47,0,0,1,1-2.91,6.72,6.72,0,0,1,2.95-2,12.54,12.54,0,0,1,4.49-.74,10.93,10.93,0,0,1,5.64,1.23,3.8,3.8,0,0,1,2,3.42,2.85,2.85,0,0,1-1.05,2.28,4.05,4.05,0,0,1-2.71.88,4.44,4.44,0,0,1-2.78-.81,2.62,2.62,0,0,1-1-2.16,2,2,0,0,1,.71-1.64,3.27,3.27,0,0,1,2-.66.5.5,0,0,0,.16-.35.33.33,0,0,0-.18-.3.88.88,0,0,0-.45-.11,3.25,3.25,0,0,0-1.6.4,3,3,0,0,0-1.16,1.09,2.89,2.89,0,0,0-.43,1.57,3.06,3.06,0,0,0,1,2.41,8.57,8.57,0,0,0,3.47,1.6,7.23,7.23,0,0,1,3.34,1.75,3.93,3.93,0,0,1,1.08,2.84"/><path class="cls-15" d="M127,275.68a10.65,10.65,0,0,1-5.41,9.58q-5.4,3.33-15.5,3.33-9.37,0-14.22-2.71A8.59,8.59,0,0,1,87.05,278a6.49,6.49,0,0,1,2.41-5.21,9.25,9.25,0,0,1,6.18-2,11.7,11.7,0,0,1,6.94,1.84,5.78,5.78,0,0,1,2.57,4.95,4.57,4.57,0,0,1-1.69,3.74,7.86,7.86,0,0,1-4.76,1.5,1.11,1.11,0,0,0-.39.81.78.78,0,0,0,.42.69,2.08,2.08,0,0,0,1.08.25,7.77,7.77,0,0,0,5.44-2,6.49,6.49,0,0,0,2.18-5,7.23,7.23,0,0,0-1-4,9.06,9.06,0,0,0-3.36-2.84,34.16,34.16,0,0,0-6.28-2.43A13.78,13.78,0,0,1,90,264.33a9.41,9.41,0,0,1-2.28-6.42,10,10,0,0,1,2.44-6.64,16.3,16.3,0,0,1,7-4.59A31.12,31.12,0,0,1,107.88,245q8.59,0,13.45,2.81t4.85,7.79a6.41,6.41,0,0,1-2.51,5.21,10,10,0,0,1-6.48,2,10.81,10.81,0,0,1-6.6-1.87,5.85,5.85,0,0,1-2.51-4.93,4.54,4.54,0,0,1,1.69-3.74,7.83,7.83,0,0,1,4.75-1.5,1.13,1.13,0,0,0,.4-.81.79.79,0,0,0-.43-.69,2.14,2.14,0,0,0-1.07-.25,8.12,8.12,0,0,0-3.81.91,7.31,7.31,0,0,0-2.77,2.49,6.45,6.45,0,0,0-1,3.59,6.94,6.94,0,0,0,2.41,5.52c1.61,1.39,4.36,2.61,8.27,3.64q5.4,1.44,8,4a8.73,8.73,0,0,1,2.58,6.48"/><path class="cls-15" d="M163.07,246.06a2.12,2.12,0,0,1,1.59.5,2.43,2.43,0,0,1,.47,1.68v7.42c0,2.62-.57,4.57-1.69,5.83a6.54,6.54,0,0,1-5.17,1.91H150.6a1.85,1.85,0,0,1-2.19-2.19V250.43c0-.92-.35-1.38-1.06-1.38a1.33,1.33,0,0,0-1.12.5v15.72h11.85c.5,0,.75.23.75.68v1.62q0,.63-.75.63H146.23v15.71a1.3,1.3,0,0,0,1.12.5c.71,0,1.06-.45,1.06-1.37V272.38a1.84,1.84,0,0,1,2.19-2.18h7.67q3.49,0,5.17,1.9c1.12,1.26,1.69,3.21,1.69,5.83v7.42a2.43,2.43,0,0,1-.47,1.68,2.08,2.08,0,0,1-1.59.5h-31.5A2.11,2.11,0,0,1,130,287a2.43,2.43,0,0,1-.46-1.68V253.17a7.76,7.76,0,0,0-.25-2.28,3.34,3.34,0,0,0-.88-1.31,17.44,17.44,0,0,0-2.12-1.59.62.62,0,0,1-.31-.56v-.75c0-.41.25-.62.75-.62Z"/><path class="cls-15" d="M204.54,246.06a2.12,2.12,0,0,1,1.59.5,2.43,2.43,0,0,1,.47,1.68v7.42c0,2.62-.56,4.57-1.69,5.83a6.54,6.54,0,0,1-5.17,1.91h-7.67a1.84,1.84,0,0,1-2.18-2.19V250.43c0-.92-.36-1.38-1.07-1.38a1.33,1.33,0,0,0-1.12.5v15.72h11.85c.5,0,.75.23.75.68v1.62q0,.63-.75.63H187.7v15.71a1.3,1.3,0,0,0,1.12.5c.71,0,1.07-.45,1.07-1.37V272.38a1.82,1.82,0,0,1,2.18-2.18h7.67q3.49,0,5.17,1.9c1.13,1.26,1.69,3.21,1.69,5.83v7.42a2.43,2.43,0,0,1-.47,1.68,2.08,2.08,0,0,1-1.59.5H173.05a2.08,2.08,0,0,1-1.59-.5,2.43,2.43,0,0,1-.47-1.68V253.17a7.76,7.76,0,0,0-.25-2.28,3.42,3.42,0,0,0-.87-1.31,19.24,19.24,0,0,0-2.12-1.59.61.61,0,0,1-.32-.56v-.75c0-.41.25-.62.75-.62Z"/><path class="cls-15" d="M231.67,246.06q9.22,0,14.37,5.46t5.15,15.18a23.73,23.73,0,0,1-2.37,10.82,17.53,17.53,0,0,1-6.83,7.36,19.89,19.89,0,0,1-10.38,2.65H214.52a2.08,2.08,0,0,1-1.59-.5,2.43,2.43,0,0,1-.47-1.68V253.11a5.94,5.94,0,0,0-.5-2.84,9.27,9.27,0,0,0-2.74-2.28.6.6,0,0,1-.31-.56v-.75c0-.41.25-.62.74-.62Zm-2.5,38a1.4,1.4,0,0,0,1.19.5,1,1,0,0,0,.87-.44,1.86,1.86,0,0,0,.31-1.12V250.61a1.88,1.88,0,0,0-.31-1.12,1,1,0,0,0-.87-.44,1.4,1.4,0,0,0-1.19.5Z"/><path class="cls-15" d="M290.18,275.68a10.74,10.74,0,0,1-5.18,9.58q-5.17,3.33-14.84,3.33-9,0-13.62-2.71a8.64,8.64,0,0,1-4.65-7.89,6.62,6.62,0,0,1,2.31-5.21,8.63,8.63,0,0,1,5.92-2,10.81,10.81,0,0,1,6.64,1.84,5.86,5.86,0,0,1,2.47,4.95,4.64,4.64,0,0,1-1.63,3.74,7.3,7.3,0,0,1-4.55,1.5,1.13,1.13,0,0,0-.37.81.78.78,0,0,0,.4.69,1.92,1.92,0,0,0,1,.25,7.25,7.25,0,0,0,5.21-2,6.62,6.62,0,0,0,2.09-5,7.4,7.4,0,0,0-1-4,8.72,8.72,0,0,0-3.21-2.84,32.06,32.06,0,0,0-6-2.43,13.07,13.07,0,0,1-6.48-3.93,9.65,9.65,0,0,1-2.19-6.42,10.28,10.28,0,0,1,2.34-6.64,15.54,15.54,0,0,1,6.74-4.59A28.64,28.64,0,0,1,271.84,245q8.24,0,12.88,2.81a8.68,8.68,0,0,1,4.65,7.79,6.51,6.51,0,0,1-2.4,5.21,9.3,9.3,0,0,1-6.21,2,10.05,10.05,0,0,1-6.33-1.87A6,6,0,0,1,272,256a4.64,4.64,0,0,1,1.62-3.74,7.31,7.31,0,0,1,4.56-1.5,1.17,1.17,0,0,0,.37-.81.77.77,0,0,0-.41-.69,2,2,0,0,0-1-.25,7.49,7.49,0,0,0-3.65.91,7,7,0,0,0-2.65,2.49,6.58,6.58,0,0,0-1,3.59,7.09,7.09,0,0,0,2.31,5.52c1.54,1.39,4.18,2.61,7.92,3.64,3.45,1,6,2.29,7.64,4a9,9,0,0,1,2.46,6.48"/><path class="cls-15" d="M161.75,226.78a10.59,10.59,0,0,1-5.46,9.57q-5.46,3.35-15.66,3.34-9.48,0-14.38-2.71t-4.9-7.89a6.48,6.48,0,0,1,2.43-5.21,9.45,9.45,0,0,1,6.25-2,12,12,0,0,1,7,1.84,5.79,5.79,0,0,1,2.6,5,4.53,4.53,0,0,1-1.71,3.74,8,8,0,0,1-4.8,1.5,1.09,1.09,0,0,0-.4.81.77.77,0,0,0,.43.69,2.18,2.18,0,0,0,1.08.25,7.89,7.89,0,0,0,5.5-2,6.44,6.44,0,0,0,2.2-5,7.15,7.15,0,0,0-1.05-4,9,9,0,0,0-3.39-2.84,34.84,34.84,0,0,0-6.35-2.43,14,14,0,0,1-6.84-3.93A9.37,9.37,0,0,1,122,209a10,10,0,0,1,2.47-6.64,16.44,16.44,0,0,1,7.11-4.59,31.73,31.73,0,0,1,10.82-1.68q8.7,0,13.59,2.8t4.91,7.8a6.38,6.38,0,0,1-2.54,5.21,10.15,10.15,0,0,1-6.54,2,10.93,10.93,0,0,1-6.68-1.87,5.83,5.83,0,0,1-2.54-4.92,4.53,4.53,0,0,1,1.71-3.74,8,8,0,0,1,4.81-1.5,1.11,1.11,0,0,0,.39-.81.77.77,0,0,0-.43-.69,2.06,2.06,0,0,0-1.08-.25,8.13,8.13,0,0,0-3.85.91,7.33,7.33,0,0,0-2.8,2.49,6.38,6.38,0,0,0-1,3.59,6.94,6.94,0,0,0,2.43,5.52q2.45,2.09,8.36,3.64,5.46,1.44,8.06,4a8.66,8.66,0,0,1,2.6,6.48"/><path class="cls-15" d="M179.84,197.16a2.12,2.12,0,0,1,1.59.5,2.38,2.38,0,0,1,.47,1.68v35.49c0,1.12.4,1.68,1.19,1.68s1.18-.56,1.18-1.68V199.34a2.43,2.43,0,0,1,.47-1.68,2.12,2.12,0,0,1,1.59-.5h13.78a2.27,2.27,0,0,1,1.62.47,2,2,0,0,1,.5,1.52v22.39q0,9-4.83,13.57t-14.31,4.58q-9.42,0-14.29-4.58t-4.86-13.57V204.27a7.43,7.43,0,0,0-.25-2.28,3.31,3.31,0,0,0-.87-1.31,19.24,19.24,0,0,0-2.12-1.59.6.6,0,0,1-.31-.56v-.75c0-.41.25-.62.75-.62Z"/><path class="cls-15" d="M241,226a1.58,1.58,0,0,0,.63.13,1,1,0,0,0,.68-.28.92.92,0,0,0,.31-.72,3.64,3.64,0,0,0-.68-1.87l-14.35-23.7a6.2,6.2,0,0,1-.4-.72,1.35,1.35,0,0,1-.1-.53V198a.89.89,0,0,1,.19-.66,1,1,0,0,1,.63-.15h16a2.12,2.12,0,0,1,1.59.5,2.43,2.43,0,0,1,.47,1.68v37.11a2.43,2.43,0,0,1-.47,1.68,2.12,2.12,0,0,1-1.59.5h-8a8.51,8.51,0,0,1-4.49-1,10.7,10.7,0,0,1-3.24-3.68l-14.66-24.19a1.45,1.45,0,0,0-.56-.13,1.11,1.11,0,0,0-.72.28.89.89,0,0,0-.34.72,4.19,4.19,0,0,0,.68,1.87l14.35,23.7a5,5,0,0,1,.4.72,1.18,1.18,0,0,1,.1.52v.38a1,1,0,0,1-.16.62c-.1.13-.32.19-.65.19h-16a2.12,2.12,0,0,1-1.59-.5,2.43,2.43,0,0,1-.47-1.68V204.27a7.43,7.43,0,0,0-.25-2.28,3.31,3.31,0,0,0-.87-1.31,18.3,18.3,0,0,0-2.12-1.59.6.6,0,0,1-.31-.56v-.75c0-.41.25-.62.75-.62h12.84a8.49,8.49,0,0,1,4.49,1,10.86,10.86,0,0,1,3.25,3.67Z"/><path class="cls-10" d="M128.57,272.7a10.71,10.71,0,0,1-5.17,9.57q-5.18,3.35-14.85,3.34c-6,0-10.53-.9-13.62-2.71A8.64,8.64,0,0,1,90.28,275a6.62,6.62,0,0,1,2.31-5.21,8.65,8.65,0,0,1,5.92-2,10.93,10.93,0,0,1,6.65,1.84,5.88,5.88,0,0,1,2.46,5,4.64,4.64,0,0,1-1.62,3.74,7.31,7.31,0,0,1-4.56,1.5,1.17,1.17,0,0,0-.37.81.79.79,0,0,0,.41.69,2,2,0,0,0,1,.25,7.24,7.24,0,0,0,5.2-2,6.58,6.58,0,0,0,2.09-5,7.4,7.4,0,0,0-1-4,8.64,8.64,0,0,0-3.21-2.84,31.93,31.93,0,0,0-6-2.43,13.1,13.1,0,0,1-6.49-3.93,9.68,9.68,0,0,1-2.18-6.42,10.25,10.25,0,0,1,2.33-6.64A15.51,15.51,0,0,1,100,243.7,28.66,28.66,0,0,1,110.24,242q8.24,0,12.88,2.8a8.71,8.71,0,0,1,4.64,7.8,6.51,6.51,0,0,1-2.4,5.21,9.29,9.29,0,0,1-6.2,2,10,10,0,0,1-6.33-1.87,5.92,5.92,0,0,1-2.4-4.92,4.64,4.64,0,0,1,1.62-3.74,7.28,7.28,0,0,1,4.55-1.5A1.13,1.13,0,0,0,117,247a.78.78,0,0,0-.4-.69,1.89,1.89,0,0,0-1-.25,7.4,7.4,0,0,0-3.65.91,7.12,7.12,0,0,0-2.65,2.49,6.67,6.67,0,0,0-1,3.59,7.11,7.11,0,0,0,2.31,5.52c1.54,1.39,4.18,2.61,7.92,3.64q5.18,1.44,7.64,4a9,9,0,0,1,2.46,6.48"/><path class="cls-9" d="M128.57,272.7a10.71,10.71,0,0,1-5.17,9.57q-5.18,3.35-14.85,3.34c-6,0-10.53-.9-13.62-2.71A8.64,8.64,0,0,1,90.28,275a6.62,6.62,0,0,1,2.31-5.21,8.65,8.65,0,0,1,5.92-2,10.93,10.93,0,0,1,6.65,1.84,5.88,5.88,0,0,1,2.46,5,4.64,4.64,0,0,1-1.62,3.74,7.31,7.31,0,0,1-4.56,1.5,1.17,1.17,0,0,0-.37.81.79.79,0,0,0,.41.69,2,2,0,0,0,1,.25,7.24,7.24,0,0,0,5.2-2,6.58,6.58,0,0,0,2.09-5,7.4,7.4,0,0,0-1-4,8.64,8.64,0,0,0-3.21-2.84,31.93,31.93,0,0,0-6-2.43,13.1,13.1,0,0,1-6.49-3.93,9.68,9.68,0,0,1-2.18-6.42,10.25,10.25,0,0,1,2.33-6.64A15.51,15.51,0,0,1,100,243.7,28.66,28.66,0,0,1,110.24,242q8.24,0,12.88,2.8a8.71,8.71,0,0,1,4.64,7.8,6.51,6.51,0,0,1-2.4,5.21,9.29,9.29,0,0,1-6.2,2,10,10,0,0,1-6.33-1.87,5.92,5.92,0,0,1-2.4-4.92,4.64,4.64,0,0,1,1.62-3.74,7.28,7.28,0,0,1,4.55-1.5A1.13,1.13,0,0,0,117,247a.78.78,0,0,0-.4-.69,1.89,1.89,0,0,0-1-.25,7.4,7.4,0,0,0-3.65.91,7.12,7.12,0,0,0-2.65,2.49,6.67,6.67,0,0,0-1,3.59,7.11,7.11,0,0,0,2.31,5.52c1.54,1.39,4.18,2.61,7.92,3.64q5.18,1.44,7.64,4A9,9,0,0,1,128.57,272.7Z"/><path class="cls-10" d="M166.3,243.08a2.12,2.12,0,0,1,1.59.5,2.38,2.38,0,0,1,.47,1.68v7.42c0,2.62-.56,4.57-1.68,5.83a6.57,6.57,0,0,1-5.18,1.91h-7.67a1.84,1.84,0,0,1-2.18-2.19V247.45c0-.92-.36-1.38-1.06-1.38a1.33,1.33,0,0,0-1.13.5v15.72h11.85c.5,0,.75.23.75.68v1.62q0,.63-.75.63H149.46v15.71a1.31,1.31,0,0,0,1.13.5c.7,0,1.06-.46,1.06-1.37V269.4a1.84,1.84,0,0,1,2.18-2.19h7.67a6.57,6.57,0,0,1,5.18,1.91c1.12,1.26,1.68,3.21,1.68,5.83v7.42a2.38,2.38,0,0,1-.47,1.68,2.08,2.08,0,0,1-1.59.5H134.81a2.08,2.08,0,0,1-1.59-.5,2.43,2.43,0,0,1-.47-1.68V250.19a7.43,7.43,0,0,0-.25-2.28,3.31,3.31,0,0,0-.87-1.31,18.3,18.3,0,0,0-2.12-1.59.6.6,0,0,1-.31-.56v-.75c0-.41.25-.62.75-.62Z"/><path class="cls-9" d="M166.3,243.08a2.12,2.12,0,0,1,1.59.5,2.38,2.38,0,0,1,.47,1.68v7.42c0,2.62-.56,4.57-1.68,5.83a6.57,6.57,0,0,1-5.18,1.91h-7.67a1.84,1.84,0,0,1-2.18-2.19V247.45c0-.92-.36-1.38-1.06-1.38a1.33,1.33,0,0,0-1.13.5v15.72h11.85c.5,0,.75.23.75.68v1.62q0,.63-.75.63H149.46v15.71a1.31,1.31,0,0,0,1.13.5c.7,0,1.06-.46,1.06-1.37V269.4a1.84,1.84,0,0,1,2.18-2.19h7.67a6.57,6.57,0,0,1,5.18,1.91c1.12,1.26,1.68,3.21,1.68,5.83v7.42a2.38,2.38,0,0,1-.47,1.68,2.08,2.08,0,0,1-1.59.5H134.81a2.08,2.08,0,0,1-1.59-.5,2.43,2.43,0,0,1-.47-1.68V250.19a7.43,7.43,0,0,0-.25-2.28,3.31,3.31,0,0,0-.87-1.31,18.3,18.3,0,0,0-2.12-1.59.6.6,0,0,1-.31-.56v-.75c0-.41.25-.62.75-.62Z"/><path class="cls-10" d="M207.78,243.08a2.15,2.15,0,0,1,1.59.5,2.43,2.43,0,0,1,.46,1.68v7.42c0,2.62-.56,4.57-1.68,5.83a6.56,6.56,0,0,1-5.18,1.91H195.3a2.33,2.33,0,0,1-1.68-.5,2.35,2.35,0,0,1-.5-1.69V247.45c0-.92-.35-1.38-1.06-1.38a1.32,1.32,0,0,0-1.12.5v15.72h11.85c.5,0,.74.23.74.68v1.62c0,.42-.24.63-.74.63H190.94v15.71a1.29,1.29,0,0,0,1.12.5c.71,0,1.06-.46,1.06-1.37V269.4a2.35,2.35,0,0,1,.5-1.69,2.33,2.33,0,0,1,1.68-.5H203a6.56,6.56,0,0,1,5.18,1.91c1.12,1.26,1.68,3.21,1.68,5.83v7.42a2.43,2.43,0,0,1-.46,1.68,2.11,2.11,0,0,1-1.59.5h-31.5a2.08,2.08,0,0,1-1.59-.5,2.43,2.43,0,0,1-.47-1.68V250.19a7.43,7.43,0,0,0-.25-2.28,3.2,3.2,0,0,0-.87-1.31A17.44,17.44,0,0,0,171,245a.6.6,0,0,1-.31-.56v-.75c0-.41.25-.62.75-.62Z"/><path class="cls-9" d="M207.78,243.08a2.15,2.15,0,0,1,1.59.5,2.43,2.43,0,0,1,.46,1.68v7.42c0,2.62-.56,4.57-1.68,5.83a6.56,6.56,0,0,1-5.18,1.91H195.3a2.33,2.33,0,0,1-1.68-.5,2.35,2.35,0,0,1-.5-1.69V247.45c0-.92-.35-1.38-1.06-1.38a1.32,1.32,0,0,0-1.12.5v15.72h11.85c.5,0,.74.23.74.68v1.62c0,.42-.24.63-.74.63H190.94v15.71a1.29,1.29,0,0,0,1.12.5c.71,0,1.06-.46,1.06-1.37V269.4a2.35,2.35,0,0,1,.5-1.69,2.33,2.33,0,0,1,1.68-.5H203a6.56,6.56,0,0,1,5.18,1.91c1.12,1.26,1.68,3.21,1.68,5.83v7.42a2.43,2.43,0,0,1-.46,1.68,2.11,2.11,0,0,1-1.59.5h-31.5a2.08,2.08,0,0,1-1.59-.5,2.43,2.43,0,0,1-.47-1.68V250.19a7.43,7.43,0,0,0-.25-2.28,3.2,3.2,0,0,0-.87-1.31A17.44,17.44,0,0,0,171,245a.6.6,0,0,1-.31-.56v-.75c0-.41.25-.62.75-.62Z"/><path class="cls-10" d="M234.9,243.08q9.24,0,14.38,5.46t5.14,15.18a23.73,23.73,0,0,1-2.37,10.82,17.53,17.53,0,0,1-6.83,7.36,19.89,19.89,0,0,1-10.38,2.65H217.75a2.09,2.09,0,0,1-1.59-.5,2.43,2.43,0,0,1-.47-1.68V250.13a6,6,0,0,0-.49-2.84,9.36,9.36,0,0,0-2.75-2.28.6.6,0,0,1-.31-.56v-.75c0-.41.25-.62.75-.62Zm-2.49,38a1.38,1.38,0,0,0,1.18.5,1,1,0,0,0,.88-.44,1.88,1.88,0,0,0,.31-1.12V247.63a1.86,1.86,0,0,0-.31-1.12,1,1,0,0,0-.88-.44,1.38,1.38,0,0,0-1.18.5Z"/><path class="cls-9" d="M234.9,243.08q9.24,0,14.38,5.46t5.14,15.18a23.73,23.73,0,0,1-2.37,10.82,17.53,17.53,0,0,1-6.83,7.36,19.89,19.89,0,0,1-10.38,2.65H217.75a2.09,2.09,0,0,1-1.59-.5,2.43,2.43,0,0,1-.47-1.68V250.13a6,6,0,0,0-.49-2.84,9.36,9.36,0,0,0-2.75-2.28.6.6,0,0,1-.31-.56v-.75c0-.41.25-.62.75-.62Zm-2.49,38a1.38,1.38,0,0,0,1.18.5,1,1,0,0,0,.88-.44,1.88,1.88,0,0,0,.31-1.12V247.63a1.86,1.86,0,0,0-.31-1.12,1,1,0,0,0-.88-.44,1.38,1.38,0,0,0-1.18.5Z"/><path class="cls-10" d="M293.41,272.7a10.71,10.71,0,0,1-5.17,9.57q-5.17,3.35-14.85,3.34-9,0-13.62-2.71a8.64,8.64,0,0,1-4.65-7.89,6.62,6.62,0,0,1,2.31-5.21,8.65,8.65,0,0,1,5.92-2,10.93,10.93,0,0,1,6.65,1.84,5.88,5.88,0,0,1,2.46,5,4.64,4.64,0,0,1-1.62,3.74,7.3,7.3,0,0,1-4.55,1.5,1.14,1.14,0,0,0-.38.81.79.79,0,0,0,.41.69,2,2,0,0,0,1,.25,7.24,7.24,0,0,0,5.2-2,6.58,6.58,0,0,0,2.09-5,7.4,7.4,0,0,0-1-4,8.64,8.64,0,0,0-3.21-2.84,31.93,31.93,0,0,0-6-2.43,13.1,13.1,0,0,1-6.49-3.93,9.68,9.68,0,0,1-2.18-6.42,10.26,10.26,0,0,1,2.34-6.64,15.42,15.42,0,0,1,6.73-4.59A28.66,28.66,0,0,1,275.08,242q8.24,0,12.88,2.8a8.71,8.71,0,0,1,4.64,7.8,6.51,6.51,0,0,1-2.4,5.21,9.29,9.29,0,0,1-6.2,2,10,10,0,0,1-6.33-1.87,5.92,5.92,0,0,1-2.4-4.92,4.64,4.64,0,0,1,1.62-3.74,7.28,7.28,0,0,1,4.55-1.5,1.13,1.13,0,0,0,.37-.81.78.78,0,0,0-.4-.69,1.89,1.89,0,0,0-1-.25,7.4,7.4,0,0,0-3.65.91,7.12,7.12,0,0,0-2.65,2.49,6.67,6.67,0,0,0-1,3.59,7.11,7.11,0,0,0,2.31,5.52c1.54,1.39,4.18,2.61,7.92,3.64q5.18,1.44,7.64,4a9,9,0,0,1,2.46,6.48"/><path class="cls-9" d="M293.41,272.7a10.71,10.71,0,0,1-5.17,9.57q-5.17,3.35-14.85,3.34-9,0-13.62-2.71a8.64,8.64,0,0,1-4.65-7.89,6.62,6.62,0,0,1,2.31-5.21,8.65,8.65,0,0,1,5.92-2,10.93,10.93,0,0,1,6.65,1.84,5.88,5.88,0,0,1,2.46,5,4.64,4.64,0,0,1-1.62,3.74,7.3,7.3,0,0,1-4.55,1.5,1.14,1.14,0,0,0-.38.81.79.79,0,0,0,.41.69,2,2,0,0,0,1,.25,7.24,7.24,0,0,0,5.2-2,6.58,6.58,0,0,0,2.09-5,7.4,7.4,0,0,0-1-4,8.64,8.64,0,0,0-3.21-2.84,31.93,31.93,0,0,0-6-2.43,13.1,13.1,0,0,1-6.49-3.93,9.68,9.68,0,0,1-2.18-6.42,10.26,10.26,0,0,1,2.34-6.64,15.42,15.42,0,0,1,6.73-4.59A28.66,28.66,0,0,1,275.08,242q8.24,0,12.88,2.8a8.71,8.71,0,0,1,4.64,7.8,6.51,6.51,0,0,1-2.4,5.21,9.29,9.29,0,0,1-6.2,2,10,10,0,0,1-6.33-1.87,5.92,5.92,0,0,1-2.4-4.92,4.64,4.64,0,0,1,1.62-3.74,7.28,7.28,0,0,1,4.55-1.5,1.13,1.13,0,0,0,.37-.81.78.78,0,0,0-.4-.69,1.89,1.89,0,0,0-1-.25,7.4,7.4,0,0,0-3.65.91,7.12,7.12,0,0,0-2.65,2.49,6.67,6.67,0,0,0-1,3.59,7.11,7.11,0,0,0,2.31,5.52c1.54,1.39,4.18,2.61,7.92,3.64q5.18,1.44,7.64,4A9,9,0,0,1,293.41,272.7Z"/><path class="cls-10" d="M162.87,223.8a10.71,10.71,0,0,1-5.17,9.57q-5.19,3.34-14.85,3.34c-6,0-10.53-.91-13.62-2.71a8.64,8.64,0,0,1-4.65-7.89,6.62,6.62,0,0,1,2.31-5.21,8.65,8.65,0,0,1,5.92-2,10.88,10.88,0,0,1,6.64,1.84,5.86,5.86,0,0,1,2.47,5,4.64,4.64,0,0,1-1.62,3.74,7.31,7.31,0,0,1-4.56,1.5,1.13,1.13,0,0,0-.37.81.77.77,0,0,0,.41.69,2,2,0,0,0,1,.24,7.24,7.24,0,0,0,5.21-2,6.62,6.62,0,0,0,2.09-5,7.4,7.4,0,0,0-1-4,8.64,8.64,0,0,0-3.21-2.84,31.78,31.78,0,0,0-6-2.43,13.07,13.07,0,0,1-6.48-3.93A9.69,9.69,0,0,1,125.2,206a10.31,10.31,0,0,1,2.34-6.65,15.58,15.58,0,0,1,6.74-4.58,28.66,28.66,0,0,1,10.26-1.68q8.24,0,12.88,2.8a8.7,8.7,0,0,1,4.64,7.8,6.51,6.51,0,0,1-2.4,5.21,9.29,9.29,0,0,1-6.2,2,10,10,0,0,1-6.33-1.87,6,6,0,0,1-2.41-4.93,4.64,4.64,0,0,1,1.63-3.74,7.33,7.33,0,0,1,4.55-1.49,1.13,1.13,0,0,0,.37-.81.78.78,0,0,0-.4-.69,1.92,1.92,0,0,0-1-.25,7.51,7.51,0,0,0-3.65.9,7.15,7.15,0,0,0-2.65,2.5,6.55,6.55,0,0,0-1,3.58,7.08,7.08,0,0,0,2.31,5.52c1.54,1.4,4.18,2.61,7.92,3.65q5.17,1.44,7.64,4a9,9,0,0,1,2.46,6.49"/><path class="cls-9" d="M162.87,223.8a10.71,10.71,0,0,1-5.17,9.57q-5.19,3.34-14.85,3.34c-6,0-10.53-.91-13.62-2.71a8.64,8.64,0,0,1-4.65-7.89,6.62,6.62,0,0,1,2.31-5.21,8.65,8.65,0,0,1,5.92-2,10.88,10.88,0,0,1,6.64,1.84,5.86,5.86,0,0,1,2.47,5,4.64,4.64,0,0,1-1.62,3.74,7.31,7.31,0,0,1-4.56,1.5,1.13,1.13,0,0,0-.37.81.77.77,0,0,0,.41.69,2,2,0,0,0,1,.24,7.24,7.24,0,0,0,5.21-2,6.62,6.62,0,0,0,2.09-5,7.4,7.4,0,0,0-1-4,8.64,8.64,0,0,0-3.21-2.84,31.78,31.78,0,0,0-6-2.43,13.07,13.07,0,0,1-6.48-3.93A9.69,9.69,0,0,1,125.2,206a10.31,10.31,0,0,1,2.34-6.65,15.58,15.58,0,0,1,6.74-4.58,28.66,28.66,0,0,1,10.26-1.68q8.24,0,12.88,2.8a8.7,8.7,0,0,1,4.64,7.8,6.51,6.51,0,0,1-2.4,5.21,9.29,9.29,0,0,1-6.2,2,10,10,0,0,1-6.33-1.87,6,6,0,0,1-2.41-4.93,4.64,4.64,0,0,1,1.63-3.74,7.33,7.33,0,0,1,4.55-1.49,1.13,1.13,0,0,0,.37-.81.78.78,0,0,0-.4-.69,1.92,1.92,0,0,0-1-.25,7.51,7.51,0,0,0-3.65.9,7.15,7.15,0,0,0-2.65,2.5,6.55,6.55,0,0,0-1,3.58,7.08,7.08,0,0,0,2.31,5.52c1.54,1.4,4.18,2.61,7.92,3.65q5.17,1.44,7.64,4A9,9,0,0,1,162.87,223.8Z"/><path class="cls-10" d="M183.08,194.18a2.08,2.08,0,0,1,1.59.5,2.43,2.43,0,0,1,.47,1.68v35.48c0,1.13.39,1.69,1.18,1.69s1.19-.56,1.19-1.69V196.36a2.43,2.43,0,0,1,.46-1.68,2.11,2.11,0,0,1,1.59-.5h13.79a2.36,2.36,0,0,1,1.62.46,2.05,2.05,0,0,1,.5,1.53v22.39q0,9-4.84,13.57t-14.31,4.58q-9.42,0-14.28-4.58t-4.86-13.57V201.29a7.76,7.76,0,0,0-.25-2.28,3.34,3.34,0,0,0-.88-1.31,17.44,17.44,0,0,0-2.12-1.59.62.62,0,0,1-.31-.56v-.75c0-.41.25-.62.75-.62Z"/><path class="cls-9" d="M183.08,194.18a2.08,2.08,0,0,1,1.59.5,2.43,2.43,0,0,1,.47,1.68v35.48c0,1.13.39,1.69,1.18,1.69s1.19-.56,1.19-1.69V196.36a2.43,2.43,0,0,1,.46-1.68,2.11,2.11,0,0,1,1.59-.5h13.79a2.36,2.36,0,0,1,1.62.46,2.05,2.05,0,0,1,.5,1.53v22.39q0,9-4.84,13.57t-14.31,4.58q-9.42,0-14.28-4.58t-4.86-13.57V201.29a7.76,7.76,0,0,0-.25-2.28,3.34,3.34,0,0,0-.88-1.31,17.44,17.44,0,0,0-2.12-1.59.62.62,0,0,1-.31-.56v-.75c0-.41.25-.62.75-.62Z"/><path class="cls-10" d="M244.26,223.05a1.5,1.5,0,0,0,.62.13,1,1,0,0,0,.69-.28,1,1,0,0,0,.31-.72,3.55,3.55,0,0,0-.69-1.87l-14.34-23.7a6.74,6.74,0,0,1-.41-.72,1.36,1.36,0,0,1-.09-.53V195a.85.85,0,0,1,.19-.66,1,1,0,0,1,.62-.15h16a2.12,2.12,0,0,1,1.6.5,2.43,2.43,0,0,1,.46,1.68v37.11a2.43,2.43,0,0,1-.46,1.68,2.16,2.16,0,0,1-1.6.5h-8a8.51,8.51,0,0,1-4.49-1,10.7,10.7,0,0,1-3.24-3.68l-14.66-24.19a1.37,1.37,0,0,0-.56-.13,1.11,1.11,0,0,0-.72.28.92.92,0,0,0-.34.72,4.11,4.11,0,0,0,.69,1.87l14.34,23.7a6.12,6.12,0,0,1,.41.71,1.44,1.44,0,0,1,.09.53v.38a1,1,0,0,1-.15.62.85.85,0,0,1-.66.19h-16a2.15,2.15,0,0,1-1.59-.5,2.43,2.43,0,0,1-.46-1.68V201.29a7.76,7.76,0,0,0-.25-2.28,3.34,3.34,0,0,0-.88-1.31,17.44,17.44,0,0,0-2.12-1.59.63.63,0,0,1-.31-.56v-.75c0-.42.25-.62.75-.62h12.85a8.51,8.51,0,0,1,4.49,1,10.74,10.74,0,0,1,3.24,3.67Z"/><path class="cls-9" d="M244.26,223.05a1.5,1.5,0,0,0,.62.13,1,1,0,0,0,.69-.28,1,1,0,0,0,.31-.72,3.55,3.55,0,0,0-.69-1.87l-14.34-23.7a6.74,6.74,0,0,1-.41-.72,1.36,1.36,0,0,1-.09-.53V195a.85.85,0,0,1,.19-.66,1,1,0,0,1,.62-.15h16a2.12,2.12,0,0,1,1.6.5,2.43,2.43,0,0,1,.46,1.68v37.11a2.43,2.43,0,0,1-.46,1.68,2.16,2.16,0,0,1-1.6.5h-8a8.51,8.51,0,0,1-4.49-1,10.7,10.7,0,0,1-3.24-3.68l-14.66-24.19a1.37,1.37,0,0,0-.56-.13,1.11,1.11,0,0,0-.72.28.92.92,0,0,0-.34.72,4.11,4.11,0,0,0,.69,1.87l14.34,23.7a6.12,6.12,0,0,1,.41.71,1.44,1.44,0,0,1,.09.53v.38a1,1,0,0,1-.15.62.85.85,0,0,1-.66.19h-16a2.15,2.15,0,0,1-1.59-.5,2.43,2.43,0,0,1-.46-1.68V201.29a7.76,7.76,0,0,0-.25-2.28,3.34,3.34,0,0,0-.88-1.31,17.44,17.44,0,0,0-2.12-1.59.63.63,0,0,1-.31-.56v-.75c0-.42.25-.62.75-.62h12.85a8.51,8.51,0,0,1,4.49,1,10.74,10.74,0,0,1,3.24,3.67Z"/><path class="cls-15" d="M117.46,663.36v-3.12a1.18,1.18,0,0,0,.59.12,2.23,2.23,0,0,0,2.18-2.2,4.62,4.62,0,0,0-1-2.46,5.81,5.81,0,0,1-1.28-3.34,4.67,4.67,0,0,1,4.91-4.9H123v3.06h-.11a1.89,1.89,0,0,0-1.84,2,3.59,3.59,0,0,0,.89,1.91,6.12,6.12,0,0,1,1.43,3.75,5,5,0,0,1-5.27,5.27,1.62,1.62,0,0,1-.59-.07"/><path class="cls-15" d="M125.14,659.93v-7.34H128v6.79a1.14,1.14,0,0,0,1.23,1.25,1.43,1.43,0,0,0,1.25-.79v-7.25h2.91v10.63h-2.91v-.82a3.09,3.09,0,0,1-2.32,1.14c-1.75,0-3.06-1.32-3.06-3.61"/><path class="cls-15" d="M135.7,663.22V652.59h2.91v.84a3.06,3.06,0,0,1,2.32-1.16c1.74,0,3.06,1.32,3.06,3.61v7.34h-2.91v-6.79a1.13,1.13,0,0,0-1.22-1.25,1.39,1.39,0,0,0-1.25.82v7.22Z"/><path class="cls-15" d="M146.63,663.22V655.5h-1.27v-2.91h1.27v-1.2c0-2.14,1.13-4,3.5-4a1.87,1.87,0,0,1,1,.28v2.74a1.48,1.48,0,0,0-.54-.11,1.11,1.11,0,0,0-1.05,1.14v1.2h1.59v2.91h-1.59v7.72Zm5.86-15.56h2.91v15.56h-2.91Z"/><path class="cls-15" d="M157.21,657.91a5.64,5.64,0,1,1,5.64,5.63,5.64,5.64,0,0,1-5.64-5.63m8.36,0a2.73,2.73,0,1,0-2.72,2.72,2.73,2.73,0,0,0,2.72-2.72"/><polygon class="cls-15" points="173.21 663.7 168.48 652.59 171.64 652.59 173.37 656.79 175.12 652.45 175.16 652.45 176.93 656.79 178.66 652.59 181.82 652.59 177.09 663.7 175.14 659.13 173.21 663.7"/><path class="cls-15" d="M181.82,657.91a5.63,5.63,0,1,1,11.26,0A5.94,5.94,0,0,1,193,659h-8a2.74,2.74,0,0,0,2.5,1.61,2.62,2.62,0,0,0,1.91-.79l2.07,2.06a5.64,5.64,0,0,1-9.61-4m8.11-1.12a2.73,2.73,0,0,0-5,0Z"/><path class="cls-15" d="M194.9,663.22V652.59h2.91v.84a3.07,3.07,0,0,1,2.32-1.16v2.91h-.07a3,3,0,0,0-2.25,1.25v6.79Z"/><path class="cls-15" d="M207.17,663.36v-3.12a1.2,1.2,0,0,0,.59.12,2.23,2.23,0,0,0,2.18-2.2,4.62,4.62,0,0,0-1-2.46,5.87,5.87,0,0,1-1.27-3.34,4.67,4.67,0,0,1,4.91-4.9h.11v3.06h-.11a1.89,1.89,0,0,0-1.85,2,3.59,3.59,0,0,0,.89,1.91,6.12,6.12,0,0,1,1.43,3.75,5,5,0,0,1-5.27,5.27,1.65,1.65,0,0,1-.59-.07"/><path class="cls-15" d="M214.4,657.91a5.63,5.63,0,1,1,11.26,0,5.94,5.94,0,0,1-.09,1.11h-8a2.74,2.74,0,0,0,2.5,1.61,2.62,2.62,0,0,0,1.91-.79L224,661.9a5.64,5.64,0,0,1-9.61-4m8.11-1.12a2.73,2.73,0,0,0-5,0Z"/><path class="cls-15" d="M227,657.91a5.63,5.63,0,1,1,11.26,0,5.94,5.94,0,0,1-.09,1.11h-8a2.74,2.74,0,0,0,2.5,1.61,2.62,2.62,0,0,0,1.91-.79l2.07,2.06a5.64,5.64,0,0,1-9.61-4m8.11-1.12a2.73,2.73,0,0,0-5,0Z"/><path class="cls-15" d="M239.66,657.91c0-3.12,2.52-5.64,5.13-5.64a3.49,3.49,0,0,1,2.66,1v-5.61h2.91v15.56h-2.91v-.66a3.52,3.52,0,0,1-2.66,1,5.55,5.55,0,0,1-5.13-5.63m7.79,1.65v-3.31a2.68,2.68,0,0,0-2.16-1.07,2.73,2.73,0,0,0,0,5.45,2.68,2.68,0,0,0,2.16-1.07"/><path class="cls-15" d="M252.18,663.49v-2.93a2.23,2.23,0,0,0,.63.07,1,1,0,0,0,1.09-.93,2.37,2.37,0,0,0-.57-1.23,4.82,4.82,0,0,1-1-2.86c0-1.79,1.64-3.36,4.07-3.36h.07v2.93h-.07a.89.89,0,0,0-.91.91,1.93,1.93,0,0,0,.52,1.07,4.35,4.35,0,0,1,1,2.77,3.94,3.94,0,0,1-4.18,3.61,2.6,2.6,0,0,1-.63,0"/><path class="cls-15" d="M120.39,529.73V506.12h6a11.81,11.81,0,1,1,0,23.61Zm4.69-4.69h1.27a7.12,7.12,0,1,0,0-14.23h-1.27Z"/><path class="cls-15" d="M140.77,507.63h4.41v4.42h-4.41Zm0,6h4.41v16.13h-4.41Z"/><rect class="cls-15" x="148.63" y="506.12" width="4.41" height="23.61"/><rect class="cls-15" x="156.49" y="506.12" width="4.41" height="23.61"/><path class="cls-15" d="M174.35,529.73V506.12h6a8.76,8.76,0,1,1,0,17.51H179v6.1ZM179,518.94h1.28a4.07,4.07,0,1,0,0-8.13H179Z"/><path class="cls-15" d="M192,507.63h4.41v4.42H192Zm0,6h4.41v16.13H192Z"/><path class="cls-15" d="M199.17,521.67a8.56,8.56,0,0,1,14.62-6l-3.14,3.1a4.29,4.29,0,0,0-2.93-1.2,4.14,4.14,0,1,0,0,8.27,4,4,0,0,0,2.89-1.2l3.14,3.13a8.56,8.56,0,0,1-14.58-6.06"/><polygon class="cls-15" points="216.2 529.73 216.2 506.12 220.61 506.12 220.61 518.77 224.2 513.6 229.68 513.6 224.06 521.18 230.33 529.73 224.85 529.73 221.3 524.73 220.61 525.66 220.61 529.73 216.2 529.73"/><rect class="cls-15" x="232.06" y="506.12" width="4.41" height="23.61"/><path class="cls-15" d="M239.23,521.67a8.55,8.55,0,1,1,17.1,0,9.52,9.52,0,0,1-.14,1.68H244a4.14,4.14,0,0,0,3.79,2.45,4,4,0,0,0,2.9-1.2l3.13,3.13a8.56,8.56,0,0,1-14.58-6.06M251.54,520a4.13,4.13,0,0,0-7.55,0Z"/></g></svg>