<svg xmlns="http://www.w3.org/2000/svg" viewBox="0 0 450 750"><defs><style>.cls-1{fill:#f4a032;}.cls-2{fill:#ffeec7;stroke-miterlimit:10;}.cls-2,.cls-4,.cls-5{stroke:#6d4a2e;}.cls-3{fill:#eee83f;}.cls-4,.cls-5,.cls-6{fill:none;}.cls-4,.cls-5{stroke-linecap:round;stroke-linejoin:round;}.cls-5{stroke-width:0.75px;}.cls-7{opacity:0.15;}</style></defs><g id="Layer_3" data-name="Layer 3"><polygon class="cls-1" points="337 713 412.5 637.5 413 37 337 113 337 713"/></g><g id="right"><path class="cls-2" d="M389,198.32a22.08,22.08,0,0,0,2.44-6.15,26.55,26.55,0,0,0,.19-13.31c-2.35-9.08-8.79-14.76-14.33-18.74a73.3,73.3,0,0,0-17.07-9c-1.08-.41-2.16-.81-3.25-1.13a181.9,181.9,0,0,0,6.66,30.5c3.09,9.83,7.92,22,15.94,22.84,3,.3,6-1,8.39-3.65A9.61,9.61,0,0,0,389,198.32Z"/><path class="cls-3" d="M360.3,236.15a22.32,22.32,0,0,0-2.43,6.16,26.44,26.44,0,0,0-.19,13.31c2.35,9.08,8.79,14.76,14.33,18.74a73.69,73.69,0,0,0,17.07,9c1.08.4,2.16.8,3.25,1.13a182.45,182.45,0,0,0-6.66-30.5c-3.09-9.84-7.92-22-15.94-22.84a11,11,0,0,0-9.43,5Z"/><path class="cls-2" d="M389,360.52a22,22,0,0,0,2.44-6.16,26.55,26.55,0,0,0,.19-13.31c-2.35-9.08-8.79-14.75-14.33-18.73a73.35,73.35,0,0,0-17.07-9c-1.08-.4-2.16-.8-3.25-1.12a181.9,181.9,0,0,0,6.66,30.5c3.09,9.83,7.92,22,15.94,22.83a10.15,10.15,0,0,0,8.39-3.65A9.51,9.51,0,0,0,389,360.52Z"/><path class="cls-3" d="M360.3,398.35a22.38,22.38,0,0,0-2.43,6.15,26.48,26.48,0,0,0-.19,13.32c2.35,9.07,8.79,14.75,14.33,18.73a72.93,72.93,0,0,0,17.07,9c1.08.41,2.16.81,3.25,1.13a182.89,182.89,0,0,0-6.66-30.5c-3.09-9.83-7.92-22-15.94-22.83a10.17,10.17,0,0,0-8.39,3.64A10.27,10.27,0,0,0,360.3,398.35Z"/><path class="cls-2" d="M389,522.72a22,22,0,0,0,2.44-6.16,26.55,26.55,0,0,0,.19-13.31c-2.35-9.08-8.79-14.76-14.33-18.74a73.69,73.69,0,0,0-17.07-9c-1.08-.4-2.16-.8-3.25-1.13a181.68,181.68,0,0,0,6.66,30.5c3.09,9.84,7.92,22,15.94,22.84a10.88,10.88,0,0,0,9.42-5Z"/><path class="cls-3" d="M360.3,560.54a22.57,22.57,0,0,0-2.43,6.16,26.44,26.44,0,0,0-.19,13.31c2.35,9.08,8.79,14.76,14.33,18.74a73.69,73.69,0,0,0,17.07,9c1.08.41,2.16.8,3.25,1.13a182.89,182.89,0,0,0-6.66-30.5c-3.09-9.83-7.92-22-15.94-22.84-3-.3-6,1-8.39,3.65A10.17,10.17,0,0,0,360.3,560.54Z"/><path class="cls-4" d="M389,198.32a22.08,22.08,0,0,0,2.44-6.15,26.55,26.55,0,0,0,.19-13.31c-2.35-9.08-8.79-14.76-14.33-18.74a73.3,73.3,0,0,0-17.07-9c-1.08-.41-2.16-.81-3.25-1.13a181.9,181.9,0,0,0,6.66,30.5c3.09,9.83,7.92,22,15.94,22.84,3,.3,6-1,8.39-3.65A9.61,9.61,0,0,0,389,198.32Z"/><path class="cls-5" d="M357,150c40.32,30.77,32.7,47.12,32.7,47.12"/><path class="cls-5" d="M357,150c20.4,60.84,31.23,49.34,31.23,49.34"/><path class="cls-5" d="M389,198.32s.33-15.18-32-48.32"/><path class="cls-4" d="M360.3,236.15a22.32,22.32,0,0,0-2.43,6.16,26.44,26.44,0,0,0-.19,13.31c2.35,9.08,8.79,14.76,14.33,18.74a73.69,73.69,0,0,0,17.07,9c1.08.4,2.16.8,3.25,1.13a182.45,182.45,0,0,0-6.66-30.5c-3.09-9.84-7.92-22-15.94-22.84a11,11,0,0,0-9.43,5Z"/><path class="cls-5" d="M392.33,284.48c-40.32-30.78-32.7-47.13-32.7-47.13"/><path class="cls-5" d="M392.33,284.48c-20.4-60.85-31.23-49.34-31.23-49.34"/><path class="cls-5" d="M360.3,236.15s-.32,15.19,32,48.33"/><path class="cls-4" d="M389,360.52a22,22,0,0,0,2.44-6.16,26.55,26.55,0,0,0,.19-13.31c-2.35-9.08-8.79-14.75-14.33-18.73a73.35,73.35,0,0,0-17.07-9c-1.08-.4-2.16-.8-3.25-1.12a181.9,181.9,0,0,0,6.66,30.5c3.09,9.83,7.92,22,15.94,22.83a10.15,10.15,0,0,0,8.39-3.65A9.51,9.51,0,0,0,389,360.52Z"/><path class="cls-5" d="M357,312.2c40.32,30.77,32.7,47.12,32.7,47.12"/><path class="cls-5" d="M357,312.2c20.4,60.84,31.23,49.33,31.23,49.33"/><path class="cls-5" d="M389,360.52s.33-15.19-32-48.32"/><path class="cls-4" d="M360.3,398.35a22.38,22.38,0,0,0-2.43,6.15,26.48,26.48,0,0,0-.19,13.32c2.35,9.07,8.79,14.75,14.33,18.73a72.93,72.93,0,0,0,17.07,9c1.08.41,2.16.81,3.25,1.13a182.89,182.89,0,0,0-6.66-30.5c-3.09-9.83-7.92-22-15.94-22.83a10.17,10.17,0,0,0-8.39,3.64A10.27,10.27,0,0,0,360.3,398.35Z"/><path class="cls-5" d="M392.33,446.67c-40.32-30.77-32.7-47.12-32.7-47.12"/><path class="cls-5" d="M392.33,446.67c-20.4-60.84-31.23-49.34-31.23-49.34"/><path class="cls-5" d="M360.3,398.35s-.32,15.19,32,48.32"/><path class="cls-4" d="M389,522.72a22,22,0,0,0,2.44-6.16,26.55,26.55,0,0,0,.19-13.31c-2.35-9.08-8.79-14.76-14.33-18.74a73.69,73.69,0,0,0-17.07-9c-1.08-.4-2.16-.8-3.25-1.13a181.68,181.68,0,0,0,6.66,30.5c3.09,9.84,7.92,22,15.94,22.84a10.88,10.88,0,0,0,9.42-5Z"/><path class="cls-5" d="M357,474.39c40.32,30.78,32.7,47.12,32.7,47.12"/><path class="cls-5" d="M357,474.39c20.4,60.85,31.23,49.34,31.23,49.34"/><path class="cls-5" d="M389,522.72s.33-15.19-32-48.33"/><path class="cls-4" d="M360.3,560.54a22.57,22.57,0,0,0-2.43,6.16,26.44,26.44,0,0,0-.19,13.31c2.35,9.08,8.79,14.76,14.33,18.74a73.69,73.69,0,0,0,17.07,9c1.08.41,2.16.8,3.25,1.13a182.89,182.89,0,0,0-6.66-30.5c-3.09-9.83-7.92-22-15.94-22.84-3-.3-6,1-8.39,3.65A10.17,10.17,0,0,0,360.3,560.54Z"/><path class="cls-5" d="M392.33,608.87c-40.32-30.78-32.7-47.12-32.7-47.12"/><path class="cls-5" d="M392.33,608.87c-20.4-60.85-31.23-49.34-31.23-49.34"/><path class="cls-5" d="M360.3,560.54s-.32,15.19,32,48.33"/><rect class="cls-6" x="333" y="153" width="84" height="336"/></g><g id="Layer_6" data-name="Layer 6"><polyline class="cls-7" points="337 113 337 713 412.5 637.5 413 37"/></g></svg>