<svg xmlns="http://www.w3.org/2000/svg" viewBox="0 0 450 750"><defs><style>.cls-1{fill:#d0edf7;}.cls-2{fill:#f9c924;stroke:#31366d;stroke-linecap:round;stroke-linejoin:round;}</style></defs><g id="Layer_3" data-name="Layer 3"><polygon class="cls-1" points="263 37 113 37 37 113 187 113 263 37"/></g><g id="Layer_2" data-name="Layer 2"><polygon class="cls-2" points="196.03 72.41 183.52 74.38 192.11 76.34 194.07 74.38 196.03 72.41"/><polygon class="cls-2" points="203.09 93.62 199.83 100.05 206.3 93.62 203.09 93.62"/><polygon class="cls-2" points="241.81 55.13 245.07 55.13 251.53 48.71 241.81 55.13"/><polygon class="cls-2" points="189.73 87.99 188.84 86.59 177.77 92.53 190.61 89.38 189.73 87.99"/><polygon class="cls-2" points="220.62 59.38 213.96 56.23 213.25 62.16 216.93 60.77 220.62 59.38"/><path class="cls-2" d="M211.66,88.3l28.05-27.84,1.73-1.73c-14.27,0-32.84,7-41.47,15.65S195.8,90,209.92,90Z"/></g></svg>