<svg xmlns="http://www.w3.org/2000/svg" viewBox="0 0 450 750"><defs><style>.cls-1{fill:#d0edf7;}.cls-2{fill:#f9c924;stroke:#31366d;stroke-linecap:round;stroke-linejoin:round;}</style></defs><g id="Layer_3" data-name="Layer 3"><polygon class="cls-1" points="413 37 263 37 187 113 337 113 413 37"/></g><g id="Layer_2" data-name="Layer 2"><polygon class="cls-2" points="258.86 76.34 272.27 74.38 262.28 72.41 260.57 74.38 258.86 76.34"/><polygon class="cls-2" points="247.96 55.13 251 48.71 244.62 55.13 247.96 55.13"/><polygon class="cls-2" points="210.23 93.62 206.41 93.62 200.03 100.05 210.23 93.62"/><polygon class="cls-2" points="262.63 60.77 263.79 62.16 274.49 56.23 261.49 59.38 262.63 60.77"/><polygon class="cls-2" points="234.05 89.38 242.66 92.53 241.88 86.59 237.98 87.99 234.05 89.38"/><path class="cls-2" d="M239.34,60.46,211.69,88.3,210,90c16.61,0,36.32-7,44-15.65s1.91-15.65-13-15.65Z"/></g></svg>